{"glyphs":{"0":{"ha":902,"x_min":77,"x_max":825,"o":"m 452 -11 q 258 43 342 -11 q 125 199 173 98 q 77 441 77 300 l 77 553 q 125 798 77 696 q 258 956 173 901 q 452 1010 342 1011 q 645 956 561 1010 q 777 799 730 901 q 825 553 825 696 l 825 441 q 777 197 825 298 q 645 43 730 96 q 452 -11 561 -11 m 452 159 q 549 187 509 159 q 611 272 589 216 q 632 412 632 329 l 632 587 q 611 727 632 671 q 550 812 591 784 q 452 841 510 841 q 354 812 395 841 q 291 727 313 784 q 269 587 269 671 l 269 412 q 292 274 269 331 q 355 188 314 218 q 452 159 396 159 z "},"1":{"ha":585,"x_min":83,"x_max":469,"o":"m 275 0 l 275 827 l 313 773 l 83 667 l 83 848 l 409 1000 l 469 1000 l 469 0 l 275 0 z "},"2":{"ha":807,"x_min":60,"x_max":735,"o":"m 70 0 l 70 44 l 345 391 q 435 504 391 449 q 507 610 478 558 q 535 712 535 663 q 518 778 535 749 q 471 823 501 807 q 401 840 441 840 q 325 821 358 840 q 274 767 292 802 q 255 688 255 733 l 60 688 q 105 855 61 782 q 226 969 149 928 q 402 1010 303 1010 q 569 974 496 1010 q 684 872 642 937 q 726 721 726 806 q 696 585 726 648 q 617 459 666 522 q 509 325 568 396 l 387 174 l 387 168 l 523 171 l 735 171 l 735 0 l 70 0 z "},"3":{"ha":804,"x_min":45,"x_max":736,"o":"m 391 -11 q 217 26 294 -11 q 93 129 139 63 q 45 284 47 195 l 237 285 q 259 214 237 243 q 318 168 282 184 q 395 153 354 152 q 473 171 439 153 q 527 222 507 190 q 547 296 547 254 q 526 368 547 336 q 465 419 506 400 q 360 438 423 438 l 307 438 l 307 587 l 366 587 q 446 606 412 587 q 497 655 479 624 q 515 726 515 686 q 500 791 515 764 q 457 832 485 818 q 392 847 429 847 q 325 833 353 847 q 279 793 296 819 q 263 733 263 767 l 80 733 q 119 875 79 812 q 230 974 159 938 q 394 1010 300 1010 q 556 975 487 1010 q 665 879 626 939 q 703 743 703 818 q 665 609 703 667 q 559 519 626 551 q 410 489 493 488 l 410 540 q 578 510 505 543 q 694 418 652 478 q 736 279 736 359 q 691 131 736 197 q 568 27 646 66 q 391 -11 490 -11 z "},"4":{"ha":854,"x_min":32,"x_max":802,"o":"m 501 0 l 501 574 l 508 752 l 503 752 l 414 612 l 245 367 l 245 363 l 802 363 l 802 203 l 32 203 l 32 313 l 514 1000 l 688 1000 l 688 0 l 501 0 z "},"5":{"ha":810,"x_min":71,"x_max":751,"o":"m 406 -11 q 262 15 329 -11 q 145 85 195 40 q 71 188 95 130 l 248 264 q 284 210 260 233 q 340 172 308 186 q 409 159 372 159 q 492 180 456 159 q 548 238 528 201 q 569 321 569 275 q 548 405 569 369 q 489 461 526 441 q 406 481 452 481 q 322 464 361 481 q 269 422 283 446 l 119 445 l 119 1000 l 671 1000 l 671 829 l 299 829 l 299 516 l 259 579 q 330 620 282 603 q 435 637 378 637 q 592 596 519 637 q 707 484 664 556 q 751 315 751 412 q 705 144 751 217 q 581 30 659 71 q 406 -11 503 -11 z "},"6":{"ha":810,"x_min":54,"x_max":756,"o":"m 410 -11 q 226 34 307 -11 q 100 153 146 79 q 54 317 54 228 q 70 423 54 371 q 107 517 85 475 q 146 587 128 559 l 425 1000 l 639 1000 l 360 591 l 334 602 q 377 626 350 618 q 442 635 405 635 q 598 594 526 635 q 713 482 669 554 q 756 315 756 410 q 711 146 756 220 q 588 31 666 73 q 410 -11 509 -11 m 406 155 q 492 176 454 155 q 551 234 530 197 q 573 318 573 271 q 551 401 573 365 q 492 459 530 438 q 406 480 454 480 q 319 459 357 480 q 259 401 281 438 q 237 318 237 365 q 259 234 237 271 q 319 176 281 197 q 406 155 357 155 z "},"7":{"ha":743,"x_min":29,"x_max":724,"o":"m 123 0 l 474 823 l 474 829 l 29 829 l 29 1000 l 724 1000 l 724 965 l 324 0 l 123 0 z "},"8":{"ha":853,"x_min":68,"x_max":785,"o":"m 427 -11 q 244 28 326 -11 q 115 134 163 67 q 68 282 68 200 q 115 431 68 365 q 244 536 163 497 q 427 574 326 574 q 609 536 528 574 q 738 431 690 497 q 785 282 785 365 q 738 134 785 200 q 609 28 690 67 q 427 -11 528 -11 m 427 148 q 513 167 475 148 q 575 218 552 186 q 597 291 597 251 q 575 366 597 333 q 514 419 553 399 q 428 439 476 439 q 341 419 380 439 q 279 366 302 399 q 256 290 256 332 q 279 218 256 250 q 340 167 301 186 q 427 148 378 148 m 427 458 q 270 495 340 458 q 159 597 200 533 q 118 741 118 661 q 159 878 118 817 q 270 975 200 939 q 427 1010 340 1010 q 584 975 514 1010 q 695 878 654 939 q 736 740 736 817 q 695 597 736 661 q 584 495 654 533 q 427 458 514 458 m 427 591 q 498 609 467 591 q 548 657 530 627 q 567 726 567 688 q 548 792 567 763 q 498 838 530 821 q 426 854 466 854 q 355 838 387 854 q 305 792 323 821 q 287 726 287 763 q 306 657 287 688 q 356 609 324 627 q 427 591 388 591 z "},"9":{"ha":810,"x_min":54,"x_max":756,"o":"m 399 1010 q 584 966 503 1010 q 710 846 665 921 q 756 683 756 772 q 741 577 756 629 q 703 483 725 525 q 664 413 682 440 l 385 0 l 171 0 l 450 408 l 476 397 q 433 373 460 382 q 368 365 406 365 q 212 405 283 365 q 97 517 140 446 q 54 685 54 589 q 99 853 54 780 q 222 969 144 927 q 399 1010 300 1010 m 404 845 q 318 824 356 845 q 259 766 281 802 q 237 682 237 729 q 259 598 237 635 q 318 541 281 562 q 404 519 356 519 q 491 541 453 519 q 551 598 529 562 q 573 682 573 635 q 551 766 573 729 q 491 824 529 802 q 404 845 453 845 z "},"A":{"ha":988,"x_min":-1,"x_max":989,"o":"m -1 0 l 412 1000 l 576 1000 l 989 0 l 783 0 l 677 268 l 660 342 l 496 766 l 491 766 l 328 342 l 310 268 l 204 0 l -1 0 m 220 217 l 220 380 l 768 380 l 768 217 l 220 217 z "},"Á":{"ha":988,"x_min":-1,"x_max":989,"o":"m -1 0 l 412 1000 l 576 1000 l 989 0 l 783 0 l 677 268 l 660 342 l 496 766 l 491 766 l 328 342 l 310 268 l 204 0 l -1 0 m 220 217 l 220 380 l 768 380 l 768 217 l 220 217 m 494 1049 l 415 1130 l 646 1334 l 735 1218 l 494 1049 z "},"Ă":{"ha":988,"x_min":-1,"x_max":989,"o":"m -1 0 l 412 1000 l 576 1000 l 989 0 l 783 0 l 677 268 l 660 342 l 496 766 l 491 766 l 328 342 l 310 268 l 204 0 l -1 0 m 220 217 l 220 380 l 768 380 l 768 217 l 220 217 m 494 1061 q 371 1087 427 1063 q 280 1158 315 1112 q 246 1271 246 1204 l 359 1271 q 401 1191 360 1217 q 494 1165 441 1165 q 589 1191 549 1165 q 629 1271 630 1217 l 743 1271 q 710 1158 745 1204 q 619 1087 676 1112 q 494 1061 562 1063 z "},"Ắ":{"ha":988,"x_min":-1,"x_max":989,"o":"m -1 0 l 412 1000 l 576 1000 l 989 0 l 783 0 l 677 268 l 660 342 l 496 766 l 491 766 l 328 342 l 310 268 l 204 0 l -1 0 m 220 217 l 220 380 l 768 380 l 768 217 l 220 217 m 466 1225 l 397 1314 l 626 1506 l 709 1392 l 466 1225 m 484 1059 q 355 1087 412 1059 q 266 1162 298 1114 q 233 1269 233 1209 l 348 1269 q 387 1190 348 1221 q 484 1158 426 1158 q 579 1190 541 1158 q 616 1269 616 1221 l 732 1269 q 699 1162 732 1209 q 611 1087 667 1114 q 484 1059 555 1059 z "},"Ặ":{"ha":988,"x_min":-1,"x_max":989,"o":"m -1 0 l 412 1000 l 576 1000 l 989 0 l 783 0 l 677 268 l 660 342 l 496 766 l 491 766 l 328 342 l 310 268 l 204 0 l -1 0 m 220 217 l 220 380 l 768 380 l 768 217 l 220 217 m 499 -318 q 415 -283 450 -318 q 380 -199 380 -248 q 415 -114 380 -149 q 499 -80 450 -80 q 584 -114 549 -80 q 618 -199 618 -149 q 584 -283 618 -248 q 499 -318 549 -318 m 494 1061 q 371 1087 427 1063 q 280 1158 315 1112 q 246 1271 246 1204 l 359 1271 q 401 1191 360 1217 q 494 1165 441 1165 q 589 1191 549 1165 q 629 1271 630 1217 l 743 1271 q 710 1158 745 1204 q 619 1087 676 1112 q 494 1061 562 1063 z "},"Ằ":{"ha":988,"x_min":-1,"x_max":989,"o":"m -1 0 l 412 1000 l 576 1000 l 989 0 l 783 0 l 677 268 l 660 342 l 496 766 l 491 766 l 328 342 l 310 268 l 204 0 l -1 0 m 220 217 l 220 380 l 768 380 l 768 217 l 220 217 m 511 1225 l 269 1393 l 352 1506 l 580 1314 l 511 1225 m 494 1059 q 367 1087 423 1059 q 278 1162 311 1114 q 246 1269 246 1209 l 361 1269 q 399 1190 361 1221 q 494 1159 437 1159 q 591 1190 553 1159 q 629 1269 629 1221 l 745 1269 q 712 1162 745 1209 q 623 1087 679 1114 q 494 1059 566 1059 z "},"Ẳ":{"ha":988,"x_min":-1,"x_max":989,"o":"m -1 0 l 412 1000 l 576 1000 l 989 0 l 783 0 l 677 268 l 660 342 l 496 766 l 491 766 l 328 342 l 310 268 l 204 0 l -1 0 m 220 217 l 220 380 l 768 380 l 768 217 l 220 217 m 494 1059 q 367 1087 423 1059 q 278 1162 311 1114 q 246 1269 246 1209 l 361 1269 q 399 1190 361 1221 q 494 1159 437 1159 q 591 1190 553 1159 q 629 1269 629 1221 l 745 1269 q 712 1162 745 1209 q 623 1087 679 1114 q 494 1059 566 1059 m 492 1211 l 424 1279 q 463 1311 446 1292 q 479 1350 479 1330 q 460 1381 479 1371 q 408 1392 441 1392 q 373 1389 393 1392 q 337 1379 354 1385 l 337 1490 q 381 1501 353 1497 q 433 1505 410 1505 q 550 1471 507 1505 q 594 1374 594 1438 q 563 1274 594 1318 q 492 1211 532 1230 z "},"Ẵ":{"ha":988,"x_min":-1,"x_max":989,"o":"m -1 0 l 412 1000 l 576 1000 l 989 0 l 783 0 l 677 268 l 660 342 l 496 766 l 491 766 l 328 342 l 310 268 l 204 0 l -1 0 m 220 217 l 220 380 l 768 380 l 768 217 l 220 217 m 245 1314 q 286 1453 245 1400 q 398 1506 326 1506 q 461 1495 436 1506 q 505 1468 486 1483 q 539 1440 523 1452 q 575 1429 555 1429 q 616 1450 603 1429 q 627 1506 629 1470 l 743 1506 q 726 1409 745 1452 q 673 1339 708 1365 q 588 1314 637 1314 q 528 1325 552 1314 q 485 1353 503 1337 q 449 1381 466 1369 q 412 1393 432 1393 q 373 1373 386 1393 q 359 1314 360 1354 l 245 1314 m 493 1059 q 366 1087 422 1059 q 277 1162 309 1114 q 245 1269 245 1209 l 359 1269 q 397 1190 359 1221 q 493 1159 435 1159 q 590 1190 551 1159 q 628 1269 628 1221 l 743 1269 q 710 1162 743 1209 q 621 1087 677 1114 q 493 1059 565 1059 z "},"Ǎ":{"ha":988,"x_min":-1,"x_max":989,"o":"m -1 0 l 412 1000 l 576 1000 l 989 0 l 783 0 l 677 268 l 660 342 l 496 766 l 491 766 l 328 342 l 310 268 l 204 0 l -1 0 m 220 217 l 220 380 l 768 380 l 768 217 l 220 217 m 324 1300 l 491 1173 l 495 1173 l 665 1300 l 748 1211 l 513 1047 l 474 1047 l 239 1211 l 324 1300 z "},"Â":{"ha":988,"x_min":-1,"x_max":989,"o":"m -1 0 l 412 1000 l 576 1000 l 989 0 l 783 0 l 677 268 l 660 342 l 496 766 l 491 766 l 328 342 l 310 268 l 204 0 l -1 0 m 220 217 l 220 380 l 768 380 l 768 217 l 220 217 m 326 1051 l 241 1140 l 476 1304 l 515 1304 l 749 1140 l 667 1051 l 496 1178 l 492 1178 l 326 1051 z "},"Ấ":{"ha":988,"x_min":-1,"x_max":989,"o":"m -1 0 l 412 1000 l 576 1000 l 989 0 l 783 0 l 677 268 l 660 342 l 496 766 l 491 766 l 328 342 l 310 268 l 204 0 l -1 0 m 220 217 l 220 380 l 768 380 l 768 217 l 220 217 m 705 1226 l 621 1286 l 838 1503 l 928 1385 l 705 1226 m 324 1042 l 239 1128 l 475 1292 l 513 1292 l 748 1128 l 665 1042 l 495 1167 l 491 1167 l 324 1042 z "},"Ậ":{"ha":988,"x_min":-1,"x_max":989,"o":"m -1 0 l 412 1000 l 576 1000 l 989 0 l 783 0 l 677 268 l 660 342 l 496 766 l 491 766 l 328 342 l 310 268 l 204 0 l -1 0 m 220 217 l 220 380 l 768 380 l 768 217 l 220 217 m 499 -318 q 415 -283 450 -318 q 380 -199 380 -248 q 415 -114 380 -149 q 499 -80 450 -80 q 584 -114 549 -80 q 618 -199 618 -149 q 584 -283 618 -248 q 499 -318 549 -318 m 326 1051 l 241 1140 l 476 1304 l 515 1304 l 749 1140 l 667 1051 l 496 1178 l 492 1178 l 326 1051 z "},"Ầ":{"ha":988,"x_min":-1,"x_max":989,"o":"m -1 0 l 412 1000 l 576 1000 l 989 0 l 783 0 l 677 268 l 660 342 l 496 766 l 491 766 l 328 342 l 310 268 l 204 0 l -1 0 m 220 217 l 220 380 l 768 380 l 768 217 l 220 217 m 283 1226 l 60 1385 l 151 1503 l 367 1286 l 283 1226 m 664 1041 l 497 1167 l 493 1167 l 323 1041 l 240 1128 l 475 1292 l 513 1292 l 749 1128 l 664 1041 z "},"Ẩ":{"ha":988,"x_min":-1,"x_max":989,"o":"m -1 0 l 412 1000 l 576 1000 l 989 0 l 783 0 l 677 268 l 660 342 l 496 766 l 491 766 l 328 342 l 310 268 l 204 0 l -1 0 m 220 217 l 220 380 l 768 380 l 768 217 l 220 217 m 696 1227 l 626 1278 q 662 1311 648 1294 q 676 1346 676 1329 q 659 1380 676 1368 q 607 1392 642 1392 q 572 1389 589 1392 q 534 1379 554 1385 l 534 1491 q 579 1501 549 1498 q 633 1505 608 1505 q 747 1473 704 1505 q 791 1373 791 1441 q 775 1310 791 1339 q 738 1260 760 1282 q 696 1227 716 1239 m 326 1042 l 241 1128 l 476 1292 l 515 1292 l 749 1128 l 667 1042 l 496 1167 l 492 1167 l 326 1042 z "},"Ẫ":{"ha":988,"x_min":-1,"x_max":989,"o":"m -1 0 l 412 1000 l 576 1000 l 989 0 l 783 0 l 677 268 l 660 342 l 496 766 l 491 766 l 328 342 l 310 268 l 204 0 l -1 0 m 220 217 l 220 380 l 768 380 l 768 217 l 220 217 m 245 1314 q 285 1453 243 1400 q 398 1506 326 1506 q 461 1495 436 1506 q 504 1468 486 1483 q 538 1440 522 1452 q 575 1429 555 1429 q 614 1450 601 1429 q 627 1506 627 1470 l 744 1506 q 729 1409 745 1452 q 682 1339 714 1365 q 602 1314 650 1314 q 540 1325 565 1314 q 497 1353 515 1337 q 462 1381 479 1369 q 425 1393 446 1393 q 379 1373 398 1393 q 359 1314 361 1354 l 245 1314 m 324 1042 l 239 1128 l 475 1292 l 513 1292 l 748 1128 l 665 1042 l 495 1167 l 491 1167 l 324 1042 z "},"Ȁ":{"ha":988,"x_min":-1,"x_max":989,"o":"m -1 0 l 412 1000 l 576 1000 l 989 0 l 783 0 l 677 268 l 660 342 l 496 766 l 491 766 l 328 342 l 310 268 l 204 0 l -1 0 m 220 217 l 220 380 l 768 380 l 768 217 l 220 217 m 322 1064 l 151 1282 l 277 1352 l 417 1110 l 322 1064 m 578 1064 l 412 1282 l 538 1352 l 674 1110 l 578 1064 z "},"Ä":{"ha":988,"x_min":-1,"x_max":989,"o":"m -1 0 l 412 1000 l 576 1000 l 989 0 l 783 0 l 677 268 l 660 342 l 496 766 l 491 766 l 328 342 l 310 268 l 204 0 l -1 0 m 220 217 l 220 380 l 768 380 l 768 217 l 220 217 m 658 1056 q 579 1087 612 1056 q 547 1165 547 1119 q 579 1243 547 1211 q 658 1275 612 1275 q 734 1243 703 1275 q 765 1165 765 1211 q 734 1087 765 1119 q 658 1056 703 1056 m 335 1056 q 258 1087 290 1056 q 226 1165 226 1119 q 258 1243 226 1211 q 335 1275 290 1275 q 411 1243 380 1275 q 443 1165 443 1211 q 411 1087 443 1119 q 335 1056 380 1056 z "},"Ȧ":{"ha":988,"x_min":-1,"x_max":989,"o":"m -1 0 l 412 1000 l 576 1000 l 989 0 l 783 0 l 677 268 l 660 342 l 496 766 l 491 766 l 328 342 l 310 268 l 204 0 l -1 0 m 220 217 l 220 380 l 768 380 l 768 217 l 220 217 m 499 1062 q 415 1097 450 1062 q 380 1181 380 1132 q 415 1266 380 1232 q 499 1300 450 1300 q 584 1266 549 1300 q 618 1181 618 1232 q 584 1097 618 1132 q 499 1062 549 1062 z "},"Ạ":{"ha":988,"x_min":-1,"x_max":989,"o":"m -1 0 l 412 1000 l 576 1000 l 989 0 l 783 0 l 677 268 l 660 342 l 496 766 l 491 766 l 328 342 l 310 268 l 204 0 l -1 0 m 220 217 l 220 380 l 768 380 l 768 217 l 220 217 m 499 -318 q 415 -283 450 -318 q 380 -199 380 -248 q 415 -114 380 -149 q 499 -80 450 -80 q 584 -114 549 -80 q 618 -199 618 -149 q 584 -283 618 -248 q 499 -318 549 -318 z "},"À":{"ha":988,"x_min":-1,"x_max":989,"o":"m -1 0 l 412 1000 l 576 1000 l 989 0 l 783 0 l 677 268 l 660 342 l 496 766 l 491 766 l 328 342 l 310 268 l 204 0 l -1 0 m 220 217 l 220 380 l 768 380 l 768 217 l 220 217 m 494 1049 l 252 1218 l 342 1334 l 572 1130 l 494 1049 z "},"Ả":{"ha":988,"x_min":-1,"x_max":989,"o":"m -1 0 l 412 1000 l 576 1000 l 989 0 l 783 0 l 677 268 l 660 342 l 496 766 l 491 766 l 328 342 l 310 268 l 204 0 l -1 0 m 220 217 l 220 380 l 768 380 l 768 217 l 220 217 m 517 1059 l 448 1127 q 487 1159 471 1140 q 503 1198 503 1177 q 484 1229 503 1218 q 433 1239 465 1239 q 398 1236 417 1239 q 361 1227 378 1234 l 361 1337 q 405 1349 376 1345 q 456 1353 433 1353 q 574 1319 531 1353 q 618 1222 618 1286 q 587 1121 618 1165 q 517 1059 555 1078 z "},"Ȃ":{"ha":988,"x_min":-1,"x_max":989,"o":"m -1 0 l 412 1000 l 576 1000 l 989 0 l 783 0 l 677 268 l 660 342 l 496 766 l 491 766 l 328 342 l 310 268 l 204 0 l -1 0 m 220 217 l 220 380 l 768 380 l 768 217 l 220 217 m 494 1274 q 619 1248 562 1272 q 710 1178 676 1224 q 743 1064 745 1132 l 629 1064 q 589 1145 629 1120 q 494 1170 549 1170 q 401 1144 441 1170 q 359 1064 360 1118 l 245 1064 q 280 1178 245 1132 q 371 1248 314 1224 q 494 1274 427 1272 z "},"Ā":{"ha":988,"x_min":-1,"x_max":989,"o":"m -1 0 l 412 1000 l 576 1000 l 989 0 l 783 0 l 677 268 l 660 342 l 496 766 l 491 766 l 328 342 l 310 268 l 204 0 l -1 0 m 220 217 l 220 380 l 768 380 l 768 217 l 220 217 m 229 1101 l 229 1227 l 758 1227 l 758 1101 l 229 1101 z "},"Ą":{"ha":988,"x_min":-1,"x_max":996,"o":"m -1 0 l 412 1000 l 576 1000 l 989 0 l 783 0 l 677 268 l 660 342 l 496 766 l 491 766 l 328 342 l 310 268 l 204 0 l -1 0 m 220 217 l 220 380 l 768 380 l 768 217 l 220 217 m 888 -289 q 783 -253 823 -289 q 742 -157 742 -216 q 784 -56 742 -100 q 890 31 826 -12 l 989 0 q 926 -45 956 -23 q 878 -90 897 -67 q 860 -136 860 -112 q 876 -169 860 -157 q 921 -181 891 -181 q 963 -175 941 -181 q 996 -162 985 -170 l 996 -269 q 945 -283 977 -277 q 888 -289 913 -289 z "},"Å":{"ha":988,"x_min":-1,"x_max":989,"o":"m -1 0 l 412 1000 l 576 1000 l 989 0 l 783 0 l 677 268 l 660 342 l 496 766 l 491 766 l 328 342 l 310 268 l 204 0 l -1 0 m 220 217 l 220 380 l 768 380 l 768 217 l 220 217 m 494 1044 q 402 1068 443 1044 q 337 1131 361 1091 q 313 1220 313 1171 q 337 1312 313 1272 q 402 1375 361 1352 q 494 1398 443 1398 q 587 1375 546 1398 q 651 1312 628 1352 q 675 1220 675 1272 q 651 1131 675 1171 q 587 1068 628 1091 q 494 1044 546 1044 m 494 1148 q 546 1168 526 1148 q 566 1220 566 1189 q 546 1273 566 1252 q 494 1293 526 1293 q 442 1273 463 1293 q 421 1220 421 1252 q 442 1168 421 1189 q 494 1148 463 1148 z "},"Ǻ":{"ha":988,"x_min":-1,"x_max":989,"o":"m -1 0 l 412 1000 l 576 1000 l 989 0 l 783 0 l 677 268 l 660 342 l 496 766 l 491 766 l 328 342 l 310 268 l 204 0 l -1 0 m 220 217 l 220 380 l 768 380 l 768 217 l 220 217 m 490 1039 q 374 1084 420 1039 q 328 1193 328 1128 q 374 1304 328 1260 q 490 1348 420 1348 q 606 1304 559 1348 q 652 1193 652 1260 q 606 1084 652 1128 q 490 1039 559 1039 m 490 1125 q 538 1145 519 1125 q 557 1194 557 1166 q 538 1242 557 1223 q 490 1261 519 1261 q 443 1242 463 1261 q 422 1193 422 1223 q 443 1145 422 1166 q 490 1125 463 1125 m 513 1380 l 434 1461 l 665 1664 l 754 1549 l 513 1380 z "},"Ã":{"ha":988,"x_min":-1,"x_max":989,"o":"m -1 0 l 412 1000 l 576 1000 l 989 0 l 783 0 l 677 268 l 660 342 l 496 766 l 491 766 l 328 342 l 310 268 l 204 0 l -1 0 m 220 217 l 220 380 l 768 380 l 768 217 l 220 217 m 245 1070 q 285 1210 245 1155 q 397 1262 326 1265 q 461 1252 436 1263 q 504 1224 486 1240 q 538 1196 522 1208 q 574 1184 554 1184 q 615 1206 602 1184 q 629 1262 629 1229 l 743 1262 q 704 1126 745 1181 q 588 1070 663 1072 q 527 1083 551 1071 q 483 1112 502 1096 q 448 1139 465 1127 q 410 1150 431 1151 q 373 1130 385 1152 q 360 1070 360 1108 l 245 1070 z "},"Æ":{"ha":1240,"x_min":-4,"x_max":1174,"o":"m -4 0 l 486 1000 l 602 1000 l 612 827 l 584 827 l 353 329 l 199 0 l -4 0 m 258 217 l 258 380 l 728 380 l 728 217 l 258 217 m 642 0 l 624 315 l 585 1000 l 1174 1000 l 1174 825 l 764 825 l 810 174 l 1174 174 l 1174 0 l 642 0 m 777 422 l 765 591 l 1114 591 l 1114 422 l 777 422 z "},"Ǽ":{"ha":1240,"x_min":-4,"x_max":1174,"o":"m -4 0 l 486 1000 l 602 1000 l 612 827 l 584 827 l 353 329 l 199 0 l -4 0 m 258 217 l 258 380 l 728 380 l 728 217 l 258 217 m 642 0 l 624 315 l 585 1000 l 1174 1000 l 1174 825 l 764 825 l 810 174 l 1174 174 l 1174 0 l 642 0 m 777 422 l 765 591 l 1114 591 l 1114 422 l 777 422 m 764 1049 l 686 1130 l 916 1334 l 1006 1218 l 764 1049 z "},"B":{"ha":871,"x_min":98,"x_max":823,"o":"m 276 0 l 276 171 l 485 171 q 590 207 549 171 q 630 304 630 242 q 587 398 630 364 q 473 431 544 431 l 269 431 l 269 582 l 426 582 q 496 598 467 582 q 541 644 526 615 q 557 709 557 673 q 518 799 557 770 q 413 829 479 829 l 269 829 l 269 1000 l 411 1000 q 591 967 516 1000 q 706 877 666 934 q 746 746 746 819 q 723 637 746 688 q 661 549 699 587 q 575 496 622 512 l 579 543 q 702 499 647 530 q 790 415 758 468 q 823 288 823 363 q 780 137 823 202 q 663 36 738 73 q 490 0 589 0 l 276 0 m 98 0 l 98 1000 l 291 1000 l 291 0 l 98 0 z "},"C":{"ha":910,"x_min":39,"x_max":873,"o":"m 571 -11 q 366 27 462 -11 q 196 135 269 66 q 80 298 122 204 q 39 501 39 391 q 80 705 39 612 q 195 867 122 798 q 363 973 268 935 q 567 1010 459 1010 q 726 989 647 1010 q 871 924 805 968 l 798 751 q 698 811 759 789 q 570 833 637 833 q 444 810 504 833 q 336 742 383 786 q 260 637 288 698 q 233 503 233 576 q 259 369 233 430 q 333 262 286 307 q 442 191 380 216 q 574 166 504 166 q 657 175 615 166 q 737 203 700 184 q 800 248 774 221 l 873 76 q 729 11 809 33 q 571 -11 649 -11 z "},"Ć":{"ha":910,"x_min":39,"x_max":873,"o":"m 571 -11 q 366 27 462 -11 q 196 135 269 66 q 80 298 122 204 q 39 501 39 391 q 80 705 39 612 q 195 867 122 798 q 363 973 268 935 q 567 1010 459 1010 q 726 989 647 1010 q 871 924 805 968 l 798 751 q 698 811 759 789 q 570 833 637 833 q 444 810 504 833 q 336 742 383 786 q 260 637 288 698 q 233 503 233 576 q 259 369 233 430 q 333 262 286 307 q 442 191 380 216 q 574 166 504 166 q 657 175 615 166 q 737 203 700 184 q 800 248 774 221 l 873 76 q 729 11 809 33 q 571 -11 649 -11 m 551 1049 l 472 1130 l 703 1334 l 792 1218 l 551 1049 z "},"Č":{"ha":910,"x_min":39,"x_max":873,"o":"m 571 -11 q 366 27 462 -11 q 196 135 269 66 q 80 298 122 204 q 39 501 39 391 q 80 705 39 612 q 195 867 122 798 q 363 973 268 935 q 567 1010 459 1010 q 726 989 647 1010 q 871 924 805 968 l 798 751 q 698 811 759 789 q 570 833 637 833 q 444 810 504 833 q 336 742 383 786 q 260 637 288 698 q 233 503 233 576 q 259 369 233 430 q 333 262 286 307 q 442 191 380 216 q 574 166 504 166 q 657 175 615 166 q 737 203 700 184 q 800 248 774 221 l 873 76 q 729 11 809 33 q 571 -11 649 -11 m 381 1300 l 548 1173 l 552 1173 l 722 1300 l 805 1211 l 570 1047 l 531 1047 l 296 1211 l 381 1300 z "},"Ç":{"ha":910,"x_min":39,"x_max":873,"o":"m 571 -11 q 366 27 462 -11 q 196 135 269 66 q 80 298 122 204 q 39 501 39 391 q 80 705 39 612 q 195 867 122 798 q 363 973 268 935 q 567 1010 459 1010 q 726 989 647 1010 q 871 924 805 968 l 798 751 q 698 811 759 789 q 570 833 637 833 q 444 810 504 833 q 336 742 383 786 q 260 637 288 698 q 233 503 233 576 q 259 369 233 430 q 333 262 286 307 q 442 191 380 216 q 574 166 504 166 q 657 175 615 166 q 737 203 700 184 q 800 248 774 221 l 873 76 q 729 11 809 33 q 571 -11 649 -11 m 444 -338 l 444 -243 q 551 -230 517 -246 q 585 -186 585 -214 q 558 -150 585 -165 q 481 -132 532 -135 l 525 0 l 610 0 l 570 -111 l 560 -67 q 661 -109 623 -77 q 699 -196 699 -142 q 637 -300 699 -260 q 444 -338 575 -340 z "},"Ḉ":{"ha":910,"x_min":39,"x_max":873,"o":"m 571 -11 q 366 27 462 -11 q 196 135 269 66 q 80 298 122 204 q 39 501 39 391 q 80 705 39 612 q 195 867 122 798 q 363 973 268 935 q 567 1010 459 1010 q 726 989 647 1010 q 871 924 805 968 l 798 751 q 698 811 759 789 q 570 833 637 833 q 444 810 504 833 q 336 742 383 786 q 260 637 288 698 q 233 503 233 576 q 259 369 233 430 q 333 262 286 307 q 442 191 380 216 q 574 166 504 166 q 657 175 615 166 q 737 203 700 184 q 800 248 774 221 l 873 76 q 729 11 809 33 q 571 -11 649 -11 m 444 -338 l 444 -243 q 551 -230 517 -246 q 585 -186 585 -214 q 558 -150 585 -165 q 481 -132 532 -135 l 525 0 l 610 0 l 570 -111 l 560 -67 q 661 -109 623 -77 q 699 -196 699 -142 q 637 -300 699 -260 q 444 -338 575 -340 m 551 1049 l 472 1130 l 703 1334 l 792 1218 l 551 1049 z "},"Ĉ":{"ha":910,"x_min":39,"x_max":873,"o":"m 571 -11 q 366 27 462 -11 q 196 135 269 66 q 80 298 122 204 q 39 501 39 391 q 80 705 39 612 q 195 867 122 798 q 363 973 268 935 q 567 1010 459 1010 q 726 989 647 1010 q 871 924 805 968 l 798 751 q 698 811 759 789 q 570 833 637 833 q 444 810 504 833 q 336 742 383 786 q 260 637 288 698 q 233 503 233 576 q 259 369 233 430 q 333 262 286 307 q 442 191 380 216 q 574 166 504 166 q 657 175 615 166 q 737 203 700 184 q 800 248 774 221 l 873 76 q 729 11 809 33 q 571 -11 649 -11 m 382 1051 l 297 1140 l 532 1304 l 571 1304 l 806 1140 l 723 1051 l 553 1178 l 549 1178 l 382 1051 z "},"Ċ":{"ha":910,"x_min":39,"x_max":873,"o":"m 571 -11 q 366 27 462 -11 q 196 135 269 66 q 80 298 122 204 q 39 501 39 391 q 80 705 39 612 q 195 867 122 798 q 363 973 268 935 q 567 1010 459 1010 q 726 989 647 1010 q 871 924 805 968 l 798 751 q 698 811 759 789 q 570 833 637 833 q 444 810 504 833 q 336 742 383 786 q 260 637 288 698 q 233 503 233 576 q 259 369 233 430 q 333 262 286 307 q 442 191 380 216 q 574 166 504 166 q 657 175 615 166 q 737 203 700 184 q 800 248 774 221 l 873 76 q 729 11 809 33 q 571 -11 649 -11 m 556 1062 q 472 1097 507 1062 q 437 1181 437 1132 q 472 1266 437 1232 q 556 1300 507 1300 q 641 1266 606 1300 q 675 1181 675 1232 q 641 1097 675 1132 q 556 1062 606 1062 z "},"D":{"ha":968,"x_min":98,"x_max":930,"o":"m 98 0 l 98 1000 l 435 1000 q 622 968 533 1000 q 781 876 711 937 q 890 722 850 814 q 930 507 930 629 q 890 289 930 383 q 783 130 850 194 q 629 33 715 65 q 450 0 543 0 l 98 0 m 292 174 l 454 174 q 552 194 503 174 q 643 255 602 214 q 710 358 685 296 q 736 507 736 421 q 710 652 736 591 q 643 750 685 712 q 552 807 602 789 q 454 825 503 825 l 292 825 l 292 174 z "},"Ǆ":{"ha":1773,"x_min":98,"x_max":1723,"o":"m 98 0 l 98 1000 l 435 1000 q 622 968 533 1000 q 781 876 711 937 q 890 722 850 814 q 930 507 930 629 q 890 289 930 383 q 783 130 850 194 q 629 33 715 65 q 450 0 543 0 l 98 0 m 292 174 l 454 174 q 552 194 503 174 q 643 255 602 214 q 710 358 685 296 q 736 507 736 421 q 710 652 736 591 q 643 750 685 712 q 552 807 602 789 q 454 825 503 825 l 292 825 l 292 174 m 984 0 l 984 31 l 1427 825 l 1427 827 l 1008 827 l 1008 1000 l 1714 1000 l 1714 968 l 1272 175 l 1272 172 l 1723 172 l 1723 0 l 984 0 m 1188 1300 l 1355 1173 l 1358 1173 l 1529 1300 l 1611 1211 l 1377 1047 l 1338 1047 l 1103 1211 l 1188 1300 z "},"Ď":{"ha":968,"x_min":98,"x_max":930,"o":"m 98 0 l 98 1000 l 435 1000 q 622 968 533 1000 q 781 876 711 937 q 890 722 850 814 q 930 507 930 629 q 890 289 930 383 q 783 130 850 194 q 629 33 715 65 q 450 0 543 0 l 98 0 m 292 174 l 454 174 q 552 194 503 174 q 643 255 602 214 q 710 358 685 296 q 736 507 736 421 q 710 652 736 591 q 643 750 685 712 q 552 807 602 789 q 454 825 503 825 l 292 825 l 292 174 m 298 1300 l 465 1173 l 468 1173 l 638 1300 l 721 1211 l 486 1047 l 448 1047 l 212 1211 l 298 1300 z "},"Đ":{"ha":997,"x_min":24,"x_max":958,"o":"m 127 0 l 127 1000 l 463 1000 q 651 968 562 1000 q 809 876 740 937 q 918 722 878 814 q 958 507 958 629 q 919 289 958 383 q 811 130 879 194 q 657 33 743 65 q 478 0 571 0 l 127 0 m 321 174 l 483 174 q 581 194 532 174 q 672 255 630 214 q 739 358 713 296 q 764 507 764 421 q 739 652 764 591 q 672 750 713 712 q 581 807 630 789 q 483 825 532 825 l 321 825 l 321 174 m 24 450 l 24 564 l 456 564 l 456 450 l 24 450 z "},"Ḍ":{"ha":968,"x_min":98,"x_max":930,"o":"m 98 0 l 98 1000 l 435 1000 q 622 968 533 1000 q 781 876 711 937 q 890 722 850 814 q 930 507 930 629 q 890 289 930 383 q 783 130 850 194 q 629 33 715 65 q 450 0 543 0 l 98 0 m 292 174 l 454 174 q 552 194 503 174 q 643 255 602 214 q 710 358 685 296 q 736 507 736 421 q 710 652 736 591 q 643 750 685 712 q 552 807 602 789 q 454 825 503 825 l 292 825 l 292 174 m 465 -318 q 381 -283 416 -318 q 347 -199 347 -248 q 381 -114 347 -149 q 465 -80 416 -80 q 550 -114 515 -80 q 584 -199 584 -149 q 550 -283 584 -248 q 465 -318 515 -318 z "},"Ḏ":{"ha":968,"x_min":98,"x_max":930,"o":"m 98 0 l 98 1000 l 435 1000 q 622 968 533 1000 q 781 876 711 937 q 890 722 850 814 q 930 507 930 629 q 890 289 930 383 q 783 130 850 194 q 629 33 715 65 q 450 0 543 0 l 98 0 m 292 174 l 454 174 q 552 194 503 174 q 643 255 602 214 q 710 358 685 296 q 736 507 736 421 q 710 652 736 591 q 643 750 685 712 q 552 807 602 789 q 454 825 503 825 l 292 825 l 292 174 m 196 -281 l 196 -166 l 734 -166 l 734 -281 l 196 -281 z "},"ǅ":{"ha":1617,"x_min":98,"x_max":1578,"o":"m 98 0 l 98 1000 l 435 1000 q 622 968 533 1000 q 781 876 711 937 q 890 722 850 814 q 930 507 930 629 q 890 289 930 383 q 783 130 850 194 q 629 33 715 65 q 450 0 543 0 l 98 0 m 292 174 l 454 174 q 552 194 503 174 q 643 255 602 214 q 710 358 685 296 q 736 507 736 421 q 710 652 736 591 q 643 750 685 712 q 552 807 602 789 q 454 825 503 825 l 292 825 l 292 174 m 977 0 l 977 39 l 1301 559 l 1301 564 l 999 564 l 999 726 l 1577 726 l 1577 686 l 1253 168 l 1253 163 l 1578 163 l 1578 0 l 977 0 m 1114 1084 l 1290 925 l 1295 925 l 1472 1084 l 1546 996 l 1312 791 l 1273 791 l 1040 996 l 1114 1084 z "},"Ð":{"ha":997,"x_min":24,"x_max":958,"o":"m 127 0 l 127 1000 l 463 1000 q 651 968 562 1000 q 809 876 740 937 q 918 722 878 814 q 958 507 958 629 q 919 289 958 383 q 811 130 879 194 q 657 33 743 65 q 478 0 571 0 l 127 0 m 321 174 l 483 174 q 581 194 532 174 q 672 255 630 214 q 739 358 713 296 q 764 507 764 421 q 739 652 764 591 q 672 750 713 712 q 581 807 630 789 q 483 825 532 825 l 321 825 l 321 174 m 24 450 l 24 564 l 456 564 l 456 450 l 24 450 z "},"E":{"ha":739,"x_min":98,"x_max":673,"o":"m 98 0 l 98 1000 l 673 1000 l 673 825 l 292 825 l 292 591 l 609 591 l 609 422 l 292 422 l 292 174 l 673 174 l 673 0 l 98 0 z "},"É":{"ha":739,"x_min":98,"x_max":673,"o":"m 98 0 l 98 1000 l 673 1000 l 673 825 l 292 825 l 292 591 l 609 591 l 609 422 l 292 422 l 292 174 l 673 174 l 673 0 l 98 0 m 391 1049 l 313 1130 l 543 1334 l 633 1218 l 391 1049 z "},"Ĕ":{"ha":739,"x_min":98,"x_max":673,"o":"m 98 0 l 98 1000 l 673 1000 l 673 825 l 292 825 l 292 591 l 609 591 l 609 422 l 292 422 l 292 174 l 673 174 l 673 0 l 98 0 m 391 1061 q 268 1087 324 1063 q 177 1158 212 1112 q 143 1271 143 1204 l 256 1271 q 298 1191 257 1217 q 391 1165 338 1165 q 486 1191 446 1165 q 526 1271 527 1217 l 640 1271 q 607 1158 642 1204 q 516 1087 573 1112 q 391 1061 459 1063 z "},"Ě":{"ha":739,"x_min":98,"x_max":673,"o":"m 98 0 l 98 1000 l 673 1000 l 673 825 l 292 825 l 292 591 l 609 591 l 609 422 l 292 422 l 292 174 l 673 174 l 673 0 l 98 0 m 222 1300 l 389 1173 l 393 1173 l 562 1300 l 645 1211 l 410 1047 l 372 1047 l 136 1211 l 222 1300 z "},"Ḝ":{"ha":739,"x_min":98,"x_max":673,"o":"m 98 0 l 98 1000 l 673 1000 l 673 825 l 292 825 l 292 591 l 609 591 l 609 422 l 292 422 l 292 174 l 673 174 l 673 0 l 98 0 m 267 -338 l 267 -243 q 375 -230 340 -246 q 409 -186 409 -214 q 382 -150 409 -165 q 305 -132 355 -135 l 349 0 l 433 0 l 394 -111 l 384 -67 q 484 -109 446 -77 q 522 -196 522 -142 q 460 -300 522 -260 q 267 -338 399 -340 m 391 1061 q 268 1087 324 1063 q 177 1158 212 1112 q 143 1271 143 1204 l 256 1271 q 298 1191 257 1217 q 391 1165 338 1165 q 486 1191 446 1165 q 526 1271 527 1217 l 640 1271 q 607 1158 642 1204 q 516 1087 573 1112 q 391 1061 459 1063 z "},"Ê":{"ha":739,"x_min":98,"x_max":673,"o":"m 98 0 l 98 1000 l 673 1000 l 673 825 l 292 825 l 292 591 l 609 591 l 609 422 l 292 422 l 292 174 l 673 174 l 673 0 l 98 0 m 222 1051 l 138 1140 l 373 1304 l 412 1304 l 646 1140 l 564 1051 l 393 1178 l 389 1178 l 222 1051 z "},"Ế":{"ha":739,"x_min":98,"x_max":825,"o":"m 98 0 l 98 1000 l 673 1000 l 673 825 l 292 825 l 292 591 l 609 591 l 609 422 l 292 422 l 292 174 l 673 174 l 673 0 l 98 0 m 602 1226 l 518 1286 l 734 1503 l 825 1385 l 602 1226 m 221 1042 l 136 1128 l 372 1292 l 410 1292 l 645 1128 l 562 1042 l 392 1167 l 388 1167 l 221 1042 z "},"Ệ":{"ha":739,"x_min":98,"x_max":673,"o":"m 98 0 l 98 1000 l 673 1000 l 673 825 l 292 825 l 292 591 l 609 591 l 609 422 l 292 422 l 292 174 l 673 174 l 673 0 l 98 0 m 401 -318 q 317 -283 352 -318 q 283 -199 283 -248 q 317 -114 283 -149 q 401 -80 352 -80 q 486 -114 452 -80 q 520 -199 520 -149 q 486 -283 520 -248 q 401 -318 452 -318 m 228 1051 l 143 1140 l 378 1304 l 417 1304 l 652 1140 l 569 1051 l 399 1178 l 395 1178 l 228 1051 z "},"Ề":{"ha":739,"x_min":-43,"x_max":673,"o":"m 98 0 l 98 1000 l 673 1000 l 673 825 l 292 825 l 292 591 l 609 591 l 609 422 l 292 422 l 292 174 l 673 174 l 673 0 l 98 0 m 180 1226 l -43 1385 l 48 1503 l 264 1286 l 180 1226 m 561 1041 l 394 1167 l 390 1167 l 220 1041 l 138 1128 l 372 1292 l 411 1292 l 646 1128 l 561 1041 z "},"Ể":{"ha":739,"x_min":98,"x_max":688,"o":"m 98 0 l 98 1000 l 673 1000 l 673 825 l 292 825 l 292 591 l 609 591 l 609 422 l 292 422 l 292 174 l 673 174 l 673 0 l 98 0 m 593 1227 l 523 1278 q 559 1311 545 1294 q 573 1346 573 1329 q 556 1380 573 1368 q 504 1392 539 1392 q 469 1389 486 1392 q 431 1379 451 1385 l 431 1491 q 476 1501 446 1498 q 530 1505 505 1505 q 644 1473 601 1505 q 688 1373 688 1441 q 672 1310 688 1339 q 635 1260 656 1282 q 593 1227 613 1239 m 222 1042 l 138 1128 l 373 1292 l 412 1292 l 646 1128 l 564 1042 l 393 1167 l 389 1167 l 222 1042 z "},"Ễ":{"ha":739,"x_min":98,"x_max":673,"o":"m 98 0 l 98 1000 l 673 1000 l 673 825 l 292 825 l 292 591 l 609 591 l 609 422 l 292 422 l 292 174 l 673 174 l 673 0 l 98 0 m 142 1314 q 182 1453 141 1400 q 296 1506 224 1506 q 358 1495 334 1506 q 401 1468 383 1483 q 436 1440 419 1452 q 473 1429 452 1429 q 512 1450 498 1429 q 525 1506 525 1470 l 642 1506 q 627 1409 642 1452 q 580 1339 612 1365 q 499 1314 548 1314 q 438 1325 463 1314 q 395 1353 413 1337 q 360 1381 376 1369 q 323 1393 343 1393 q 277 1373 296 1393 q 257 1314 258 1354 l 142 1314 m 222 1042 l 137 1128 l 372 1292 l 411 1292 l 646 1128 l 563 1042 l 393 1167 l 389 1167 l 222 1042 z "},"Ȅ":{"ha":739,"x_min":49,"x_max":673,"o":"m 98 0 l 98 1000 l 673 1000 l 673 825 l 292 825 l 292 591 l 609 591 l 609 422 l 292 422 l 292 174 l 673 174 l 673 0 l 98 0 m 220 1064 l 49 1282 l 174 1352 l 315 1110 l 220 1064 m 475 1064 l 309 1282 l 435 1352 l 572 1110 l 475 1064 z "},"Ë":{"ha":739,"x_min":98,"x_max":673,"o":"m 98 0 l 98 1000 l 673 1000 l 673 825 l 292 825 l 292 591 l 609 591 l 609 422 l 292 422 l 292 174 l 673 174 l 673 0 l 98 0 m 555 1056 q 477 1087 509 1056 q 445 1165 445 1119 q 477 1243 445 1211 q 555 1275 509 1275 q 631 1243 600 1275 q 663 1165 663 1211 q 631 1087 663 1119 q 555 1056 600 1056 m 233 1056 q 155 1087 187 1056 q 123 1165 123 1119 q 155 1243 123 1211 q 233 1275 187 1275 q 309 1243 277 1275 q 340 1165 340 1211 q 309 1087 340 1119 q 233 1056 277 1056 z "},"Ė":{"ha":739,"x_min":98,"x_max":673,"o":"m 98 0 l 98 1000 l 673 1000 l 673 825 l 292 825 l 292 591 l 609 591 l 609 422 l 292 422 l 292 174 l 673 174 l 673 0 l 98 0 m 397 1062 q 313 1097 347 1062 q 278 1181 278 1132 q 313 1266 278 1232 q 397 1300 347 1300 q 481 1266 447 1300 q 515 1181 515 1232 q 481 1097 515 1132 q 397 1062 447 1062 z "},"Ẹ":{"ha":739,"x_min":98,"x_max":673,"o":"m 98 0 l 98 1000 l 673 1000 l 673 825 l 292 825 l 292 591 l 609 591 l 609 422 l 292 422 l 292 174 l 673 174 l 673 0 l 98 0 m 396 -318 q 312 -283 347 -318 q 277 -199 277 -248 q 312 -114 277 -149 q 396 -80 347 -80 q 480 -114 446 -80 q 515 -199 515 -149 q 480 -283 515 -248 q 396 -318 446 -318 z "},"È":{"ha":739,"x_min":98,"x_max":673,"o":"m 98 0 l 98 1000 l 673 1000 l 673 825 l 292 825 l 292 591 l 609 591 l 609 422 l 292 422 l 292 174 l 673 174 l 673 0 l 98 0 m 391 1049 l 150 1218 l 239 1334 l 470 1130 l 391 1049 z "},"Ẻ":{"ha":739,"x_min":98,"x_max":673,"o":"m 98 0 l 98 1000 l 673 1000 l 673 825 l 292 825 l 292 591 l 609 591 l 609 422 l 292 422 l 292 174 l 673 174 l 673 0 l 98 0 m 414 1059 l 346 1127 q 385 1159 368 1140 q 401 1198 401 1177 q 382 1229 401 1218 q 330 1239 363 1239 q 295 1236 315 1239 q 259 1227 276 1234 l 259 1337 q 302 1349 274 1345 q 354 1353 331 1353 q 472 1319 429 1353 q 515 1222 515 1286 q 484 1121 515 1165 q 414 1059 453 1078 z "},"Ȇ":{"ha":739,"x_min":98,"x_max":673,"o":"m 98 0 l 98 1000 l 673 1000 l 673 825 l 292 825 l 292 591 l 609 591 l 609 422 l 292 422 l 292 174 l 673 174 l 673 0 l 98 0 m 391 1274 q 516 1248 459 1272 q 608 1178 573 1224 q 641 1064 642 1132 l 526 1064 q 486 1145 527 1120 q 391 1170 446 1170 q 298 1144 338 1170 q 256 1064 257 1118 l 143 1064 q 177 1178 143 1132 q 268 1248 212 1224 q 391 1274 324 1272 z "},"Ē":{"ha":739,"x_min":98,"x_max":673,"o":"m 98 0 l 98 1000 l 673 1000 l 673 825 l 292 825 l 292 591 l 609 591 l 609 422 l 292 422 l 292 174 l 673 174 l 673 0 l 98 0 m 127 1101 l 127 1227 l 655 1227 l 655 1101 l 127 1101 z "},"Ḗ":{"ha":739,"x_min":98,"x_max":673,"o":"m 98 0 l 98 1000 l 673 1000 l 673 825 l 292 825 l 292 591 l 609 591 l 609 422 l 292 422 l 292 174 l 673 174 l 673 0 l 98 0 m 127 1101 l 127 1227 l 655 1227 l 655 1101 l 127 1101 m 391 1277 l 313 1358 l 543 1562 l 633 1446 l 391 1277 z "},"Ḕ":{"ha":739,"x_min":98,"x_max":673,"o":"m 98 0 l 98 1000 l 673 1000 l 673 825 l 292 825 l 292 591 l 609 591 l 609 422 l 292 422 l 292 174 l 673 174 l 673 0 l 98 0 m 127 1101 l 127 1227 l 655 1227 l 655 1101 l 127 1101 m 391 1277 l 150 1446 l 239 1562 l 470 1358 l 391 1277 z "},"Ę":{"ha":739,"x_min":98,"x_max":680,"o":"m 98 0 l 98 1000 l 673 1000 l 673 825 l 292 825 l 292 591 l 609 591 l 609 422 l 292 422 l 292 174 l 673 174 l 673 0 l 98 0 m 572 -289 q 467 -253 507 -289 q 426 -157 426 -216 q 468 -56 426 -100 q 574 31 510 -12 l 673 0 q 610 -45 640 -23 q 562 -90 581 -67 q 544 -136 544 -112 q 559 -169 544 -157 q 605 -181 575 -181 q 647 -175 625 -181 q 680 -162 669 -170 l 680 -269 q 629 -283 661 -277 q 572 -289 597 -289 z "},"Ẽ":{"ha":739,"x_min":98,"x_max":673,"o":"m 98 0 l 98 1000 l 673 1000 l 673 825 l 292 825 l 292 591 l 609 591 l 609 422 l 292 422 l 292 174 l 673 174 l 673 0 l 98 0 m 142 1070 q 182 1210 142 1155 q 294 1262 222 1265 q 358 1252 333 1263 q 401 1224 383 1240 q 435 1196 419 1208 q 471 1184 451 1184 q 512 1206 498 1184 q 526 1262 526 1229 l 640 1262 q 601 1126 642 1181 q 485 1070 560 1072 q 424 1083 448 1071 q 380 1112 399 1096 q 345 1139 361 1127 q 307 1150 328 1151 q 270 1130 282 1152 q 257 1070 257 1108 l 142 1070 z "},"Ə":{"ha":1048,"x_min":52,"x_max":1009,"o":"m 500 -11 q 262 47 363 -11 q 106 208 161 105 q 52 443 52 310 l 52 568 l 841 568 l 841 404 l 238 404 q 271 282 238 336 q 361 195 303 227 q 497 163 419 163 q 624 188 566 163 q 724 259 682 213 q 788 366 766 304 q 811 502 811 428 q 787 637 811 576 q 720 743 764 699 q 617 810 677 787 q 486 834 557 834 q 352 810 413 834 q 252 749 290 787 l 178 924 q 323 988 244 966 q 486 1010 401 1010 q 696 972 601 1010 q 862 864 792 933 q 971 701 932 794 q 1009 497 1009 607 q 971 293 1009 386 q 864 132 933 200 q 703 26 795 64 q 500 -11 610 -11 z "},"F":{"ha":703,"x_min":98,"x_max":668,"o":"m 98 0 l 98 1000 l 668 1000 l 668 825 l 292 825 l 292 566 l 608 566 l 608 391 l 292 391 l 292 0 l 98 0 z "},"G":{"ha":1045,"x_min":39,"x_max":996,"o":"m 549 -11 q 346 27 439 -11 q 184 133 253 64 q 77 294 115 201 q 39 496 39 387 q 77 700 39 606 q 184 863 115 793 q 350 971 254 932 q 561 1010 446 1010 q 726 988 646 1010 q 871 924 805 966 l 796 749 q 697 810 759 787 q 561 833 636 833 q 393 792 467 833 q 276 677 319 751 q 233 502 233 602 q 257 365 233 427 q 324 258 281 303 q 425 188 368 213 q 551 163 483 163 q 687 195 629 163 q 779 281 746 227 q 811 404 811 336 l 520 404 l 520 568 l 996 568 l 996 427 q 941 202 996 301 q 786 46 886 103 q 549 -11 685 -11 z "},"Ğ":{"ha":1045,"x_min":39,"x_max":996,"o":"m 549 -11 q 346 27 439 -11 q 184 133 253 64 q 77 294 115 201 q 39 496 39 387 q 77 700 39 606 q 184 863 115 793 q 350 971 254 932 q 561 1010 446 1010 q 726 988 646 1010 q 871 924 805 966 l 796 749 q 697 810 759 787 q 561 833 636 833 q 393 792 467 833 q 276 677 319 751 q 233 502 233 602 q 257 365 233 427 q 324 258 281 303 q 425 188 368 213 q 551 163 483 163 q 687 195 629 163 q 779 281 746 227 q 811 404 811 336 l 520 404 l 520 568 l 996 568 l 996 427 q 941 202 996 301 q 786 46 886 103 q 549 -11 685 -11 m 534 1061 q 410 1087 467 1063 q 320 1158 354 1112 q 286 1271 286 1204 l 399 1271 q 440 1191 399 1217 q 534 1165 481 1165 q 629 1191 588 1165 q 668 1271 669 1217 l 783 1271 q 750 1158 784 1204 q 659 1087 715 1112 q 534 1061 602 1063 z "},"Ǧ":{"ha":1045,"x_min":39,"x_max":996,"o":"m 549 -11 q 346 27 439 -11 q 184 133 253 64 q 77 294 115 201 q 39 496 39 387 q 77 700 39 606 q 184 863 115 793 q 350 971 254 932 q 561 1010 446 1010 q 726 988 646 1010 q 871 924 805 966 l 796 749 q 697 810 759 787 q 561 833 636 833 q 393 792 467 833 q 276 677 319 751 q 233 502 233 602 q 257 365 233 427 q 324 258 281 303 q 425 188 368 213 q 551 163 483 163 q 687 195 629 163 q 779 281 746 227 q 811 404 811 336 l 520 404 l 520 568 l 996 568 l 996 427 q 941 202 996 301 q 786 46 886 103 q 549 -11 685 -11 m 364 1300 l 531 1173 l 534 1173 l 705 1300 l 787 1211 l 553 1047 l 514 1047 l 279 1211 l 364 1300 z "},"Ĝ":{"ha":1045,"x_min":39,"x_max":996,"o":"m 549 -11 q 346 27 439 -11 q 184 133 253 64 q 77 294 115 201 q 39 496 39 387 q 77 700 39 606 q 184 863 115 793 q 350 971 254 932 q 561 1010 446 1010 q 726 988 646 1010 q 871 924 805 966 l 796 749 q 697 810 759 787 q 561 833 636 833 q 393 792 467 833 q 276 677 319 751 q 233 502 233 602 q 257 365 233 427 q 324 258 281 303 q 425 188 368 213 q 551 163 483 163 q 687 195 629 163 q 779 281 746 227 q 811 404 811 336 l 520 404 l 520 568 l 996 568 l 996 427 q 941 202 996 301 q 786 46 886 103 q 549 -11 685 -11 m 365 1051 l 280 1140 l 515 1304 l 554 1304 l 789 1140 l 706 1051 l 536 1178 l 532 1178 l 365 1051 z "},"Ģ":{"ha":1045,"x_min":39,"x_max":996,"o":"m 549 -11 q 346 27 439 -11 q 184 133 253 64 q 77 294 115 201 q 39 496 39 387 q 77 700 39 606 q 184 863 115 793 q 350 971 254 932 q 561 1010 446 1010 q 726 988 646 1010 q 871 924 805 966 l 796 749 q 697 810 759 787 q 561 833 636 833 q 393 792 467 833 q 276 677 319 751 q 233 502 233 602 q 257 365 233 427 q 324 258 281 303 q 425 188 368 213 q 551 163 483 163 q 687 195 629 163 q 779 281 746 227 q 811 404 811 336 l 520 404 l 520 568 l 996 568 l 996 427 q 941 202 996 301 q 786 46 886 103 q 549 -11 685 -11 m 471 -409 l 431 -360 l 494 -309 q 520 -284 506 -299 q 544 -252 534 -269 q 553 -220 554 -235 l 578 -220 q 566 -249 577 -236 q 529 -262 554 -262 q 471 -238 498 -262 q 442 -175 443 -214 q 469 -113 443 -136 q 529 -90 496 -89 q 594 -114 568 -89 q 620 -188 620 -139 q 605 -259 620 -227 q 571 -313 591 -290 q 538 -349 552 -336 l 471 -409 z "},"Ġ":{"ha":1045,"x_min":39,"x_max":996,"o":"m 549 -11 q 346 27 439 -11 q 184 133 253 64 q 77 294 115 201 q 39 496 39 387 q 77 700 39 606 q 184 863 115 793 q 350 971 254 932 q 561 1010 446 1010 q 726 988 646 1010 q 871 924 805 966 l 796 749 q 697 810 759 787 q 561 833 636 833 q 393 792 467 833 q 276 677 319 751 q 233 502 233 602 q 257 365 233 427 q 324 258 281 303 q 425 188 368 213 q 551 163 483 163 q 687 195 629 163 q 779 281 746 227 q 811 404 811 336 l 520 404 l 520 568 l 996 568 l 996 427 q 941 202 996 301 q 786 46 886 103 q 549 -11 685 -11 m 539 1062 q 455 1097 490 1062 q 420 1181 420 1132 q 455 1266 420 1232 q 539 1300 490 1300 q 624 1266 589 1300 q 658 1181 658 1232 q 624 1097 658 1132 q 539 1062 589 1062 z "},"Ḡ":{"ha":1045,"x_min":39,"x_max":996,"o":"m 549 -11 q 346 27 439 -11 q 184 133 253 64 q 77 294 115 201 q 39 496 39 387 q 77 700 39 606 q 184 863 115 793 q 350 971 254 932 q 561 1010 446 1010 q 726 988 646 1010 q 871 924 805 966 l 796 749 q 697 810 759 787 q 561 833 636 833 q 393 792 467 833 q 276 677 319 751 q 233 502 233 602 q 257 365 233 427 q 324 258 281 303 q 425 188 368 213 q 551 163 483 163 q 687 195 629 163 q 779 281 746 227 q 811 404 811 336 l 520 404 l 520 568 l 996 568 l 996 427 q 941 202 996 301 q 786 46 886 103 q 549 -11 685 -11 m 269 1101 l 269 1227 l 798 1227 l 798 1101 l 269 1101 z "},"H":{"ha":1017,"x_min":98,"x_max":919,"o":"m 98 0 l 98 1000 l 292 1000 l 292 594 l 725 594 l 725 1000 l 919 1000 l 919 0 l 725 0 l 725 420 l 292 420 l 292 0 l 98 0 z "},"Ħ":{"ha":1110,"x_min":24,"x_max":1084,"o":"m 24 729 l 24 839 l 1084 839 l 1084 729 l 24 729 m 146 0 l 146 1000 l 340 1000 l 340 594 l 773 594 l 773 1000 l 967 1000 l 967 0 l 773 0 l 773 420 l 340 420 l 340 0 l 146 0 z "},"Ḫ":{"ha":1017,"x_min":98,"x_max":919,"o":"m 98 0 l 98 1000 l 292 1000 l 292 594 l 725 594 l 725 1000 l 919 1000 l 919 0 l 725 0 l 725 420 l 292 420 l 292 0 l 98 0 m 511 -306 q 383 -276 439 -306 q 293 -195 326 -245 q 260 -80 260 -144 l 376 -80 q 416 -166 377 -131 q 511 -201 454 -201 q 605 -166 567 -201 q 643 -80 643 -131 l 760 -80 q 727 -194 760 -143 q 638 -276 694 -245 q 511 -306 581 -306 z "},"Ĥ":{"ha":1017,"x_min":98,"x_max":919,"o":"m 98 0 l 98 1000 l 292 1000 l 292 594 l 725 594 l 725 1000 l 919 1000 l 919 0 l 725 0 l 725 420 l 292 420 l 292 0 l 98 0 m 342 1051 l 257 1140 l 492 1304 l 531 1304 l 766 1140 l 683 1051 l 513 1178 l 509 1178 l 342 1051 z "},"Ḥ":{"ha":1017,"x_min":98,"x_max":919,"o":"m 98 0 l 98 1000 l 292 1000 l 292 594 l 725 594 l 725 1000 l 919 1000 l 919 0 l 725 0 l 725 420 l 292 420 l 292 0 l 98 0 m 510 -318 q 426 -283 460 -318 q 391 -199 391 -248 q 426 -114 391 -149 q 510 -80 460 -80 q 594 -114 560 -80 q 629 -199 629 -149 q 594 -283 629 -248 q 510 -318 560 -318 z "},"I":{"ha":419,"x_min":112,"x_max":307,"o":"m 112 0 l 112 1000 l 307 1000 l 307 0 l 112 0 z "},"Í":{"ha":419,"x_min":112,"x_max":451,"o":"m 112 0 l 112 1000 l 307 1000 l 307 0 l 112 0 m 210 1049 l 131 1130 l 361 1334 l 451 1218 l 210 1049 z "},"Ĭ":{"ha":441,"x_min":-28,"x_max":471,"o":"m 123 0 l 123 1000 l 317 1000 l 317 0 l 123 0 m 220 1061 q 97 1087 153 1063 q 6 1158 41 1112 q -28 1271 -28 1204 l 85 1271 q 127 1191 86 1217 q 220 1165 168 1165 q 315 1191 275 1165 q 355 1271 356 1217 l 469 1271 q 436 1158 471 1204 q 345 1087 402 1112 q 220 1061 288 1063 z "},"Ǐ":{"ha":441,"x_min":-35,"x_max":474,"o":"m 123 0 l 123 1000 l 317 1000 l 317 0 l 123 0 m 51 1300 l 218 1173 l 221 1173 l 391 1300 l 474 1211 l 239 1047 l 201 1047 l -35 1211 l 51 1300 z "},"Î":{"ha":441,"x_min":-33,"x_max":475,"o":"m 123 0 l 123 1000 l 317 1000 l 317 0 l 123 0 m 52 1051 l -33 1140 l 202 1304 l 241 1304 l 475 1140 l 393 1051 l 222 1178 l 218 1178 l 52 1051 z "},"Ȉ":{"ha":441,"x_min":-123,"x_max":401,"o":"m 123 0 l 123 1000 l 317 1000 l 317 0 l 123 0 m 48 1064 l -123 1282 l 3 1352 l 143 1110 l 48 1064 m 304 1064 l 138 1282 l 264 1352 l 400 1110 l 304 1064 z "},"Ï":{"ha":488,"x_min":-24,"x_max":515,"o":"m 147 0 l 147 1000 l 342 1000 l 342 0 l 147 0 m 408 1056 q 330 1087 362 1056 q 298 1165 298 1119 q 330 1243 298 1211 q 408 1275 362 1275 q 484 1243 453 1275 q 515 1165 515 1211 q 484 1087 515 1119 q 408 1056 453 1056 m 85 1056 q 8 1087 40 1056 q -24 1165 -24 1119 q 8 1243 -24 1211 q 85 1275 40 1275 q 162 1243 130 1275 q 193 1165 193 1211 q 162 1087 193 1119 q 85 1056 130 1056 z "},"Ḯ":{"ha":488,"x_min":-24,"x_max":515,"o":"m 147 0 l 147 1000 l 342 1000 l 342 0 l 147 0 m 408 1056 q 330 1087 362 1056 q 298 1165 298 1119 q 330 1243 298 1211 q 408 1275 362 1275 q 484 1243 453 1275 q 515 1165 515 1211 q 484 1087 515 1119 q 408 1056 453 1056 m 85 1056 q 8 1087 40 1056 q -24 1165 -24 1119 q 8 1243 -24 1211 q 85 1275 40 1275 q 162 1243 130 1275 q 193 1165 193 1211 q 162 1087 193 1119 q 85 1056 130 1056 m 245 1277 l 166 1358 l 397 1562 l 486 1446 l 245 1277 z "},"İ":{"ha":419,"x_min":96,"x_max":334,"o":"m 112 0 l 112 1000 l 307 1000 l 307 0 l 112 0 m 215 1062 q 131 1097 165 1062 q 96 1181 96 1132 q 131 1266 96 1232 q 215 1300 165 1300 q 299 1266 265 1300 q 334 1181 334 1232 q 299 1097 334 1132 q 215 1062 265 1062 z "},"Ị":{"ha":419,"x_min":90,"x_max":328,"o":"m 112 0 l 112 1000 l 307 1000 l 307 0 l 112 0 m 209 -318 q 125 -283 159 -318 q 90 -199 90 -248 q 125 -114 90 -149 q 209 -80 159 -80 q 293 -114 259 -80 q 328 -199 328 -149 q 293 -283 328 -248 q 209 -318 259 -318 z "},"Ì":{"ha":419,"x_min":-32,"x_max":307,"o":"m 112 0 l 112 1000 l 307 1000 l 307 0 l 112 0 m 210 1049 l -32 1218 l 58 1334 l 288 1130 l 210 1049 z "},"Ỉ":{"ha":419,"x_min":77,"x_max":334,"o":"m 112 0 l 112 1000 l 307 1000 l 307 0 l 112 0 m 233 1059 l 164 1127 q 203 1159 186 1140 q 219 1198 219 1177 q 200 1229 219 1218 q 149 1239 181 1239 q 114 1236 133 1239 q 77 1227 94 1234 l 77 1337 q 121 1349 92 1345 q 172 1353 149 1353 q 290 1319 247 1353 q 334 1222 334 1286 q 302 1121 334 1165 q 233 1059 271 1078 z "},"Ȋ":{"ha":488,"x_min":-3,"x_max":495,"o":"m 147 0 l 147 1000 l 342 1000 l 342 0 l 147 0 m 245 1274 q 369 1248 312 1272 q 461 1178 427 1224 q 494 1064 495 1132 l 379 1064 q 340 1145 380 1120 q 245 1170 299 1170 q 151 1144 192 1170 q 110 1064 111 1118 l -3 1064 q 31 1178 -3 1132 q 121 1248 65 1224 q 245 1274 178 1272 z "},"Ī":{"ha":488,"x_min":7,"x_max":480,"o":"m 147 0 l 147 1000 l 342 1000 l 342 0 l 147 0 m 7 1101 l 7 1227 l 480 1227 l 480 1101 l 7 1101 z "},"Į":{"ha":419,"x_min":59,"x_max":313,"o":"m 112 0 l 112 1000 l 307 1000 l 307 0 l 112 0 m 205 -289 q 100 -253 140 -289 q 59 -157 59 -216 q 101 -56 59 -100 q 208 31 143 -12 l 306 0 q 243 -45 273 -23 q 195 -90 214 -67 q 177 -136 177 -112 q 193 -169 177 -157 q 238 -181 208 -181 q 280 -175 258 -181 q 313 -162 302 -170 l 313 -269 q 262 -283 294 -277 q 205 -289 230 -289 z "},"Ĩ":{"ha":499,"x_min":1,"x_max":500,"o":"m 153 0 l 153 1000 l 347 1000 l 347 0 l 153 0 m 1 1070 q 41 1210 1 1155 q 153 1262 81 1265 q 217 1252 192 1263 q 260 1224 242 1240 q 294 1196 278 1208 q 330 1184 310 1184 q 371 1206 357 1184 q 385 1262 385 1229 l 499 1262 q 460 1126 500 1181 q 344 1070 419 1072 q 282 1083 307 1071 q 239 1112 258 1096 q 203 1139 220 1127 q 166 1150 186 1151 q 129 1130 141 1152 q 116 1070 116 1108 l 1 1070 z "},"J":{"ha":721,"x_min":12,"x_max":623,"o":"m 316 -11 q 156 29 223 -11 q 51 141 88 69 q 12 310 14 213 l 197 310 q 229 203 198 243 q 311 163 260 163 q 371 180 345 163 q 413 228 397 196 q 428 307 428 260 l 428 1000 l 623 1000 l 623 310 q 584 136 623 208 q 476 27 545 64 q 316 -11 407 -11 z "},"Ĵ":{"ha":732,"x_min":12,"x_max":774,"o":"m 316 -11 q 156 29 223 -11 q 51 141 88 69 q 12 310 14 213 l 197 310 q 229 203 198 243 q 311 163 260 163 q 371 180 345 163 q 413 228 397 196 q 428 307 428 260 l 428 1000 l 623 1000 l 623 310 q 584 136 623 208 q 476 27 545 64 q 316 -11 407 -11 m 351 1051 l 267 1140 l 502 1304 l 541 1304 l 775 1140 l 692 1051 l 522 1178 l 518 1178 l 351 1051 z "},"K":{"ha":918,"x_min":98,"x_max":910,"o":"m 98 0 l 98 1000 l 292 1000 l 292 550 l 342 550 l 273 519 l 652 1000 l 891 1000 l 446 452 l 446 555 l 910 0 l 671 0 l 273 476 l 342 446 l 292 446 l 292 0 l 98 0 z "},"Ķ":{"ha":918,"x_min":98,"x_max":910,"o":"m 98 0 l 98 1000 l 292 1000 l 292 550 l 342 550 l 273 519 l 652 1000 l 891 1000 l 446 452 l 446 555 l 910 0 l 671 0 l 273 476 l 342 446 l 292 446 l 292 0 l 98 0 m 406 -409 l 366 -360 l 429 -309 q 455 -284 441 -299 q 479 -252 469 -269 q 488 -220 489 -235 l 513 -220 q 500 -249 512 -236 q 464 -262 489 -262 q 406 -238 433 -262 q 377 -175 378 -214 q 404 -113 378 -136 q 464 -90 431 -89 q 529 -114 503 -89 q 555 -188 555 -139 q 540 -259 555 -227 q 506 -313 526 -290 q 473 -349 487 -336 l 406 -409 z "},"L":{"ha":684,"x_min":98,"x_max":670,"o":"m 98 0 l 98 1000 l 292 1000 l 292 174 l 670 174 l 670 0 l 98 0 z "},"Ǉ":{"ha":1405,"x_min":98,"x_max":1307,"o":"m 98 0 l 98 1000 l 292 1000 l 292 174 l 670 174 l 670 0 l 98 0 m 1000 -11 q 840 29 907 -11 q 735 141 772 69 q 696 310 698 213 l 882 310 q 913 203 882 243 q 996 163 944 163 q 1056 180 1029 163 q 1097 228 1082 196 q 1112 307 1112 260 l 1112 1000 l 1307 1000 l 1307 310 q 1268 136 1307 208 q 1160 27 1229 64 q 1000 -11 1091 -11 z "},"Ĺ":{"ha":684,"x_min":98,"x_max":670,"o":"m 98 0 l 98 1000 l 292 1000 l 292 174 l 670 174 l 670 0 l 98 0 m 199 1049 l 121 1130 l 351 1334 l 441 1218 l 199 1049 z "},"Ľ":{"ha":684,"x_min":98,"x_max":694,"o":"m 98 0 l 98 1000 l 292 1000 l 292 174 l 670 174 l 670 0 l 98 0 m 539 665 l 543 1000 l 694 1000 l 672 665 l 539 665 z "},"Ļ":{"ha":684,"x_min":98,"x_max":670,"o":"m 98 0 l 98 1000 l 292 1000 l 292 174 l 670 174 l 670 0 l 98 0 m 326 -409 l 286 -360 l 349 -309 q 374 -284 360 -299 q 398 -252 388 -269 q 408 -220 408 -235 l 433 -220 q 420 -249 431 -236 q 383 -262 408 -262 q 325 -238 353 -262 q 296 -175 297 -214 q 323 -113 297 -136 q 383 -90 350 -89 q 448 -114 422 -89 q 474 -188 474 -139 q 459 -259 474 -227 q 426 -313 445 -290 q 392 -349 406 -336 l 326 -409 z "},"Ŀ":{"ha":770,"x_min":98,"x_max":705,"o":"m 98 0 l 98 1000 l 292 1000 l 292 174 l 670 174 l 670 0 l 98 0 m 589 389 q 506 422 540 389 q 472 505 472 456 q 506 588 472 554 q 588 622 540 622 q 671 588 637 622 q 705 505 705 554 q 671 422 705 456 q 589 389 637 389 z "},"Ḷ":{"ha":684,"x_min":98,"x_max":670,"o":"m 98 0 l 98 1000 l 292 1000 l 292 174 l 670 174 l 670 0 l 98 0 m 392 -318 q 308 -283 342 -318 q 273 -199 273 -248 q 308 -114 273 -149 q 392 -80 342 -80 q 476 -114 442 -80 q 511 -199 511 -149 q 476 -283 511 -248 q 392 -318 442 -318 z "},"ǈ":{"ha":1059,"x_min":98,"x_max":1004,"o":"m 98 0 l 98 1000 l 292 1000 l 292 174 l 670 174 l 670 0 l 98 0 m 730 -299 q 685 -296 709 -299 q 640 -289 662 -294 l 640 -119 q 673 -128 656 -125 q 705 -130 691 -130 q 771 -107 751 -130 q 792 -45 792 -84 l 792 726 l 979 726 l 979 -41 q 952 -173 979 -115 q 871 -265 926 -231 q 730 -299 816 -299 m 884 819 q 800 853 835 819 q 766 938 766 888 q 800 1022 766 988 q 884 1057 835 1057 q 969 1022 935 1057 q 1003 938 1003 988 q 969 853 1003 888 q 884 819 935 819 z "},"Ḻ":{"ha":684,"x_min":98,"x_max":670,"o":"m 98 0 l 98 1000 l 292 1000 l 292 174 l 670 174 l 670 0 l 98 0 m 122 -281 l 122 -166 l 661 -166 l 661 -281 l 122 -281 z "},"Ł":{"ha":720,"x_min":-20,"x_max":705,"o":"m 32 335 l -20 438 l 157 543 l 300 607 l 429 686 l 481 583 l 300 478 l 157 414 l 32 335 m 134 0 l 134 1000 l 328 1000 l 328 174 l 705 174 l 705 0 l 134 0 z "},"M":{"ha":1185,"x_min":98,"x_max":1087,"o":"m 98 0 l 98 1000 l 245 1000 l 590 481 l 595 481 l 941 1000 l 1087 1000 l 1087 0 l 893 0 l 893 389 l 897 635 l 892 635 l 614 202 l 571 202 l 294 635 l 288 635 l 292 389 l 292 0 l 98 0 z "},"Ṃ":{"ha":1185,"x_min":98,"x_max":1087,"o":"m 98 0 l 98 1000 l 245 1000 l 590 481 l 595 481 l 941 1000 l 1087 1000 l 1087 0 l 893 0 l 893 389 l 897 635 l 892 635 l 614 202 l 571 202 l 294 635 l 288 635 l 292 389 l 292 0 l 98 0 m 598 -318 q 514 -283 549 -318 q 479 -199 479 -248 q 514 -114 479 -149 q 598 -80 549 -80 q 683 -114 648 -80 q 717 -199 717 -149 q 683 -283 717 -248 q 598 -318 648 -318 z "},"N":{"ha":1035,"x_min":98,"x_max":937,"o":"m 98 0 l 98 1000 l 240 1000 l 663 456 l 741 347 l 747 347 l 743 573 l 743 1000 l 937 1000 l 937 0 l 795 0 l 374 551 l 294 661 l 289 661 l 292 430 l 292 0 l 98 0 z "},"Ǌ":{"ha":1756,"x_min":98,"x_max":1658,"o":"m 98 0 l 98 1000 l 240 1000 l 663 456 l 741 347 l 747 347 l 743 573 l 743 1000 l 937 1000 l 937 0 l 795 0 l 374 551 l 294 661 l 289 661 l 292 430 l 292 0 l 98 0 m 1351 -11 q 1191 29 1258 -11 q 1086 141 1123 69 q 1047 310 1048 213 l 1232 310 q 1264 203 1233 243 q 1346 163 1295 163 q 1406 180 1380 163 q 1448 228 1432 196 q 1463 307 1463 260 l 1463 1000 l 1657 1000 l 1657 310 q 1618 136 1657 208 q 1511 27 1579 64 q 1351 -11 1442 -11 z "},"Ń":{"ha":1035,"x_min":98,"x_max":937,"o":"m 98 0 l 98 1000 l 240 1000 l 663 456 l 741 347 l 747 347 l 743 573 l 743 1000 l 937 1000 l 937 0 l 795 0 l 374 551 l 294 661 l 289 661 l 292 430 l 292 0 l 98 0 m 518 1049 l 439 1130 l 670 1334 l 760 1218 l 518 1049 z "},"Ň":{"ha":1035,"x_min":98,"x_max":937,"o":"m 98 0 l 98 1000 l 240 1000 l 663 456 l 741 347 l 747 347 l 743 573 l 743 1000 l 937 1000 l 937 0 l 795 0 l 374 551 l 294 661 l 289 661 l 292 430 l 292 0 l 98 0 m 348 1300 l 515 1173 l 519 1173 l 689 1300 l 772 1211 l 537 1047 l 498 1047 l 263 1211 l 348 1300 z "},"Ņ":{"ha":1035,"x_min":98,"x_max":937,"o":"m 98 0 l 98 1000 l 240 1000 l 663 456 l 741 347 l 747 347 l 743 573 l 743 1000 l 937 1000 l 937 0 l 795 0 l 374 551 l 294 661 l 289 661 l 292 430 l 292 0 l 98 0 m 450 -409 l 410 -360 l 473 -309 q 498 -284 484 -299 q 522 -252 512 -269 q 532 -220 532 -235 l 557 -220 q 544 -249 555 -236 q 507 -262 532 -262 q 449 -238 477 -262 q 420 -175 421 -214 q 448 -113 421 -136 q 507 -90 474 -89 q 572 -114 546 -89 q 598 -188 598 -139 q 584 -259 598 -227 q 550 -313 569 -290 q 516 -349 530 -336 l 450 -409 z "},"Ṅ":{"ha":1035,"x_min":98,"x_max":937,"o":"m 98 0 l 98 1000 l 240 1000 l 663 456 l 741 347 l 747 347 l 743 573 l 743 1000 l 937 1000 l 937 0 l 795 0 l 374 551 l 294 661 l 289 661 l 292 430 l 292 0 l 98 0 m 524 1062 q 439 1097 474 1062 q 405 1181 405 1132 q 439 1266 405 1232 q 524 1300 474 1300 q 608 1266 574 1300 q 642 1181 642 1232 q 608 1097 642 1132 q 524 1062 574 1062 z "},"Ṇ":{"ha":1035,"x_min":98,"x_max":937,"o":"m 98 0 l 98 1000 l 240 1000 l 663 456 l 741 347 l 747 347 l 743 573 l 743 1000 l 937 1000 l 937 0 l 795 0 l 374 551 l 294 661 l 289 661 l 292 430 l 292 0 l 98 0 m 516 -318 q 432 -283 467 -318 q 397 -199 397 -248 q 432 -114 397 -149 q 516 -80 467 -80 q 601 -114 566 -80 q 635 -199 635 -149 q 601 -283 635 -248 q 516 -318 566 -318 z "},"ǋ":{"ha":1389,"x_min":98,"x_max":1333,"o":"m 98 0 l 98 1000 l 240 1000 l 663 456 l 741 347 l 747 347 l 743 573 l 743 1000 l 937 1000 l 937 0 l 795 0 l 374 551 l 294 661 l 289 661 l 292 430 l 292 0 l 98 0 m 1060 -299 q 1015 -296 1038 -299 q 970 -289 991 -294 l 970 -119 q 1003 -128 985 -125 q 1034 -130 1021 -130 q 1101 -107 1080 -130 q 1122 -45 1122 -84 l 1122 726 l 1309 726 l 1309 -41 q 1282 -173 1309 -115 q 1200 -265 1255 -231 q 1060 -299 1145 -299 m 1215 819 q 1131 853 1165 819 q 1096 938 1096 888 q 1131 1022 1096 988 q 1215 1057 1165 1057 q 1299 1022 1265 1057 q 1333 938 1333 988 q 1299 853 1333 888 q 1215 819 1265 819 z "},"Ṉ":{"ha":1035,"x_min":98,"x_max":937,"o":"m 98 0 l 98 1000 l 240 1000 l 663 456 l 741 347 l 747 347 l 743 573 l 743 1000 l 937 1000 l 937 0 l 795 0 l 374 551 l 294 661 l 289 661 l 292 430 l 292 0 l 98 0 m 247 -281 l 247 -166 l 785 -166 l 785 -281 l 247 -281 z "},"Ñ":{"ha":1035,"x_min":98,"x_max":937,"o":"m 98 0 l 98 1000 l 240 1000 l 663 456 l 741 347 l 747 347 l 743 573 l 743 1000 l 937 1000 l 937 0 l 795 0 l 374 551 l 294 661 l 289 661 l 292 430 l 292 0 l 98 0 m 269 1070 q 309 1210 269 1155 q 421 1262 349 1265 q 485 1252 460 1263 q 528 1224 510 1240 q 562 1196 546 1208 q 597 1184 578 1184 q 639 1206 625 1184 q 652 1262 652 1229 l 767 1262 q 728 1126 768 1181 q 612 1070 687 1072 q 550 1083 575 1071 q 507 1112 526 1096 q 471 1139 488 1127 q 434 1150 454 1151 q 396 1130 409 1152 q 384 1070 384 1108 l 269 1070 z "},"Ŋ":{"ha":1035,"x_min":98,"x_max":937,"o":"m 675 -301 q 605 -296 640 -301 q 553 -281 570 -290 l 553 -119 q 604 -134 578 -129 q 647 -138 630 -138 q 723 -112 696 -139 q 749 -43 750 -84 l 749 68 l 937 91 l 937 -33 q 908 -172 937 -111 q 821 -267 879 -233 q 675 -301 762 -301 m 98 0 l 98 1000 l 240 1000 l 663 456 l 741 347 l 747 347 l 743 573 l 743 1000 l 937 1000 l 937 0 l 795 0 l 374 551 l 294 661 l 289 661 l 292 430 l 292 0 l 98 0 z "},"O":{"ha":1095,"x_min":39,"x_max":1057,"o":"m 549 -11 q 349 28 441 -11 q 186 136 256 66 q 78 299 117 206 q 39 500 39 392 q 78 701 39 608 q 186 863 117 794 q 348 971 256 932 q 547 1010 441 1010 q 748 971 656 1010 q 910 863 841 932 q 1018 701 980 794 q 1057 500 1057 608 q 1018 299 1057 392 q 910 136 980 206 q 749 28 841 66 q 549 -11 656 -11 m 547 166 q 672 192 614 166 q 772 263 729 218 q 839 369 815 309 q 863 500 863 430 q 839 633 863 572 q 771 739 814 694 q 671 808 728 783 q 547 833 613 833 q 424 808 481 833 q 324 739 367 783 q 257 633 281 694 q 233 500 233 572 q 257 369 233 430 q 323 262 281 308 q 423 192 366 217 q 547 166 480 166 z "},"Ó":{"ha":1095,"x_min":39,"x_max":1057,"o":"m 549 -11 q 349 28 441 -11 q 186 136 256 66 q 78 299 117 206 q 39 500 39 392 q 78 701 39 608 q 186 863 117 794 q 348 971 256 932 q 547 1010 441 1010 q 748 971 656 1010 q 910 863 841 932 q 1018 701 980 794 q 1057 500 1057 608 q 1018 299 1057 392 q 910 136 980 206 q 749 28 841 66 q 549 -11 656 -11 m 547 166 q 672 192 614 166 q 772 263 729 218 q 839 369 815 309 q 863 500 863 430 q 839 633 863 572 q 771 739 814 694 q 671 808 728 783 q 547 833 613 833 q 424 808 481 833 q 324 739 367 783 q 257 633 281 694 q 233 500 233 572 q 257 369 233 430 q 323 262 281 308 q 423 192 366 217 q 547 166 480 166 m 547 1049 l 468 1130 l 699 1334 l 788 1218 l 547 1049 z "},"Ŏ":{"ha":1095,"x_min":39,"x_max":1057,"o":"m 549 -11 q 349 28 441 -11 q 186 136 256 66 q 78 299 117 206 q 39 500 39 392 q 78 701 39 608 q 186 863 117 794 q 348 971 256 932 q 547 1010 441 1010 q 748 971 656 1010 q 910 863 841 932 q 1018 701 980 794 q 1057 500 1057 608 q 1018 299 1057 392 q 910 136 980 206 q 749 28 841 66 q 549 -11 656 -11 m 547 166 q 672 192 614 166 q 772 263 729 218 q 839 369 815 309 q 863 500 863 430 q 839 633 863 572 q 771 739 814 694 q 671 808 728 783 q 547 833 613 833 q 424 808 481 833 q 324 739 367 783 q 257 633 281 694 q 233 500 233 572 q 257 369 233 430 q 323 262 281 308 q 423 192 366 217 q 547 166 480 166 m 547 1061 q 424 1087 480 1063 q 333 1158 368 1112 q 299 1271 299 1204 l 412 1271 q 454 1191 413 1217 q 547 1165 494 1165 q 642 1191 602 1165 q 682 1271 683 1217 l 796 1271 q 763 1158 798 1204 q 672 1087 729 1112 q 547 1061 615 1063 z "},"Ô":{"ha":1095,"x_min":39,"x_max":1057,"o":"m 549 -11 q 349 28 441 -11 q 186 136 256 66 q 78 299 117 206 q 39 500 39 392 q 78 701 39 608 q 186 863 117 794 q 348 971 256 932 q 547 1010 441 1010 q 748 971 656 1010 q 910 863 841 932 q 1018 701 980 794 q 1057 500 1057 608 q 1018 299 1057 392 q 910 136 980 206 q 749 28 841 66 q 549 -11 656 -11 m 547 166 q 672 192 614 166 q 772 263 729 218 q 839 369 815 309 q 863 500 863 430 q 839 633 863 572 q 771 739 814 694 q 671 808 728 783 q 547 833 613 833 q 424 808 481 833 q 324 739 367 783 q 257 633 281 694 q 233 500 233 572 q 257 369 233 430 q 323 262 281 308 q 423 192 366 217 q 547 166 480 166 m 378 1051 l 294 1140 l 529 1304 l 568 1304 l 802 1140 l 720 1051 l 549 1178 l 545 1178 l 378 1051 z "},"Ố":{"ha":1095,"x_min":39,"x_max":1057,"o":"m 549 -11 q 349 28 441 -11 q 186 136 256 66 q 78 299 117 206 q 39 500 39 392 q 78 701 39 608 q 186 863 117 794 q 348 971 256 932 q 547 1010 441 1010 q 748 971 656 1010 q 910 863 841 932 q 1018 701 980 794 q 1057 500 1057 608 q 1018 299 1057 392 q 910 136 980 206 q 749 28 841 66 q 549 -11 656 -11 m 547 166 q 672 192 614 166 q 772 263 729 218 q 839 369 815 309 q 863 500 863 430 q 839 633 863 572 q 771 739 814 694 q 671 808 728 783 q 547 833 613 833 q 424 808 481 833 q 324 739 367 783 q 257 633 281 694 q 233 500 233 572 q 257 369 233 430 q 323 262 281 308 q 423 192 366 217 q 547 166 480 166 m 758 1226 l 674 1286 l 890 1503 l 981 1385 l 758 1226 m 377 1042 l 292 1128 l 528 1292 l 566 1292 l 801 1128 l 718 1042 l 548 1167 l 544 1167 l 377 1042 z "},"Ộ":{"ha":1095,"x_min":39,"x_max":1057,"o":"m 549 -11 q 349 28 441 -11 q 186 136 256 66 q 78 299 117 206 q 39 500 39 392 q 78 701 39 608 q 186 863 117 794 q 348 971 256 932 q 547 1010 441 1010 q 748 971 656 1010 q 910 863 841 932 q 1018 701 980 794 q 1057 500 1057 608 q 1018 299 1057 392 q 910 136 980 206 q 749 28 841 66 q 549 -11 656 -11 m 547 166 q 672 192 614 166 q 772 263 729 218 q 839 369 815 309 q 863 500 863 430 q 839 633 863 572 q 771 739 814 694 q 671 808 728 783 q 547 833 613 833 q 424 808 481 833 q 324 739 367 783 q 257 633 281 694 q 233 500 233 572 q 257 369 233 430 q 323 262 281 308 q 423 192 366 217 q 547 166 480 166 m 552 -318 q 468 -283 503 -318 q 433 -199 433 -248 q 468 -114 433 -149 q 552 -80 503 -80 q 636 -114 602 -80 q 671 -199 671 -149 q 636 -283 671 -248 q 552 -318 602 -318 m 378 1051 l 294 1140 l 529 1304 l 568 1304 l 802 1140 l 720 1051 l 549 1178 l 545 1178 l 378 1051 z "},"Ồ":{"ha":1095,"x_min":39,"x_max":1057,"o":"m 549 -11 q 349 28 441 -11 q 186 136 256 66 q 78 299 117 206 q 39 500 39 392 q 78 701 39 608 q 186 863 117 794 q 348 971 256 932 q 547 1010 441 1010 q 748 971 656 1010 q 910 863 841 932 q 1018 701 980 794 q 1057 500 1057 608 q 1018 299 1057 392 q 910 136 980 206 q 749 28 841 66 q 549 -11 656 -11 m 547 166 q 672 192 614 166 q 772 263 729 218 q 839 369 815 309 q 863 500 863 430 q 839 633 863 572 q 771 739 814 694 q 671 808 728 783 q 547 833 613 833 q 424 808 481 833 q 324 739 367 783 q 257 633 281 694 q 233 500 233 572 q 257 369 233 430 q 323 262 281 308 q 423 192 366 217 q 547 166 480 166 m 336 1226 l 113 1385 l 203 1503 l 420 1286 l 336 1226 m 717 1041 l 550 1167 l 546 1167 l 376 1041 l 293 1128 l 528 1292 l 566 1292 l 802 1128 l 717 1041 z "},"Ổ":{"ha":1095,"x_min":39,"x_max":1057,"o":"m 549 -11 q 349 28 441 -11 q 186 136 256 66 q 78 299 117 206 q 39 500 39 392 q 78 701 39 608 q 186 863 117 794 q 348 971 256 932 q 547 1010 441 1010 q 748 971 656 1010 q 910 863 841 932 q 1018 701 980 794 q 1057 500 1057 608 q 1018 299 1057 392 q 910 136 980 206 q 749 28 841 66 q 549 -11 656 -11 m 547 166 q 672 192 614 166 q 772 263 729 218 q 839 369 815 309 q 863 500 863 430 q 839 633 863 572 q 771 739 814 694 q 671 808 728 783 q 547 833 613 833 q 424 808 481 833 q 324 739 367 783 q 257 633 281 694 q 233 500 233 572 q 257 369 233 430 q 323 262 281 308 q 423 192 366 217 q 547 166 480 166 m 749 1227 l 679 1278 q 715 1311 701 1294 q 729 1346 729 1329 q 712 1380 729 1368 q 660 1392 695 1392 q 625 1389 642 1392 q 587 1379 607 1385 l 587 1491 q 632 1501 602 1498 q 686 1505 661 1505 q 800 1473 757 1505 q 844 1373 844 1441 q 828 1310 844 1339 q 791 1260 812 1282 q 749 1227 769 1239 m 378 1042 l 294 1128 l 529 1292 l 568 1292 l 802 1128 l 720 1042 l 549 1167 l 545 1167 l 378 1042 z "},"Ỗ":{"ha":1095,"x_min":39,"x_max":1057,"o":"m 549 -11 q 349 28 441 -11 q 186 136 256 66 q 78 299 117 206 q 39 500 39 392 q 78 701 39 608 q 186 863 117 794 q 348 971 256 932 q 547 1010 441 1010 q 748 971 656 1010 q 910 863 841 932 q 1018 701 980 794 q 1057 500 1057 608 q 1018 299 1057 392 q 910 136 980 206 q 749 28 841 66 q 549 -11 656 -11 m 547 166 q 672 192 614 166 q 772 263 729 218 q 839 369 815 309 q 863 500 863 430 q 839 633 863 572 q 771 739 814 694 q 671 808 728 783 q 547 833 613 833 q 424 808 481 833 q 324 739 367 783 q 257 633 281 694 q 233 500 233 572 q 257 369 233 430 q 323 262 281 308 q 423 192 366 217 q 547 166 480 166 m 298 1314 q 338 1453 296 1400 q 451 1506 379 1506 q 514 1495 489 1506 q 556 1468 538 1483 q 591 1440 574 1452 q 628 1429 608 1429 q 667 1450 654 1429 q 680 1506 680 1470 l 797 1506 q 782 1409 798 1452 q 735 1339 767 1365 q 654 1314 703 1314 q 593 1325 618 1314 q 550 1353 568 1337 q 515 1381 532 1369 q 478 1393 498 1393 q 432 1373 451 1393 q 412 1314 414 1354 l 298 1314 m 377 1042 l 292 1128 l 528 1292 l 566 1292 l 801 1128 l 718 1042 l 548 1167 l 544 1167 l 377 1042 z "},"Ȍ":{"ha":1095,"x_min":39,"x_max":1057,"o":"m 549 -11 q 349 28 441 -11 q 186 136 256 66 q 78 299 117 206 q 39 500 39 392 q 78 701 39 608 q 186 863 117 794 q 348 971 256 932 q 547 1010 441 1010 q 748 971 656 1010 q 910 863 841 932 q 1018 701 980 794 q 1057 500 1057 608 q 1018 299 1057 392 q 910 136 980 206 q 749 28 841 66 q 549 -11 656 -11 m 547 166 q 672 192 614 166 q 772 263 729 218 q 839 369 815 309 q 863 500 863 430 q 839 633 863 572 q 771 739 814 694 q 671 808 728 783 q 547 833 613 833 q 424 808 481 833 q 324 739 367 783 q 257 633 281 694 q 233 500 233 572 q 257 369 233 430 q 323 262 281 308 q 423 192 366 217 q 547 166 480 166 m 375 1064 l 204 1282 l 330 1352 l 470 1110 l 375 1064 m 631 1064 l 465 1282 l 591 1352 l 727 1110 l 631 1064 z "},"Ö":{"ha":1095,"x_min":39,"x_max":1057,"o":"m 549 -11 q 349 28 441 -11 q 186 136 256 66 q 78 299 117 206 q 39 500 39 392 q 78 701 39 608 q 186 863 117 794 q 348 971 256 932 q 547 1010 441 1010 q 748 971 656 1010 q 910 863 841 932 q 1018 701 980 794 q 1057 500 1057 608 q 1018 299 1057 392 q 910 136 980 206 q 749 28 841 66 q 549 -11 656 -11 m 547 166 q 672 192 614 166 q 772 263 729 218 q 839 369 815 309 q 863 500 863 430 q 839 633 863 572 q 771 739 814 694 q 671 808 728 783 q 547 833 613 833 q 424 808 481 833 q 324 739 367 783 q 257 633 281 694 q 233 500 233 572 q 257 369 233 430 q 323 262 281 308 q 423 192 366 217 q 547 166 480 166 m 711 1056 q 632 1087 665 1056 q 600 1165 600 1119 q 632 1243 600 1211 q 711 1275 665 1275 q 787 1243 755 1275 q 818 1165 818 1211 q 787 1087 818 1119 q 711 1056 755 1056 m 388 1056 q 311 1087 342 1056 q 279 1165 279 1119 q 311 1243 279 1211 q 388 1275 342 1275 q 464 1243 433 1275 q 496 1165 496 1211 q 464 1087 496 1119 q 388 1056 433 1056 z "},"Ȫ":{"ha":1095,"x_min":39,"x_max":1057,"o":"m 549 -11 q 349 28 441 -11 q 186 136 256 66 q 78 299 117 206 q 39 500 39 392 q 78 701 39 608 q 186 863 117 794 q 348 971 256 932 q 547 1010 441 1010 q 748 971 656 1010 q 910 863 841 932 q 1018 701 980 794 q 1057 500 1057 608 q 1018 299 1057 392 q 910 136 980 206 q 749 28 841 66 q 549 -11 656 -11 m 547 166 q 672 192 614 166 q 772 263 729 218 q 839 369 815 309 q 863 500 863 430 q 839 633 863 572 q 771 739 814 694 q 671 808 728 783 q 547 833 613 833 q 424 808 481 833 q 324 739 367 783 q 257 633 281 694 q 233 500 233 572 q 257 369 233 430 q 323 262 281 308 q 423 192 366 217 q 547 166 480 166 m 711 1056 q 632 1087 665 1056 q 600 1165 600 1119 q 632 1243 600 1211 q 711 1275 665 1275 q 787 1243 755 1275 q 818 1165 818 1211 q 787 1087 818 1119 q 711 1056 755 1056 m 388 1056 q 311 1087 342 1056 q 279 1165 279 1119 q 311 1243 279 1211 q 388 1275 342 1275 q 464 1243 433 1275 q 496 1165 496 1211 q 464 1087 496 1119 q 388 1056 433 1056 m 283 1329 l 283 1455 l 811 1455 l 811 1329 l 283 1329 z "},"Ȱ":{"ha":1095,"x_min":39,"x_max":1057,"o":"m 549 -11 q 349 28 441 -11 q 186 136 256 66 q 78 299 117 206 q 39 500 39 392 q 78 701 39 608 q 186 863 117 794 q 348 971 256 932 q 547 1010 441 1010 q 748 971 656 1010 q 910 863 841 932 q 1018 701 980 794 q 1057 500 1057 608 q 1018 299 1057 392 q 910 136 980 206 q 749 28 841 66 q 549 -11 656 -11 m 547 166 q 672 192 614 166 q 772 263 729 218 q 839 369 815 309 q 863 500 863 430 q 839 633 863 572 q 771 739 814 694 q 671 808 728 783 q 547 833 613 833 q 424 808 481 833 q 324 739 367 783 q 257 633 281 694 q 233 500 233 572 q 257 369 233 430 q 323 262 281 308 q 423 192 366 217 q 547 166 480 166 m 552 1062 q 468 1097 503 1062 q 433 1181 433 1132 q 468 1266 433 1232 q 552 1300 503 1300 q 636 1266 602 1300 q 671 1181 671 1232 q 636 1097 671 1132 q 552 1062 602 1062 m 283 1351 l 283 1477 l 811 1477 l 811 1351 l 283 1351 z "},"Ọ":{"ha":1095,"x_min":39,"x_max":1057,"o":"m 549 -11 q 349 28 441 -11 q 186 136 256 66 q 78 299 117 206 q 39 500 39 392 q 78 701 39 608 q 186 863 117 794 q 348 971 256 932 q 547 1010 441 1010 q 748 971 656 1010 q 910 863 841 932 q 1018 701 980 794 q 1057 500 1057 608 q 1018 299 1057 392 q 910 136 980 206 q 749 28 841 66 q 549 -11 656 -11 m 547 166 q 672 192 614 166 q 772 263 729 218 q 839 369 815 309 q 863 500 863 430 q 839 633 863 572 q 771 739 814 694 q 671 808 728 783 q 547 833 613 833 q 424 808 481 833 q 324 739 367 783 q 257 633 281 694 q 233 500 233 572 q 257 369 233 430 q 323 262 281 308 q 423 192 366 217 q 547 166 480 166 m 547 -318 q 463 -283 497 -318 q 428 -199 428 -248 q 463 -114 428 -149 q 547 -80 497 -80 q 631 -114 597 -80 q 665 -199 665 -149 q 631 -283 665 -248 q 547 -318 597 -318 z "},"Ò":{"ha":1095,"x_min":39,"x_max":1057,"o":"m 549 -11 q 349 28 441 -11 q 186 136 256 66 q 78 299 117 206 q 39 500 39 392 q 78 701 39 608 q 186 863 117 794 q 348 971 256 932 q 547 1010 441 1010 q 748 971 656 1010 q 910 863 841 932 q 1018 701 980 794 q 1057 500 1057 608 q 1018 299 1057 392 q 910 136 980 206 q 749 28 841 66 q 549 -11 656 -11 m 547 166 q 672 192 614 166 q 772 263 729 218 q 839 369 815 309 q 863 500 863 430 q 839 633 863 572 q 771 739 814 694 q 671 808 728 783 q 547 833 613 833 q 424 808 481 833 q 324 739 367 783 q 257 633 281 694 q 233 500 233 572 q 257 369 233 430 q 323 262 281 308 q 423 192 366 217 q 547 166 480 166 m 547 1049 l 305 1218 l 395 1334 l 625 1130 l 547 1049 z "},"Ỏ":{"ha":1095,"x_min":39,"x_max":1057,"o":"m 549 -11 q 349 28 441 -11 q 186 136 256 66 q 78 299 117 206 q 39 500 39 392 q 78 701 39 608 q 186 863 117 794 q 348 971 256 932 q 547 1010 441 1010 q 748 971 656 1010 q 910 863 841 932 q 1018 701 980 794 q 1057 500 1057 608 q 1018 299 1057 392 q 910 136 980 206 q 749 28 841 66 q 549 -11 656 -11 m 547 166 q 672 192 614 166 q 772 263 729 218 q 839 369 815 309 q 863 500 863 430 q 839 633 863 572 q 771 739 814 694 q 671 808 728 783 q 547 833 613 833 q 424 808 481 833 q 324 739 367 783 q 257 633 281 694 q 233 500 233 572 q 257 369 233 430 q 323 262 281 308 q 423 192 366 217 q 547 166 480 166 m 570 1059 l 501 1127 q 540 1159 524 1140 q 556 1198 556 1177 q 537 1229 556 1218 q 486 1239 518 1239 q 451 1236 470 1239 q 414 1227 431 1234 l 414 1337 q 458 1349 429 1345 q 509 1353 486 1353 q 627 1319 584 1353 q 671 1222 671 1286 q 640 1121 671 1165 q 570 1059 608 1078 z "},"Ơ":{"ha":1095,"x_min":39,"x_max":1057,"o":"m 549 -11 q 349 28 441 -11 q 186 136 256 66 q 78 299 117 206 q 39 500 39 392 q 78 701 39 608 q 186 863 117 794 q 348 971 256 932 q 547 1010 441 1010 q 748 971 656 1010 q 910 863 841 932 q 1018 701 980 794 q 1057 500 1057 608 q 1018 299 1057 392 q 910 136 980 206 q 749 28 841 66 q 549 -11 656 -11 m 547 166 q 672 192 614 166 q 772 263 729 218 q 839 369 815 309 q 863 500 863 430 q 839 633 863 572 q 771 739 814 694 q 671 808 728 783 q 547 833 613 833 q 424 808 481 833 q 324 739 367 783 q 257 633 281 694 q 233 500 233 572 q 257 369 233 430 q 323 262 281 308 q 423 192 366 217 q 547 166 480 166 m 759 844 l 756 966 q 863 999 829 966 q 896 1097 896 1031 q 894 1131 896 1114 q 888 1166 892 1149 l 1025 1191 q 1036 1138 1033 1168 q 1038 1090 1038 1107 q 998 955 1038 1012 q 893 869 958 899 q 759 844 829 840 z "},"Ớ":{"ha":1095,"x_min":39,"x_max":1057,"o":"m 549 -11 q 349 28 441 -11 q 186 136 256 66 q 78 299 117 206 q 39 500 39 392 q 78 701 39 608 q 186 863 117 794 q 348 971 256 932 q 547 1010 441 1010 q 748 971 656 1010 q 910 863 841 932 q 1018 701 980 794 q 1057 500 1057 608 q 1018 299 1057 392 q 910 136 980 206 q 749 28 841 66 q 549 -11 656 -11 m 547 166 q 672 192 614 166 q 772 263 729 218 q 839 369 815 309 q 863 500 863 430 q 839 633 863 572 q 771 739 814 694 q 671 808 728 783 q 547 833 613 833 q 424 808 481 833 q 324 739 367 783 q 257 633 281 694 q 233 500 233 572 q 257 369 233 430 q 323 262 281 308 q 423 192 366 217 q 547 166 480 166 m 759 844 l 756 966 q 863 999 829 966 q 896 1097 896 1031 q 894 1131 896 1114 q 888 1166 892 1149 l 1025 1191 q 1036 1138 1033 1168 q 1038 1090 1038 1107 q 998 955 1038 1012 q 893 869 958 899 q 759 844 829 840 m 547 1049 l 468 1130 l 699 1334 l 788 1218 l 547 1049 z "},"Ợ":{"ha":1095,"x_min":39,"x_max":1057,"o":"m 549 -11 q 349 28 441 -11 q 186 136 256 66 q 78 299 117 206 q 39 500 39 392 q 78 701 39 608 q 186 863 117 794 q 348 971 256 932 q 547 1010 441 1010 q 748 971 656 1010 q 910 863 841 932 q 1018 701 980 794 q 1057 500 1057 608 q 1018 299 1057 392 q 910 136 980 206 q 749 28 841 66 q 549 -11 656 -11 m 547 166 q 672 192 614 166 q 772 263 729 218 q 839 369 815 309 q 863 500 863 430 q 839 633 863 572 q 771 739 814 694 q 671 808 728 783 q 547 833 613 833 q 424 808 481 833 q 324 739 367 783 q 257 633 281 694 q 233 500 233 572 q 257 369 233 430 q 323 262 281 308 q 423 192 366 217 q 547 166 480 166 m 759 844 l 756 966 q 863 999 829 966 q 896 1097 896 1031 q 894 1131 896 1114 q 888 1166 892 1149 l 1025 1191 q 1036 1138 1033 1168 q 1038 1090 1038 1107 q 998 955 1038 1012 q 893 869 958 899 q 759 844 829 840 m 552 -318 q 468 -283 503 -318 q 433 -199 433 -248 q 468 -114 433 -149 q 552 -80 503 -80 q 636 -114 602 -80 q 671 -199 671 -149 q 636 -283 671 -248 q 552 -318 602 -318 z "},"Ờ":{"ha":1095,"x_min":39,"x_max":1057,"o":"m 549 -11 q 349 28 441 -11 q 186 136 256 66 q 78 299 117 206 q 39 500 39 392 q 78 701 39 608 q 186 863 117 794 q 348 971 256 932 q 547 1010 441 1010 q 748 971 656 1010 q 910 863 841 932 q 1018 701 980 794 q 1057 500 1057 608 q 1018 299 1057 392 q 910 136 980 206 q 749 28 841 66 q 549 -11 656 -11 m 547 166 q 672 192 614 166 q 772 263 729 218 q 839 369 815 309 q 863 500 863 430 q 839 633 863 572 q 771 739 814 694 q 671 808 728 783 q 547 833 613 833 q 424 808 481 833 q 324 739 367 783 q 257 633 281 694 q 233 500 233 572 q 257 369 233 430 q 323 262 281 308 q 423 192 366 217 q 547 166 480 166 m 759 844 l 756 966 q 863 999 829 966 q 896 1097 896 1031 q 894 1131 896 1114 q 888 1166 892 1149 l 1025 1191 q 1036 1138 1033 1168 q 1038 1090 1038 1107 q 998 955 1038 1012 q 893 869 958 899 q 759 844 829 840 m 547 1049 l 305 1218 l 395 1334 l 625 1130 l 547 1049 z "},"Ở":{"ha":1095,"x_min":39,"x_max":1057,"o":"m 549 -11 q 349 28 441 -11 q 186 136 256 66 q 78 299 117 206 q 39 500 39 392 q 78 701 39 608 q 186 863 117 794 q 348 971 256 932 q 547 1010 441 1010 q 748 971 656 1010 q 910 863 841 932 q 1018 701 980 794 q 1057 500 1057 608 q 1018 299 1057 392 q 910 136 980 206 q 749 28 841 66 q 549 -11 656 -11 m 547 166 q 672 192 614 166 q 772 263 729 218 q 839 369 815 309 q 863 500 863 430 q 839 633 863 572 q 771 739 814 694 q 671 808 728 783 q 547 833 613 833 q 424 808 481 833 q 324 739 367 783 q 257 633 281 694 q 233 500 233 572 q 257 369 233 430 q 323 262 281 308 q 423 192 366 217 q 547 166 480 166 m 759 844 l 756 966 q 863 999 829 966 q 896 1097 896 1031 q 894 1131 896 1114 q 888 1166 892 1149 l 1025 1191 q 1036 1138 1033 1168 q 1038 1090 1038 1107 q 998 955 1038 1012 q 893 869 958 899 q 759 844 829 840 m 570 1059 l 501 1127 q 540 1159 524 1140 q 556 1198 556 1177 q 537 1229 556 1218 q 486 1239 518 1239 q 451 1236 470 1239 q 414 1227 431 1234 l 414 1337 q 458 1349 429 1345 q 509 1353 486 1353 q 627 1319 584 1353 q 671 1222 671 1286 q 640 1121 671 1165 q 570 1059 608 1078 z "},"Ỡ":{"ha":1095,"x_min":39,"x_max":1057,"o":"m 549 -11 q 349 28 441 -11 q 186 136 256 66 q 78 299 117 206 q 39 500 39 392 q 78 701 39 608 q 186 863 117 794 q 348 971 256 932 q 547 1010 441 1010 q 748 971 656 1010 q 910 863 841 932 q 1018 701 980 794 q 1057 500 1057 608 q 1018 299 1057 392 q 910 136 980 206 q 749 28 841 66 q 549 -11 656 -11 m 547 166 q 672 192 614 166 q 772 263 729 218 q 839 369 815 309 q 863 500 863 430 q 839 633 863 572 q 771 739 814 694 q 671 808 728 783 q 547 833 613 833 q 424 808 481 833 q 324 739 367 783 q 257 633 281 694 q 233 500 233 572 q 257 369 233 430 q 323 262 281 308 q 423 192 366 217 q 547 166 480 166 m 759 844 l 756 966 q 863 999 829 966 q 896 1097 896 1031 q 894 1131 896 1114 q 888 1166 892 1149 l 1025 1191 q 1036 1138 1033 1168 q 1038 1090 1038 1107 q 998 955 1038 1012 q 893 869 958 899 q 759 844 829 840 m 298 1070 q 338 1210 298 1155 q 450 1262 378 1265 q 514 1252 489 1263 q 557 1224 539 1240 q 591 1196 575 1208 q 627 1184 607 1184 q 668 1206 654 1184 q 682 1262 682 1229 l 796 1262 q 757 1126 798 1181 q 641 1070 716 1072 q 579 1083 604 1071 q 536 1112 555 1096 q 500 1139 517 1127 q 463 1150 484 1151 q 426 1130 438 1152 q 413 1070 413 1108 l 298 1070 z "},"Ő":{"ha":1095,"x_min":39,"x_max":1057,"o":"m 549 -11 q 349 28 441 -11 q 186 136 256 66 q 78 299 117 206 q 39 500 39 392 q 78 701 39 608 q 186 863 117 794 q 348 971 256 932 q 547 1010 441 1010 q 748 971 656 1010 q 910 863 841 932 q 1018 701 980 794 q 1057 500 1057 608 q 1018 299 1057 392 q 910 136 980 206 q 749 28 841 66 q 549 -11 656 -11 m 547 166 q 672 192 614 166 q 772 263 729 218 q 839 369 815 309 q 863 500 863 430 q 839 633 863 572 q 771 739 814 694 q 671 808 728 783 q 547 833 613 833 q 424 808 481 833 q 324 739 367 783 q 257 633 281 694 q 233 500 233 572 q 257 369 233 430 q 323 262 281 308 q 423 192 366 217 q 547 166 480 166 m 459 1064 l 363 1110 l 506 1352 l 629 1282 l 459 1064 m 718 1064 l 623 1110 l 762 1352 l 886 1282 l 718 1064 z "},"Ȏ":{"ha":1095,"x_min":39,"x_max":1057,"o":"m 549 -11 q 349 28 441 -11 q 186 136 256 66 q 78 299 117 206 q 39 500 39 392 q 78 701 39 608 q 186 863 117 794 q 348 971 256 932 q 547 1010 441 1010 q 748 971 656 1010 q 910 863 841 932 q 1018 701 980 794 q 1057 500 1057 608 q 1018 299 1057 392 q 910 136 980 206 q 749 28 841 66 q 549 -11 656 -11 m 547 166 q 672 192 614 166 q 772 263 729 218 q 839 369 815 309 q 863 500 863 430 q 839 633 863 572 q 771 739 814 694 q 671 808 728 783 q 547 833 613 833 q 424 808 481 833 q 324 739 367 783 q 257 633 281 694 q 233 500 233 572 q 257 369 233 430 q 323 262 281 308 q 423 192 366 217 q 547 166 480 166 m 547 1274 q 672 1248 614 1272 q 763 1178 729 1224 q 796 1064 798 1132 l 682 1064 q 642 1145 682 1120 q 547 1170 602 1170 q 454 1144 494 1170 q 412 1064 413 1118 l 299 1064 q 333 1178 299 1132 q 424 1248 367 1224 q 547 1274 480 1272 z "},"Ō":{"ha":1095,"x_min":39,"x_max":1057,"o":"m 549 -11 q 349 28 441 -11 q 186 136 256 66 q 78 299 117 206 q 39 500 39 392 q 78 701 39 608 q 186 863 117 794 q 348 971 256 932 q 547 1010 441 1010 q 748 971 656 1010 q 910 863 841 932 q 1018 701 980 794 q 1057 500 1057 608 q 1018 299 1057 392 q 910 136 980 206 q 749 28 841 66 q 549 -11 656 -11 m 547 166 q 672 192 614 166 q 772 263 729 218 q 839 369 815 309 q 863 500 863 430 q 839 633 863 572 q 771 739 814 694 q 671 808 728 783 q 547 833 613 833 q 424 808 481 833 q 324 739 367 783 q 257 633 281 694 q 233 500 233 572 q 257 369 233 430 q 323 262 281 308 q 423 192 366 217 q 547 166 480 166 m 283 1101 l 283 1227 l 811 1227 l 811 1101 l 283 1101 z "},"Ṓ":{"ha":1095,"x_min":39,"x_max":1057,"o":"m 340 1101 l 340 1227 l 869 1227 l 869 1101 l 340 1101 m 605 1278 l 526 1358 l 758 1562 l 846 1446 l 605 1278 m 549 -11 q 349 28 441 -11 q 186 136 256 66 q 78 299 117 206 q 39 500 39 392 q 78 701 39 608 q 186 863 117 794 q 348 971 256 932 q 547 1010 441 1010 q 748 971 656 1010 q 910 863 841 932 q 1018 701 980 794 q 1057 500 1057 608 q 1018 299 1057 392 q 910 136 980 206 q 749 28 841 66 q 549 -11 656 -11 m 547 166 q 672 192 614 166 q 772 263 729 218 q 839 369 815 309 q 863 500 863 430 q 839 633 863 572 q 771 739 814 694 q 671 808 728 783 q 547 833 613 833 q 424 808 481 833 q 324 739 367 783 q 257 633 281 694 q 233 500 233 572 q 257 369 233 430 q 323 262 281 308 q 423 192 366 217 q 547 166 480 166 z "},"Ṑ":{"ha":1095,"x_min":39,"x_max":1057,"o":"m 549 -11 q 349 28 441 -11 q 186 136 256 66 q 78 299 117 206 q 39 500 39 392 q 78 701 39 608 q 186 863 117 794 q 348 971 256 932 q 547 1010 441 1010 q 748 971 656 1010 q 910 863 841 932 q 1018 701 980 794 q 1057 500 1057 608 q 1018 299 1057 392 q 910 136 980 206 q 749 28 841 66 q 549 -11 656 -11 m 547 166 q 672 192 614 166 q 772 263 729 218 q 839 369 815 309 q 863 500 863 430 q 839 633 863 572 q 771 739 814 694 q 671 808 728 783 q 547 833 613 833 q 424 808 481 833 q 324 739 367 783 q 257 633 281 694 q 233 500 233 572 q 257 369 233 430 q 323 262 281 308 q 423 192 366 217 q 547 166 480 166 m 283 1101 l 283 1227 l 811 1227 l 811 1101 l 283 1101 m 547 1277 l 305 1446 l 395 1562 l 625 1358 l 547 1277 z "},"Ǫ":{"ha":1095,"x_min":39,"x_max":1057,"o":"m 549 -11 q 349 28 441 -11 q 186 136 256 66 q 78 299 117 206 q 39 500 39 392 q 78 701 39 608 q 186 863 117 794 q 348 971 256 932 q 547 1010 441 1010 q 748 971 656 1010 q 910 863 841 932 q 1018 701 980 794 q 1057 500 1057 608 q 1018 299 1057 392 q 910 136 980 206 q 749 28 841 66 q 549 -11 656 -11 m 547 166 q 672 192 614 166 q 772 263 729 218 q 839 369 815 309 q 863 500 863 430 q 839 633 863 572 q 771 739 814 694 q 671 808 728 783 q 547 833 613 833 q 424 808 481 833 q 324 739 367 783 q 257 633 281 694 q 233 500 233 572 q 257 369 233 430 q 323 262 281 308 q 423 192 366 217 q 547 166 480 166 m 547 -289 q 441 -253 481 -289 q 400 -157 400 -216 q 442 -56 400 -100 q 549 31 484 -12 l 647 0 q 584 -45 614 -23 q 536 -90 555 -67 q 518 -136 518 -112 q 534 -169 518 -157 q 579 -181 549 -181 q 621 -175 599 -181 q 654 -162 644 -170 l 654 -269 q 603 -283 635 -277 q 547 -289 571 -289 z "},"Ø":{"ha":1095,"x_min":20,"x_max":1065,"o":"m 549 -11 q 349 28 441 -11 q 186 136 256 66 q 78 299 117 206 q 39 500 39 392 q 78 701 39 608 q 186 863 117 794 q 348 971 256 932 q 547 1010 441 1010 q 748 971 656 1010 q 910 863 841 932 q 1018 701 980 794 q 1057 500 1057 608 q 1018 299 1057 392 q 910 136 980 206 q 749 28 841 66 q 549 -11 656 -11 m 547 166 q 672 192 614 166 q 772 263 729 218 q 839 369 815 309 q 863 500 863 430 q 839 633 863 572 q 771 739 814 694 q 671 808 728 783 q 547 833 613 833 q 424 808 481 833 q 324 739 367 783 q 257 633 281 694 q 233 500 233 572 q 257 369 233 430 q 323 262 281 308 q 423 192 366 217 q 547 166 480 166 m 20 0 l 909 1000 l 1065 1000 l 176 0 l 20 0 z "},"Ǿ":{"ha":1095,"x_min":20,"x_max":1065,"o":"m 549 -11 q 349 28 441 -11 q 186 136 256 66 q 78 299 117 206 q 39 500 39 392 q 78 701 39 608 q 186 863 117 794 q 348 971 256 932 q 547 1010 441 1010 q 748 971 656 1010 q 910 863 841 932 q 1018 701 980 794 q 1057 500 1057 608 q 1018 299 1057 392 q 910 136 980 206 q 749 28 841 66 q 549 -11 656 -11 m 547 166 q 672 192 614 166 q 772 263 729 218 q 839 369 815 309 q 863 500 863 430 q 839 633 863 572 q 771 739 814 694 q 671 808 728 783 q 547 833 613 833 q 424 808 481 833 q 324 739 367 783 q 257 633 281 694 q 233 500 233 572 q 257 369 233 430 q 323 262 281 308 q 423 192 366 217 q 547 166 480 166 m 20 0 l 909 1000 l 1065 1000 l 176 0 l 20 0 m 547 1049 l 468 1130 l 699 1334 l 788 1218 l 547 1049 z "},"Õ":{"ha":1095,"x_min":39,"x_max":1057,"o":"m 549 -11 q 349 28 441 -11 q 186 136 256 66 q 78 299 117 206 q 39 500 39 392 q 78 701 39 608 q 186 863 117 794 q 348 971 256 932 q 547 1010 441 1010 q 748 971 656 1010 q 910 863 841 932 q 1018 701 980 794 q 1057 500 1057 608 q 1018 299 1057 392 q 910 136 980 206 q 749 28 841 66 q 549 -11 656 -11 m 547 166 q 672 192 614 166 q 772 263 729 218 q 839 369 815 309 q 863 500 863 430 q 839 633 863 572 q 771 739 814 694 q 671 808 728 783 q 547 833 613 833 q 424 808 481 833 q 324 739 367 783 q 257 633 281 694 q 233 500 233 572 q 257 369 233 430 q 323 262 281 308 q 423 192 366 217 q 547 166 480 166 m 298 1070 q 338 1210 298 1155 q 450 1262 378 1265 q 514 1252 489 1263 q 557 1224 539 1240 q 591 1196 575 1208 q 627 1184 607 1184 q 668 1206 654 1184 q 682 1262 682 1229 l 796 1262 q 757 1126 798 1181 q 641 1070 716 1072 q 579 1083 604 1071 q 536 1112 555 1096 q 500 1139 517 1127 q 463 1150 484 1151 q 426 1130 438 1152 q 413 1070 413 1108 l 298 1070 z "},"Ṍ":{"ha":1095,"x_min":39,"x_max":1057,"o":"m 549 -11 q 349 28 441 -11 q 186 136 256 66 q 78 299 117 206 q 39 500 39 392 q 78 701 39 608 q 186 863 117 794 q 348 971 256 932 q 547 1010 441 1010 q 748 971 656 1010 q 910 863 841 932 q 1018 701 980 794 q 1057 500 1057 608 q 1018 299 1057 392 q 910 136 980 206 q 749 28 841 66 q 549 -11 656 -11 m 547 166 q 672 192 614 166 q 772 263 729 218 q 839 369 815 309 q 863 500 863 430 q 839 633 863 572 q 771 739 814 694 q 671 808 728 783 q 547 833 613 833 q 424 808 481 833 q 324 739 367 783 q 257 633 281 694 q 233 500 233 572 q 257 369 233 430 q 323 262 281 308 q 423 192 366 217 q 547 166 480 166 m 298 1070 q 338 1210 298 1155 q 450 1262 378 1265 q 514 1252 489 1263 q 557 1224 539 1240 q 591 1196 575 1208 q 627 1184 607 1184 q 668 1206 654 1184 q 682 1262 682 1229 l 796 1262 q 757 1126 798 1181 q 641 1070 716 1072 q 579 1083 604 1071 q 536 1112 555 1096 q 500 1139 517 1127 q 463 1150 484 1151 q 426 1130 438 1152 q 413 1070 413 1108 l 298 1070 m 547 1303 l 468 1383 l 699 1588 l 788 1472 l 547 1303 z "},"Ṏ":{"ha":1095,"x_min":39,"x_max":1057,"o":"m 549 -11 q 349 28 441 -11 q 186 136 256 66 q 78 299 117 206 q 39 500 39 392 q 78 701 39 608 q 186 863 117 794 q 348 971 256 932 q 547 1010 441 1010 q 748 971 656 1010 q 910 863 841 932 q 1018 701 980 794 q 1057 500 1057 608 q 1018 299 1057 392 q 910 136 980 206 q 749 28 841 66 q 549 -11 656 -11 m 547 166 q 672 192 614 166 q 772 263 729 218 q 839 369 815 309 q 863 500 863 430 q 839 633 863 572 q 771 739 814 694 q 671 808 728 783 q 547 833 613 833 q 424 808 481 833 q 324 739 367 783 q 257 633 281 694 q 233 500 233 572 q 257 369 233 430 q 323 262 281 308 q 423 192 366 217 q 547 166 480 166 m 298 1070 q 338 1210 298 1155 q 450 1262 378 1265 q 514 1252 489 1263 q 557 1224 539 1240 q 591 1196 575 1208 q 627 1184 607 1184 q 668 1206 654 1184 q 682 1262 682 1229 l 796 1262 q 757 1126 798 1181 q 641 1070 716 1072 q 579 1083 604 1071 q 536 1112 555 1096 q 500 1139 517 1127 q 463 1150 484 1151 q 426 1130 438 1152 q 413 1070 413 1108 l 298 1070 m 711 1310 q 632 1341 665 1310 q 600 1419 600 1373 q 632 1496 600 1464 q 711 1529 665 1529 q 787 1496 755 1529 q 818 1419 818 1464 q 787 1341 818 1373 q 711 1310 755 1310 m 388 1310 q 311 1341 342 1310 q 279 1419 279 1373 q 311 1496 279 1464 q 388 1529 342 1529 q 464 1496 433 1529 q 496 1419 496 1464 q 464 1341 496 1373 q 388 1310 433 1310 z "},"Ȭ":{"ha":1095,"x_min":39,"x_max":1057,"o":"m 549 -11 q 349 28 441 -11 q 186 136 256 66 q 78 299 117 206 q 39 500 39 392 q 78 701 39 608 q 186 863 117 794 q 348 971 256 932 q 547 1010 441 1010 q 748 971 656 1010 q 910 863 841 932 q 1018 701 980 794 q 1057 500 1057 608 q 1018 299 1057 392 q 910 136 980 206 q 749 28 841 66 q 549 -11 656 -11 m 547 166 q 672 192 614 166 q 772 263 729 218 q 839 369 815 309 q 863 500 863 430 q 839 633 863 572 q 771 739 814 694 q 671 808 728 783 q 547 833 613 833 q 424 808 481 833 q 324 739 367 783 q 257 633 281 694 q 233 500 233 572 q 257 369 233 430 q 323 262 281 308 q 423 192 366 217 q 547 166 480 166 m 298 1070 q 338 1210 298 1155 q 450 1262 378 1265 q 514 1252 489 1263 q 557 1224 539 1240 q 591 1196 575 1208 q 627 1184 607 1184 q 668 1206 654 1184 q 682 1262 682 1229 l 796 1262 q 757 1126 798 1181 q 641 1070 716 1072 q 579 1083 604 1071 q 536 1112 555 1096 q 500 1139 517 1127 q 463 1150 484 1151 q 426 1130 438 1152 q 413 1070 413 1108 l 298 1070 m 283 1355 l 283 1481 l 811 1481 l 811 1355 l 283 1355 z "},"Œ":{"ha":1449,"x_min":39,"x_max":1383,"o":"m 533 -11 q 344 27 433 -11 q 186 134 254 65 q 78 296 117 203 q 39 501 39 390 q 78 706 39 612 q 186 867 117 799 q 345 973 255 935 q 538 1010 435 1010 q 699 982 629 1010 q 821 898 770 953 q 904 766 871 844 l 832 766 l 832 1000 l 1383 1000 l 1383 825 l 1006 825 l 1006 591 l 1322 591 l 1322 422 l 1006 422 l 1006 174 l 1383 174 l 1383 0 l 832 0 l 832 237 l 904 237 q 817 103 871 159 q 691 18 763 47 q 533 -11 620 -11 m 545 161 q 703 204 634 161 q 811 324 772 248 q 850 500 850 401 q 810 677 850 601 q 703 796 771 753 q 545 839 634 839 q 387 796 457 839 q 274 677 316 753 q 233 500 233 600 q 256 364 233 427 q 322 256 280 302 q 422 186 365 211 q 545 161 479 161 z "},"P":{"ha":817,"x_min":98,"x_max":779,"o":"m 252 345 l 252 518 l 420 518 q 508 538 471 518 q 567 593 546 558 q 587 674 587 629 q 540 785 587 745 q 412 825 492 825 l 252 825 l 252 1000 l 424 1000 q 613 960 534 1000 q 736 849 693 921 q 779 680 779 777 q 735 506 779 581 q 613 388 692 430 q 430 345 535 345 l 252 345 m 98 0 l 98 1000 l 292 1000 l 292 0 l 98 0 z "},"Þ":{"ha":835,"x_min":98,"x_max":789,"o":"m 248 174 l 248 345 l 444 345 q 559 389 516 345 q 602 503 602 434 q 557 615 602 575 q 437 656 513 656 l 248 656 l 248 827 l 446 827 q 627 789 549 827 q 747 679 705 750 q 789 508 789 607 q 747 334 789 410 q 628 216 705 259 q 450 174 552 174 l 248 174 m 98 0 l 98 1000 l 292 1000 l 292 0 l 98 0 z "},"Q":{"ha":1136,"x_min":39,"x_max":1067,"o":"m 870 0 l 773 124 l 690 187 l 491 418 l 700 418 l 827 259 l 922 182 l 1067 0 l 870 0 m 549 -11 q 349 28 441 -11 q 186 136 256 66 q 78 299 117 206 q 39 500 39 392 q 78 701 39 608 q 186 863 117 794 q 348 971 256 932 q 547 1010 441 1010 q 748 971 656 1010 q 910 863 841 932 q 1018 701 980 794 q 1057 500 1057 608 q 1018 299 1057 392 q 910 136 980 206 q 749 28 841 66 q 549 -11 656 -11 m 547 166 q 672 192 614 166 q 772 263 729 218 q 839 369 815 309 q 863 500 863 430 q 839 633 863 572 q 771 739 814 694 q 671 808 728 783 q 547 833 613 833 q 424 808 481 833 q 324 739 367 783 q 257 633 281 694 q 233 500 233 572 q 257 369 233 430 q 323 262 281 308 q 423 192 366 217 q 547 166 480 166 z "},"R":{"ha":901,"x_min":98,"x_max":865,"o":"m 234 362 l 234 522 l 419 522 q 507 541 469 522 q 567 594 545 560 q 588 674 588 629 q 539 785 588 745 q 411 825 490 825 l 234 825 l 234 1000 l 441 1000 q 613 964 537 1000 q 734 862 690 929 q 779 698 779 795 q 733 528 779 604 q 601 407 687 452 q 395 362 515 362 l 234 362 m 98 0 l 98 1000 l 292 1000 l 292 0 l 98 0 m 645 0 l 415 390 l 561 505 l 865 0 l 645 0 z "},"Ŕ":{"ha":901,"x_min":98,"x_max":865,"o":"m 234 362 l 234 522 l 419 522 q 507 541 469 522 q 567 594 545 560 q 588 674 588 629 q 539 785 588 745 q 411 825 490 825 l 234 825 l 234 1000 l 441 1000 q 613 964 537 1000 q 734 862 690 929 q 779 698 779 795 q 733 528 779 604 q 601 407 687 452 q 395 362 515 362 l 234 362 m 98 0 l 98 1000 l 292 1000 l 292 0 l 98 0 m 645 0 l 415 390 l 561 505 l 865 0 l 645 0 m 420 1049 l 341 1130 l 572 1334 l 661 1218 l 420 1049 z "},"Ř":{"ha":901,"x_min":98,"x_max":865,"o":"m 234 362 l 234 522 l 419 522 q 507 541 469 522 q 567 594 545 560 q 588 674 588 629 q 539 785 588 745 q 411 825 490 825 l 234 825 l 234 1000 l 441 1000 q 613 964 537 1000 q 734 862 690 929 q 779 698 779 795 q 733 528 779 604 q 601 407 687 452 q 395 362 515 362 l 234 362 m 98 0 l 98 1000 l 292 1000 l 292 0 l 98 0 m 645 0 l 415 390 l 561 505 l 865 0 l 645 0 m 250 1300 l 417 1173 l 421 1173 l 591 1300 l 673 1211 l 439 1047 l 400 1047 l 165 1211 l 250 1300 z "},"Ŗ":{"ha":901,"x_min":98,"x_max":865,"o":"m 234 362 l 234 522 l 419 522 q 507 541 469 522 q 567 594 545 560 q 588 674 588 629 q 539 785 588 745 q 411 825 490 825 l 234 825 l 234 1000 l 441 1000 q 613 964 537 1000 q 734 862 690 929 q 779 698 779 795 q 733 528 779 604 q 601 407 687 452 q 395 362 515 362 l 234 362 m 98 0 l 98 1000 l 292 1000 l 292 0 l 98 0 m 645 0 l 415 390 l 561 505 l 865 0 l 645 0 m 394 -409 l 354 -360 l 417 -309 q 443 -284 429 -299 q 467 -252 456 -269 q 476 -220 477 -235 l 501 -220 q 488 -249 500 -236 q 452 -262 477 -262 q 393 -238 421 -262 q 365 -175 366 -214 q 392 -113 366 -136 q 452 -90 418 -89 q 516 -114 490 -89 q 543 -188 543 -139 q 528 -259 543 -227 q 494 -313 513 -290 q 460 -349 475 -336 l 394 -409 z "},"Ȑ":{"ha":901,"x_min":77,"x_max":865,"o":"m 234 362 l 234 522 l 419 522 q 507 541 469 522 q 567 594 545 560 q 588 674 588 629 q 539 785 588 745 q 411 825 490 825 l 234 825 l 234 1000 l 441 1000 q 613 964 537 1000 q 734 862 690 929 q 779 698 779 795 q 733 528 779 604 q 601 407 687 452 q 395 362 515 362 l 234 362 m 98 0 l 98 1000 l 292 1000 l 292 0 l 98 0 m 645 0 l 415 390 l 561 505 l 865 0 l 645 0 m 248 1064 l 77 1282 l 203 1352 l 343 1110 l 248 1064 m 504 1064 l 338 1282 l 464 1352 l 600 1110 l 504 1064 z "},"Ṛ":{"ha":901,"x_min":98,"x_max":865,"o":"m 234 362 l 234 522 l 419 522 q 507 541 469 522 q 567 594 545 560 q 588 674 588 629 q 539 785 588 745 q 411 825 490 825 l 234 825 l 234 1000 l 441 1000 q 613 964 537 1000 q 734 862 690 929 q 779 698 779 795 q 733 528 779 604 q 601 407 687 452 q 395 362 515 362 l 234 362 m 98 0 l 98 1000 l 292 1000 l 292 0 l 98 0 m 645 0 l 415 390 l 561 505 l 865 0 l 645 0 m 460 -318 q 376 -283 411 -318 q 342 -199 342 -248 q 376 -114 342 -149 q 460 -80 411 -80 q 545 -114 511 -80 q 579 -199 579 -149 q 545 -283 579 -248 q 460 -318 511 -318 z "},"Ȓ":{"ha":901,"x_min":98,"x_max":865,"o":"m 234 362 l 234 522 l 419 522 q 507 541 469 522 q 567 594 545 560 q 588 674 588 629 q 539 785 588 745 q 411 825 490 825 l 234 825 l 234 1000 l 441 1000 q 613 964 537 1000 q 734 862 690 929 q 779 698 779 795 q 733 528 779 604 q 601 407 687 452 q 395 362 515 362 l 234 362 m 98 0 l 98 1000 l 292 1000 l 292 0 l 98 0 m 645 0 l 415 390 l 561 505 l 865 0 l 645 0 m 420 1274 q 545 1248 488 1272 q 636 1178 602 1224 q 669 1064 671 1132 l 554 1064 q 515 1145 555 1120 q 420 1170 474 1170 q 327 1144 368 1170 q 285 1064 286 1118 l 172 1064 q 206 1178 172 1132 q 296 1248 240 1224 q 420 1274 353 1272 z "},"Ṟ":{"ha":901,"x_min":98,"x_max":865,"o":"m 234 362 l 234 522 l 419 522 q 507 541 469 522 q 567 594 545 560 q 588 674 588 629 q 539 785 588 745 q 411 825 490 825 l 234 825 l 234 1000 l 441 1000 q 613 964 537 1000 q 734 862 690 929 q 779 698 779 795 q 733 528 779 604 q 601 407 687 452 q 395 362 515 362 l 234 362 m 98 0 l 98 1000 l 292 1000 l 292 0 l 98 0 m 645 0 l 415 390 l 561 505 l 865 0 l 645 0 m 191 -281 l 191 -166 l 730 -166 l 730 -281 l 191 -281 z "},"S":{"ha":810,"x_min":56,"x_max":745,"o":"m 416 -11 q 256 22 330 -11 q 129 110 181 56 q 56 229 77 165 l 239 306 q 275 240 251 273 q 334 187 299 208 q 413 166 369 166 q 482 182 450 166 q 534 225 514 197 q 553 286 553 252 q 532 349 553 323 q 478 393 511 375 q 411 423 446 410 q 348 445 376 435 q 221 505 279 469 q 127 597 163 541 q 92 735 92 654 q 131 882 92 820 q 240 977 170 943 q 399 1010 309 1010 q 547 983 484 1010 q 653 910 610 956 q 720 811 696 865 l 541 739 q 515 779 534 756 q 468 819 497 802 q 401 836 439 836 q 321 811 358 836 q 283 734 283 786 q 304 672 283 698 q 356 629 325 646 q 420 600 387 611 q 477 580 453 588 q 551 552 506 571 q 640 499 595 532 q 715 414 684 466 q 745 289 745 363 q 702 137 745 205 q 585 29 659 68 q 416 -11 510 -11 z "},"Ś":{"ha":797,"x_min":56,"x_max":745,"o":"m 416 -11 q 256 22 330 -11 q 129 110 181 56 q 56 229 77 165 l 239 306 q 275 240 251 273 q 334 187 299 208 q 413 166 369 166 q 482 182 450 166 q 534 225 514 197 q 553 286 553 252 q 532 349 553 323 q 478 393 511 375 q 411 423 446 410 q 348 445 376 435 q 221 505 279 469 q 127 597 163 541 q 92 735 92 654 q 131 882 92 820 q 240 977 170 943 q 399 1010 309 1010 q 547 983 484 1010 q 653 910 610 956 q 720 811 696 865 l 541 739 q 515 779 534 756 q 468 819 497 802 q 401 836 439 836 q 321 811 358 836 q 283 734 283 786 q 304 672 283 698 q 356 629 325 646 q 420 600 387 611 q 477 580 453 588 q 551 552 506 571 q 640 499 595 532 q 715 414 684 466 q 745 289 745 363 q 702 137 745 205 q 585 29 659 68 q 416 -11 510 -11 m 399 1049 l 320 1130 l 551 1334 l 640 1218 l 399 1049 z "},"Ṥ":{"ha":797,"x_min":56,"x_max":745,"o":"m 416 -11 q 256 22 330 -11 q 129 110 181 56 q 56 229 77 165 l 239 306 q 275 240 251 273 q 334 187 299 208 q 413 166 369 166 q 482 182 450 166 q 534 225 514 197 q 553 286 553 252 q 532 349 553 323 q 478 393 511 375 q 411 423 446 410 q 348 445 376 435 q 221 505 279 469 q 127 597 163 541 q 92 735 92 654 q 131 882 92 820 q 240 977 170 943 q 399 1010 309 1010 q 547 983 484 1010 q 653 910 610 956 q 720 811 696 865 l 541 739 q 515 779 534 756 q 468 819 497 802 q 401 836 439 836 q 321 811 358 836 q 283 734 283 786 q 304 672 283 698 q 356 629 325 646 q 420 600 387 611 q 477 580 453 588 q 551 552 506 571 q 640 499 595 532 q 715 414 684 466 q 745 289 745 363 q 702 137 745 205 q 585 29 659 68 q 416 -11 510 -11 m 503 1061 l 422 1131 l 614 1381 l 726 1275 l 503 1061 m 250 1092 q 165 1127 200 1092 q 131 1211 131 1162 q 165 1296 131 1261 q 250 1330 200 1330 q 334 1296 300 1330 q 368 1211 368 1261 q 334 1127 368 1162 q 250 1092 300 1092 z "},"Š":{"ha":797,"x_min":50,"x_max":740,"o":"m 408 -11 q 251 22 325 -11 q 124 111 177 56 q 50 231 71 165 l 234 308 q 271 240 246 272 q 330 187 295 208 q 410 166 366 166 q 477 182 446 166 q 528 225 509 198 q 547 286 547 252 q 524 351 547 325 q 469 395 502 377 q 401 424 436 412 q 342 444 366 435 q 216 503 275 466 q 120 597 157 540 q 83 737 83 654 q 121 880 83 819 q 229 976 159 941 q 393 1010 299 1010 q 541 984 477 1010 q 648 912 604 957 q 714 813 691 867 l 536 741 q 508 784 527 762 q 459 822 488 806 q 395 837 431 837 q 312 809 347 837 q 276 733 276 782 q 298 671 276 697 q 352 626 319 644 q 418 596 385 608 q 475 576 452 584 q 549 548 505 567 q 637 497 593 530 q 710 415 680 465 q 739 292 739 366 q 696 138 740 206 q 576 29 652 69 q 408 -11 501 -11 m 229 1300 l 396 1173 l 400 1173 l 570 1300 l 653 1211 l 418 1047 l 379 1047 l 144 1211 l 229 1300 z "},"Ṧ":{"ha":797,"x_min":50,"x_max":740,"o":"m 408 -11 q 251 22 325 -11 q 124 111 177 56 q 50 231 71 165 l 234 308 q 271 240 246 272 q 330 187 295 208 q 410 166 366 166 q 477 182 446 166 q 528 225 509 198 q 547 286 547 252 q 524 351 547 325 q 469 395 502 377 q 401 424 436 412 q 342 444 366 435 q 216 503 275 466 q 120 597 157 540 q 83 737 83 654 q 121 880 83 819 q 229 976 159 941 q 393 1010 299 1010 q 541 984 477 1010 q 648 912 604 957 q 714 813 691 867 l 536 741 q 508 784 527 762 q 459 822 488 806 q 395 837 431 837 q 312 809 347 837 q 276 733 276 782 q 298 671 276 697 q 352 626 319 644 q 418 596 385 608 q 475 576 452 584 q 549 548 505 567 q 637 497 593 530 q 710 415 680 465 q 739 292 739 366 q 696 138 740 206 q 576 29 652 69 q 408 -11 501 -11 m 229 1300 l 396 1173 l 400 1173 l 570 1300 l 653 1211 l 418 1047 l 379 1047 l 144 1211 l 229 1300 m 404 1284 q 320 1319 355 1284 q 286 1402 286 1354 q 320 1488 286 1453 q 404 1522 355 1522 q 489 1488 454 1522 q 524 1402 524 1453 q 489 1319 524 1354 q 404 1284 454 1284 z "},"Ş":{"ha":797,"x_min":56,"x_max":745,"o":"m 416 -11 q 256 22 330 -11 q 129 110 181 56 q 56 229 77 165 l 239 306 q 275 240 251 273 q 334 187 299 208 q 413 166 369 166 q 482 182 450 166 q 534 225 514 197 q 553 286 553 252 q 532 349 553 323 q 478 393 511 375 q 411 423 446 410 q 348 445 376 435 q 221 505 279 469 q 127 597 163 541 q 92 735 92 654 q 131 882 92 820 q 240 977 170 943 q 399 1010 309 1010 q 547 983 484 1010 q 653 910 610 956 q 720 811 696 865 l 541 739 q 515 779 534 756 q 468 819 497 802 q 401 836 439 836 q 321 811 358 836 q 283 734 283 786 q 304 672 283 698 q 356 629 325 646 q 420 600 387 611 q 477 580 453 588 q 551 552 506 571 q 640 499 595 532 q 715 414 684 466 q 745 289 745 363 q 702 137 745 205 q 585 29 659 68 q 416 -11 510 -11 m 300 -338 l 300 -243 q 408 -230 374 -246 q 442 -186 442 -214 q 415 -150 442 -165 q 338 -132 389 -135 l 382 0 l 467 0 l 427 -111 l 417 -67 q 517 -109 479 -77 q 555 -196 555 -142 q 494 -300 555 -260 q 300 -338 432 -340 z "},"Ŝ":{"ha":797,"x_min":56,"x_max":745,"o":"m 416 -11 q 256 22 330 -11 q 129 110 181 56 q 56 229 77 165 l 239 306 q 275 240 251 273 q 334 187 299 208 q 413 166 369 166 q 482 182 450 166 q 534 225 514 197 q 553 286 553 252 q 532 349 553 323 q 478 393 511 375 q 411 423 446 410 q 348 445 376 435 q 221 505 279 469 q 127 597 163 541 q 92 735 92 654 q 131 882 92 820 q 240 977 170 943 q 399 1010 309 1010 q 547 983 484 1010 q 653 910 610 956 q 720 811 696 865 l 541 739 q 515 779 534 756 q 468 819 497 802 q 401 836 439 836 q 321 811 358 836 q 283 734 283 786 q 304 672 283 698 q 356 629 325 646 q 420 600 387 611 q 477 580 453 588 q 551 552 506 571 q 640 499 595 532 q 715 414 684 466 q 745 289 745 363 q 702 137 745 205 q 585 29 659 68 q 416 -11 510 -11 m 230 1051 l 145 1140 l 380 1304 l 419 1304 l 654 1140 l 571 1051 l 401 1178 l 397 1178 l 230 1051 z "},"Ș":{"ha":797,"x_min":56,"x_max":745,"o":"m 416 -11 q 256 22 330 -11 q 129 110 181 56 q 56 229 77 165 l 239 306 q 275 240 251 273 q 334 187 299 208 q 413 166 369 166 q 482 182 450 166 q 534 225 514 197 q 553 286 553 252 q 532 349 553 323 q 478 393 511 375 q 411 423 446 410 q 348 445 376 435 q 221 505 279 469 q 127 597 163 541 q 92 735 92 654 q 131 882 92 820 q 240 977 170 943 q 399 1010 309 1010 q 547 983 484 1010 q 653 910 610 956 q 720 811 696 865 l 541 739 q 515 779 534 756 q 468 819 497 802 q 401 836 439 836 q 321 811 358 836 q 283 734 283 786 q 304 672 283 698 q 356 629 325 646 q 420 600 387 611 q 477 580 453 588 q 551 552 506 571 q 640 499 595 532 q 715 414 684 466 q 745 289 745 363 q 702 137 745 205 q 585 29 659 68 q 416 -11 510 -11 m 347 -409 l 307 -360 l 370 -309 q 396 -284 382 -299 q 420 -252 410 -269 q 429 -220 430 -235 l 454 -220 q 441 -249 453 -236 q 405 -262 430 -262 q 347 -238 374 -262 q 318 -175 319 -214 q 345 -113 319 -136 q 405 -90 372 -89 q 470 -114 444 -89 q 496 -188 496 -139 q 481 -259 496 -227 q 447 -313 467 -290 q 414 -349 428 -336 l 347 -409 z "},"Ṡ":{"ha":797,"x_min":56,"x_max":745,"o":"m 416 -11 q 256 22 330 -11 q 129 110 181 56 q 56 229 77 165 l 239 306 q 275 240 251 273 q 334 187 299 208 q 413 166 369 166 q 482 182 450 166 q 534 225 514 197 q 553 286 553 252 q 532 349 553 323 q 478 393 511 375 q 411 423 446 410 q 348 445 376 435 q 221 505 279 469 q 127 597 163 541 q 92 735 92 654 q 131 882 92 820 q 240 977 170 943 q 399 1010 309 1010 q 547 983 484 1010 q 653 910 610 956 q 720 811 696 865 l 541 739 q 515 779 534 756 q 468 819 497 802 q 401 836 439 836 q 321 811 358 836 q 283 734 283 786 q 304 672 283 698 q 356 629 325 646 q 420 600 387 611 q 477 580 453 588 q 551 552 506 571 q 640 499 595 532 q 715 414 684 466 q 745 289 745 363 q 702 137 745 205 q 585 29 659 68 q 416 -11 510 -11 m 404 1062 q 320 1097 355 1062 q 286 1181 286 1132 q 320 1266 286 1232 q 404 1300 355 1300 q 489 1266 454 1300 q 523 1181 523 1232 q 489 1097 523 1132 q 404 1062 454 1062 z "},"Ṣ":{"ha":797,"x_min":56,"x_max":745,"o":"m 416 -11 q 256 22 330 -11 q 129 110 181 56 q 56 229 77 165 l 239 306 q 275 240 251 273 q 334 187 299 208 q 413 166 369 166 q 482 182 450 166 q 534 225 514 197 q 553 286 553 252 q 532 349 553 323 q 478 393 511 375 q 411 423 446 410 q 348 445 376 435 q 221 505 279 469 q 127 597 163 541 q 92 735 92 654 q 131 882 92 820 q 240 977 170 943 q 399 1010 309 1010 q 547 983 484 1010 q 653 910 610 956 q 720 811 696 865 l 541 739 q 515 779 534 756 q 468 819 497 802 q 401 836 439 836 q 321 811 358 836 q 283 734 283 786 q 304 672 283 698 q 356 629 325 646 q 420 600 387 611 q 477 580 453 588 q 551 552 506 571 q 640 499 595 532 q 715 414 684 466 q 745 289 745 363 q 702 137 745 205 q 585 29 659 68 q 416 -11 510 -11 m 413 -318 q 329 -283 363 -318 q 294 -199 294 -248 q 329 -114 294 -149 q 413 -80 363 -80 q 497 -114 463 -80 q 532 -199 532 -149 q 497 -283 532 -248 q 413 -318 463 -318 z "},"Ṩ":{"ha":797,"x_min":56,"x_max":745,"o":"m 416 -11 q 256 22 330 -11 q 129 110 181 56 q 56 229 77 165 l 239 306 q 275 240 251 273 q 334 187 299 208 q 413 166 369 166 q 482 182 450 166 q 534 225 514 197 q 553 286 553 252 q 532 349 553 323 q 478 393 511 375 q 411 423 446 410 q 348 445 376 435 q 221 505 279 469 q 127 597 163 541 q 92 735 92 654 q 131 882 92 820 q 240 977 170 943 q 399 1010 309 1010 q 547 983 484 1010 q 653 910 610 956 q 720 811 696 865 l 541 739 q 515 779 534 756 q 468 819 497 802 q 401 836 439 836 q 321 811 358 836 q 283 734 283 786 q 304 672 283 698 q 356 629 325 646 q 420 600 387 611 q 477 580 453 588 q 551 552 506 571 q 640 499 595 532 q 715 414 684 466 q 745 289 745 363 q 702 137 745 205 q 585 29 659 68 q 416 -11 510 -11 m 419 -318 q 335 -283 370 -318 q 300 -199 300 -248 q 335 -114 300 -149 q 419 -80 370 -80 q 504 -114 469 -80 q 538 -199 538 -149 q 504 -283 538 -248 q 419 -318 469 -318 m 419 1062 q 335 1097 370 1062 q 300 1181 300 1132 q 335 1266 300 1232 q 419 1300 370 1300 q 504 1266 469 1300 q 538 1181 538 1232 q 504 1097 538 1132 q 419 1062 469 1062 z "},"ẞ":{"ha":964,"x_min":92,"x_max":915,"o":"m 541 -11 q 488 -8 513 -11 q 440 -2 463 -6 l 440 176 q 499 166 479 168 q 534 163 519 163 q 636 183 593 163 q 701 239 678 203 q 724 325 724 275 q 677 441 725 395 q 536 488 630 488 l 475 488 l 475 525 l 607 863 l 618 810 q 567 831 605 823 q 481 840 530 840 q 385 826 422 840 q 326 792 347 813 q 295 744 304 770 q 286 690 286 717 l 286 0 l 92 0 l 92 711 q 109 817 92 770 q 159 901 126 865 q 238 962 191 937 q 343 998 284 986 q 473 1010 403 1010 q 598 1002 534 1010 q 719 978 662 994 q 814 943 776 963 l 814 922 l 649 538 l 635 627 q 788 577 726 619 q 883 469 850 536 q 915 321 915 403 q 868 146 915 221 q 737 31 821 72 q 541 -11 653 -11 z "},"T":{"ha":753,"x_min":31,"x_max":723,"o":"m 280 0 l 280 854 l 474 854 l 474 0 l 280 0 m 31 825 l 31 1000 l 723 1000 l 723 825 l 31 825 z "},"Ŧ":{"ha":753,"x_min":31,"x_max":723,"o":"m 280 0 l 280 854 l 474 854 l 474 0 l 280 0 m 31 825 l 31 1000 l 723 1000 l 723 825 l 31 825 m 166 411 l 166 525 l 599 525 l 599 411 l 166 411 z "},"Ť":{"ha":753,"x_min":31,"x_max":723,"o":"m 280 0 l 280 854 l 474 854 l 474 0 l 280 0 m 31 825 l 31 1000 l 723 1000 l 723 825 l 31 825 m 208 1300 l 374 1173 l 378 1173 l 548 1300 l 631 1211 l 397 1047 l 357 1047 l 123 1211 l 208 1300 z "},"Ţ":{"ha":753,"x_min":31,"x_max":723,"o":"m 280 0 l 280 854 l 474 854 l 474 0 l 280 0 m 31 825 l 31 1000 l 723 1000 l 723 825 l 31 825 m 253 -338 l 253 -243 q 360 -230 326 -246 q 395 -186 395 -214 q 368 -150 395 -165 q 291 -132 341 -135 l 334 0 l 419 0 l 380 -111 l 370 -67 q 470 -109 432 -77 q 508 -196 508 -142 q 446 -300 508 -260 q 253 -338 385 -340 z "},"Ț":{"ha":753,"x_min":31,"x_max":723,"o":"m 280 0 l 280 854 l 474 854 l 474 0 l 280 0 m 31 825 l 31 1000 l 723 1000 l 723 825 l 31 825 m 311 -409 l 271 -360 l 334 -309 q 359 -284 345 -299 q 383 -252 373 -269 q 393 -220 393 -235 l 418 -220 q 405 -249 416 -236 q 368 -262 393 -262 q 310 -238 338 -262 q 281 -175 282 -214 q 309 -113 282 -136 q 368 -90 335 -89 q 433 -114 407 -89 q 459 -188 459 -139 q 445 -259 459 -227 q 411 -313 430 -290 q 377 -349 391 -336 l 311 -409 z "},"Ṭ":{"ha":753,"x_min":31,"x_max":723,"o":"m 280 0 l 280 854 l 474 854 l 474 0 l 280 0 m 31 825 l 31 1000 l 723 1000 l 723 825 l 31 825 m 377 -318 q 293 -283 328 -318 q 258 -199 258 -248 q 293 -114 258 -149 q 377 -80 328 -80 q 461 -114 427 -80 q 496 -199 496 -149 q 461 -283 496 -248 q 377 -318 427 -318 z "},"Ṯ":{"ha":753,"x_min":31,"x_max":723,"o":"m 280 0 l 280 854 l 474 854 l 474 0 l 280 0 m 31 825 l 31 1000 l 723 1000 l 723 825 l 31 825 m 108 -281 l 108 -166 l 646 -166 l 646 -281 l 108 -281 z "},"U":{"ha":966,"x_min":98,"x_max":868,"o":"m 483 -11 q 280 37 366 -11 q 146 173 193 85 q 98 377 98 260 l 98 1000 l 292 1000 l 292 363 q 316 257 292 302 q 384 188 340 212 q 483 163 427 163 q 623 218 571 163 q 674 363 674 273 l 674 1000 l 868 1000 l 868 377 q 821 173 868 260 q 688 37 774 85 q 483 -11 602 -11 z "},"Ú":{"ha":966,"x_min":98,"x_max":868,"o":"m 483 -11 q 280 37 366 -11 q 146 173 193 85 q 98 377 98 260 l 98 1000 l 292 1000 l 292 363 q 316 257 292 302 q 384 188 340 212 q 483 163 427 163 q 623 218 571 163 q 674 363 674 273 l 674 1000 l 868 1000 l 868 377 q 821 173 868 260 q 688 37 774 85 q 483 -11 602 -11 m 483 1049 l 404 1130 l 635 1334 l 724 1218 l 483 1049 z "},"Ŭ":{"ha":966,"x_min":98,"x_max":868,"o":"m 483 -11 q 280 37 366 -11 q 146 173 193 85 q 98 377 98 260 l 98 1000 l 292 1000 l 292 363 q 316 257 292 302 q 384 188 340 212 q 483 163 427 163 q 623 218 571 163 q 674 363 674 273 l 674 1000 l 868 1000 l 868 377 q 821 173 868 260 q 688 37 774 85 q 483 -11 602 -11 m 484 1061 q 360 1087 416 1063 q 270 1158 304 1112 q 235 1271 235 1204 l 349 1271 q 390 1191 349 1217 q 484 1165 431 1165 q 578 1191 538 1165 q 618 1271 619 1217 l 732 1271 q 700 1158 734 1204 q 608 1087 665 1112 q 484 1061 551 1063 z "},"Û":{"ha":966,"x_min":98,"x_max":868,"o":"m 483 -11 q 280 37 366 -11 q 146 173 193 85 q 98 377 98 260 l 98 1000 l 292 1000 l 292 363 q 316 257 292 302 q 384 188 340 212 q 483 163 427 163 q 623 218 571 163 q 674 363 674 273 l 674 1000 l 868 1000 l 868 377 q 821 173 868 260 q 688 37 774 85 q 483 -11 602 -11 m 315 1051 l 230 1140 l 465 1304 l 504 1304 l 739 1140 l 656 1051 l 486 1178 l 481 1178 l 315 1051 z "},"Ȕ":{"ha":966,"x_min":98,"x_max":868,"o":"m 483 -11 q 280 37 366 -11 q 146 173 193 85 q 98 377 98 260 l 98 1000 l 292 1000 l 292 363 q 316 257 292 302 q 384 188 340 212 q 483 163 427 163 q 623 218 571 163 q 674 363 674 273 l 674 1000 l 868 1000 l 868 377 q 821 173 868 260 q 688 37 774 85 q 483 -11 602 -11 m 311 1064 l 140 1282 l 266 1352 l 406 1110 l 311 1064 m 567 1064 l 401 1282 l 527 1352 l 663 1110 l 567 1064 z "},"Ü":{"ha":966,"x_min":98,"x_max":868,"o":"m 483 -11 q 280 37 366 -11 q 146 173 193 85 q 98 377 98 260 l 98 1000 l 292 1000 l 292 363 q 316 257 292 302 q 384 188 340 212 q 483 163 427 163 q 623 218 571 163 q 674 363 674 273 l 674 1000 l 868 1000 l 868 377 q 821 173 868 260 q 688 37 774 85 q 483 -11 602 -11 m 647 1056 q 569 1087 601 1056 q 536 1165 536 1119 q 569 1243 536 1211 q 647 1275 601 1275 q 723 1243 692 1275 q 754 1165 754 1211 q 723 1087 754 1119 q 647 1056 692 1056 m 324 1056 q 247 1087 279 1056 q 215 1165 215 1119 q 247 1243 215 1211 q 324 1275 279 1275 q 400 1243 369 1275 q 432 1165 432 1211 q 400 1087 432 1119 q 324 1056 369 1056 z "},"Ụ":{"ha":966,"x_min":98,"x_max":868,"o":"m 483 -11 q 280 37 366 -11 q 146 173 193 85 q 98 377 98 260 l 98 1000 l 292 1000 l 292 363 q 316 257 292 302 q 384 188 340 212 q 483 163 427 163 q 623 218 571 163 q 674 363 674 273 l 674 1000 l 868 1000 l 868 377 q 821 173 868 260 q 688 37 774 85 q 483 -11 602 -11 m 489 -318 q 405 -283 439 -318 q 370 -199 370 -248 q 405 -114 370 -149 q 489 -80 439 -80 q 573 -114 539 -80 q 608 -199 608 -149 q 573 -283 608 -248 q 489 -318 539 -318 z "},"Ù":{"ha":966,"x_min":98,"x_max":868,"o":"m 483 -11 q 280 37 366 -11 q 146 173 193 85 q 98 377 98 260 l 98 1000 l 292 1000 l 292 363 q 316 257 292 302 q 384 188 340 212 q 483 163 427 163 q 623 218 571 163 q 674 363 674 273 l 674 1000 l 868 1000 l 868 377 q 821 173 868 260 q 688 37 774 85 q 483 -11 602 -11 m 483 1049 l 241 1218 l 331 1334 l 562 1130 l 483 1049 z "},"Ủ":{"ha":966,"x_min":98,"x_max":868,"o":"m 483 -11 q 280 37 366 -11 q 146 173 193 85 q 98 377 98 260 l 98 1000 l 292 1000 l 292 363 q 316 257 292 302 q 384 188 340 212 q 483 163 427 163 q 623 218 571 163 q 674 363 674 273 l 674 1000 l 868 1000 l 868 377 q 821 173 868 260 q 688 37 774 85 q 483 -11 602 -11 m 507 1059 l 438 1127 q 477 1159 460 1140 q 493 1198 493 1177 q 474 1229 493 1218 q 422 1239 455 1239 q 388 1236 407 1239 q 351 1227 368 1234 l 351 1337 q 395 1349 366 1345 q 446 1353 423 1353 q 564 1319 521 1353 q 608 1222 608 1286 q 576 1121 608 1165 q 507 1059 545 1078 z "},"Ư":{"ha":1013,"x_min":98,"x_max":1090,"o":"m 483 -11 q 280 37 366 -11 q 146 173 193 85 q 98 377 98 260 l 98 1000 l 292 1000 l 292 363 q 316 257 292 302 q 384 188 340 212 q 483 163 427 163 q 623 218 571 163 q 674 363 674 273 l 674 1000 l 868 1000 l 868 377 q 821 173 868 260 q 688 37 774 85 q 483 -11 602 -11 m 811 878 l 808 1000 q 915 1033 882 1000 q 948 1131 948 1065 q 946 1165 948 1147 q 941 1200 945 1183 l 1077 1225 q 1088 1172 1085 1202 q 1090 1124 1090 1141 q 1050 989 1090 1046 q 945 903 1010 932 q 811 878 881 874 z "},"Ứ":{"ha":1013,"x_min":98,"x_max":1090,"o":"m 483 -11 q 280 37 366 -11 q 146 173 193 85 q 98 377 98 260 l 98 1000 l 292 1000 l 292 363 q 316 257 292 302 q 384 188 340 212 q 483 163 427 163 q 623 218 571 163 q 674 363 674 273 l 674 1000 l 868 1000 l 868 377 q 821 173 868 260 q 688 37 774 85 q 483 -11 602 -11 m 811 878 l 808 1000 q 915 1033 882 1000 q 948 1131 948 1065 q 946 1165 948 1147 q 941 1200 945 1183 l 1077 1225 q 1088 1172 1085 1202 q 1090 1124 1090 1141 q 1050 989 1090 1046 q 945 903 1010 932 q 811 878 881 874 m 483 1049 l 404 1130 l 635 1334 l 724 1218 l 483 1049 z "},"Ự":{"ha":1013,"x_min":98,"x_max":1090,"o":"m 483 -11 q 280 37 366 -11 q 146 173 193 85 q 98 377 98 260 l 98 1000 l 292 1000 l 292 363 q 316 257 292 302 q 384 188 340 212 q 483 163 427 163 q 623 218 571 163 q 674 363 674 273 l 674 1000 l 868 1000 l 868 377 q 821 173 868 260 q 688 37 774 85 q 483 -11 602 -11 m 811 878 l 808 1000 q 915 1033 882 1000 q 948 1131 948 1065 q 946 1165 948 1147 q 941 1200 945 1183 l 1077 1225 q 1088 1172 1085 1202 q 1090 1124 1090 1141 q 1050 989 1090 1046 q 945 903 1010 932 q 811 878 881 874 m 489 -318 q 405 -283 439 -318 q 370 -199 370 -248 q 405 -114 370 -149 q 489 -80 439 -80 q 573 -114 539 -80 q 608 -199 608 -149 q 573 -283 608 -248 q 489 -318 539 -318 z "},"Ừ":{"ha":1013,"x_min":98,"x_max":1090,"o":"m 483 -11 q 280 37 366 -11 q 146 173 193 85 q 98 377 98 260 l 98 1000 l 292 1000 l 292 363 q 316 257 292 302 q 384 188 340 212 q 483 163 427 163 q 623 218 571 163 q 674 363 674 273 l 674 1000 l 868 1000 l 868 377 q 821 173 868 260 q 688 37 774 85 q 483 -11 602 -11 m 811 878 l 808 1000 q 915 1033 882 1000 q 948 1131 948 1065 q 946 1165 948 1147 q 941 1200 945 1183 l 1077 1225 q 1088 1172 1085 1202 q 1090 1124 1090 1141 q 1050 989 1090 1046 q 945 903 1010 932 q 811 878 881 874 m 483 1049 l 241 1218 l 331 1334 l 562 1130 l 483 1049 z "},"Ử":{"ha":1013,"x_min":98,"x_max":1090,"o":"m 483 -11 q 280 37 366 -11 q 146 173 193 85 q 98 377 98 260 l 98 1000 l 292 1000 l 292 363 q 316 257 292 302 q 384 188 340 212 q 483 163 427 163 q 623 218 571 163 q 674 363 674 273 l 674 1000 l 868 1000 l 868 377 q 821 173 868 260 q 688 37 774 85 q 483 -11 602 -11 m 811 878 l 808 1000 q 915 1033 882 1000 q 948 1131 948 1065 q 946 1165 948 1147 q 941 1200 945 1183 l 1077 1225 q 1088 1172 1085 1202 q 1090 1124 1090 1141 q 1050 989 1090 1046 q 945 903 1010 932 q 811 878 881 874 m 507 1059 l 438 1127 q 477 1159 460 1140 q 493 1198 493 1177 q 474 1229 493 1218 q 422 1239 455 1239 q 388 1236 407 1239 q 351 1227 368 1234 l 351 1337 q 395 1349 366 1345 q 446 1353 423 1353 q 564 1319 521 1353 q 608 1222 608 1286 q 576 1121 608 1165 q 507 1059 545 1078 z "},"Ữ":{"ha":1013,"x_min":98,"x_max":1090,"o":"m 483 -11 q 280 37 366 -11 q 146 173 193 85 q 98 377 98 260 l 98 1000 l 292 1000 l 292 363 q 316 257 292 302 q 384 188 340 212 q 483 163 427 163 q 623 218 571 163 q 674 363 674 273 l 674 1000 l 868 1000 l 868 377 q 821 173 868 260 q 688 37 774 85 q 483 -11 602 -11 m 811 878 l 808 1000 q 915 1033 882 1000 q 948 1131 948 1065 q 946 1165 948 1147 q 941 1200 945 1183 l 1077 1225 q 1088 1172 1085 1202 q 1090 1124 1090 1141 q 1050 989 1090 1046 q 945 903 1010 932 q 811 878 881 874 m 234 1070 q 274 1210 234 1155 q 387 1262 315 1265 q 450 1252 425 1263 q 493 1224 475 1240 q 527 1196 511 1208 q 563 1184 543 1184 q 604 1206 591 1184 q 618 1262 618 1229 l 732 1262 q 693 1126 734 1181 q 577 1070 652 1072 q 516 1083 541 1071 q 472 1112 491 1096 q 437 1139 454 1127 q 399 1150 420 1151 q 362 1130 374 1152 q 349 1070 349 1108 l 234 1070 z "},"Ű":{"ha":966,"x_min":98,"x_max":868,"o":"m 483 -11 q 280 37 366 -11 q 146 173 193 85 q 98 377 98 260 l 98 1000 l 292 1000 l 292 363 q 316 257 292 302 q 384 188 340 212 q 483 163 427 163 q 623 218 571 163 q 674 363 674 273 l 674 1000 l 868 1000 l 868 377 q 821 173 868 260 q 688 37 774 85 q 483 -11 602 -11 m 396 1064 l 300 1110 l 443 1352 l 566 1282 l 396 1064 m 655 1064 l 560 1110 l 699 1352 l 823 1282 l 655 1064 z "},"Ȗ":{"ha":966,"x_min":98,"x_max":868,"o":"m 483 -11 q 280 37 366 -11 q 146 173 193 85 q 98 377 98 260 l 98 1000 l 292 1000 l 292 363 q 316 257 292 302 q 384 188 340 212 q 483 163 427 163 q 623 218 571 163 q 674 363 674 273 l 674 1000 l 868 1000 l 868 377 q 821 173 868 260 q 687 37 774 85 q 483 -11 601 -11 m 483 1274 q 608 1248 551 1272 q 700 1178 665 1224 q 732 1064 734 1132 l 618 1064 q 578 1145 619 1120 q 483 1170 538 1170 q 390 1144 431 1170 q 349 1064 349 1118 l 235 1064 q 269 1178 235 1132 q 360 1248 303 1224 q 483 1274 416 1272 z "},"Ū":{"ha":966,"x_min":98,"x_max":868,"o":"m 483 -11 q 280 37 366 -11 q 146 173 193 85 q 98 377 98 260 l 98 1000 l 292 1000 l 292 363 q 316 257 292 302 q 384 188 340 212 q 483 163 427 163 q 623 218 571 163 q 674 363 674 273 l 674 1000 l 868 1000 l 868 377 q 821 173 868 260 q 688 37 774 85 q 483 -11 602 -11 m 219 1101 l 219 1227 l 747 1227 l 747 1101 l 219 1101 z "},"Ṻ":{"ha":966,"x_min":98,"x_max":868,"o":"m 483 -11 q 280 37 366 -11 q 146 173 193 85 q 98 377 98 260 l 98 1000 l 292 1000 l 292 363 q 316 257 292 302 q 384 188 340 212 q 483 163 427 163 q 623 218 571 163 q 674 363 674 273 l 674 1000 l 868 1000 l 868 377 q 821 173 868 260 q 688 37 774 85 q 483 -11 602 -11 m 219 1101 l 219 1227 l 747 1227 l 747 1101 l 219 1101 m 647 1284 q 569 1315 601 1284 q 536 1393 536 1347 q 569 1471 536 1438 q 647 1503 601 1503 q 723 1471 692 1503 q 754 1393 754 1438 q 723 1315 754 1347 q 647 1284 692 1284 m 324 1284 q 247 1315 279 1284 q 215 1393 215 1347 q 247 1471 215 1438 q 324 1503 279 1503 q 400 1471 369 1503 q 432 1393 432 1438 q 400 1315 432 1347 q 324 1284 369 1284 z "},"Ų":{"ha":966,"x_min":98,"x_max":868,"o":"m 483 -11 q 280 37 366 -11 q 146 173 193 85 q 98 377 98 260 l 98 1000 l 292 1000 l 292 363 q 316 257 292 302 q 384 188 340 212 q 483 163 427 163 q 623 218 571 163 q 674 363 674 273 l 674 1000 l 868 1000 l 868 377 q 821 173 868 260 q 688 37 774 85 q 483 -11 602 -11 m 476 -289 q 370 -253 411 -289 q 330 -157 330 -216 q 372 -56 330 -100 q 478 31 414 -12 l 576 0 q 514 -45 543 -23 q 466 -90 484 -67 q 448 -136 448 -112 q 463 -169 448 -157 q 509 -181 479 -181 q 551 -175 528 -181 q 584 -162 573 -170 l 584 -269 q 533 -283 565 -277 q 476 -289 500 -289 z "},"Ů":{"ha":966,"x_min":98,"x_max":868,"o":"m 483 -11 q 280 37 366 -11 q 146 173 193 85 q 98 377 98 260 l 98 1000 l 292 1000 l 292 363 q 316 257 292 302 q 384 188 340 212 q 483 163 427 163 q 623 218 571 163 q 674 363 674 273 l 674 1000 l 868 1000 l 868 377 q 821 173 868 260 q 688 37 774 85 q 483 -11 602 -11 m 484 1044 q 391 1068 432 1044 q 326 1131 350 1091 q 302 1220 302 1171 q 326 1312 302 1272 q 391 1375 350 1352 q 484 1398 432 1398 q 576 1375 535 1398 q 641 1312 617 1352 q 664 1220 664 1272 q 641 1131 664 1171 q 576 1068 617 1091 q 484 1044 535 1044 m 483 1148 q 535 1168 515 1148 q 555 1220 555 1189 q 535 1273 555 1252 q 483 1293 515 1293 q 431 1273 452 1293 q 410 1220 410 1252 q 431 1168 410 1189 q 483 1148 452 1148 z "},"Ũ":{"ha":966,"x_min":98,"x_max":868,"o":"m 483 -11 q 280 37 366 -11 q 146 173 193 85 q 98 377 98 260 l 98 1000 l 292 1000 l 292 363 q 316 257 292 302 q 384 188 340 212 q 483 163 427 163 q 623 218 571 163 q 674 363 674 273 l 674 1000 l 868 1000 l 868 377 q 821 173 868 260 q 688 37 774 85 q 483 -11 602 -11 m 234 1070 q 274 1210 234 1155 q 387 1262 315 1265 q 450 1252 425 1263 q 493 1224 475 1240 q 527 1196 511 1208 q 563 1184 543 1184 q 604 1206 591 1184 q 618 1262 618 1229 l 732 1262 q 693 1126 734 1181 q 577 1070 652 1072 q 516 1083 541 1071 q 472 1112 491 1096 q 437 1139 454 1127 q 399 1150 420 1151 q 362 1130 374 1152 q 349 1070 349 1108 l 234 1070 z "},"Ṹ":{"ha":966,"x_min":98,"x_max":868,"o":"m 483 -11 q 280 37 366 -11 q 146 173 193 85 q 98 377 98 260 l 98 1000 l 292 1000 l 292 363 q 316 257 292 302 q 384 188 340 212 q 483 163 427 163 q 623 218 571 163 q 674 363 674 273 l 674 1000 l 868 1000 l 868 377 q 821 173 868 260 q 688 37 774 85 q 483 -11 602 -11 m 234 1070 q 274 1210 234 1155 q 387 1262 315 1265 q 450 1252 425 1263 q 493 1224 475 1240 q 527 1196 511 1208 q 563 1184 543 1184 q 604 1206 591 1184 q 618 1262 618 1229 l 732 1262 q 693 1126 734 1181 q 577 1070 652 1072 q 516 1083 541 1071 q 472 1112 491 1096 q 437 1139 454 1127 q 399 1150 420 1151 q 362 1130 374 1152 q 349 1070 349 1108 l 234 1070 m 483 1303 l 404 1383 l 635 1588 l 724 1472 l 483 1303 z "},"V":{"ha":986,"x_min":1,"x_max":985,"o":"m 412 0 l 1 1000 l 214 1000 l 381 554 l 490 267 l 496 267 l 603 554 l 771 1000 l 985 1000 l 576 0 l 412 0 z "},"W":{"ha":1342,"x_min":6,"x_max":1336,"o":"m 300 0 l 6 1000 l 208 1000 l 339 518 l 400 270 l 406 270 l 632 891 l 711 891 l 937 270 l 942 270 l 1003 518 l 1136 1000 l 1336 1000 l 1044 0 l 881 0 l 674 515 l 669 515 l 460 0 l 300 0 z "},"Ẃ":{"ha":1342,"x_min":6,"x_max":1336,"o":"m 300 0 l 6 1000 l 208 1000 l 339 518 l 400 270 l 406 270 l 632 891 l 711 891 l 937 270 l 942 270 l 1003 518 l 1136 1000 l 1336 1000 l 1044 0 l 881 0 l 674 515 l 669 515 l 460 0 l 300 0 m 671 1049 l 593 1130 l 823 1334 l 913 1218 l 671 1049 z "},"Ŵ":{"ha":1342,"x_min":6,"x_max":1336,"o":"m 300 0 l 6 1000 l 208 1000 l 339 518 l 400 270 l 406 270 l 632 891 l 711 891 l 937 270 l 942 270 l 1003 518 l 1136 1000 l 1336 1000 l 1044 0 l 881 0 l 674 515 l 669 515 l 460 0 l 300 0 m 503 1051 l 418 1140 l 653 1304 l 692 1304 l 926 1140 l 844 1051 l 673 1178 l 669 1178 l 503 1051 z "},"Ẅ":{"ha":1342,"x_min":6,"x_max":1336,"o":"m 300 0 l 6 1000 l 208 1000 l 339 518 l 400 270 l 406 270 l 632 891 l 711 891 l 937 270 l 942 270 l 1003 518 l 1136 1000 l 1336 1000 l 1044 0 l 881 0 l 674 515 l 669 515 l 460 0 l 300 0 m 835 1056 q 756 1087 789 1056 q 724 1165 724 1119 q 756 1243 724 1211 q 835 1275 789 1275 q 911 1243 880 1275 q 942 1165 942 1211 q 911 1087 942 1119 q 835 1056 880 1056 m 512 1056 q 435 1087 467 1056 q 403 1165 403 1119 q 435 1243 403 1211 q 512 1275 467 1275 q 588 1243 557 1275 q 620 1165 620 1211 q 588 1087 620 1119 q 512 1056 557 1056 z "},"Ẁ":{"ha":1342,"x_min":6,"x_max":1336,"o":"m 300 0 l 6 1000 l 208 1000 l 339 518 l 400 270 l 406 270 l 632 891 l 711 891 l 937 270 l 942 270 l 1003 518 l 1136 1000 l 1336 1000 l 1044 0 l 881 0 l 674 515 l 669 515 l 460 0 l 300 0 m 671 1049 l 430 1218 l 519 1334 l 750 1130 l 671 1049 z "},"X":{"ha":972,"x_min":26,"x_max":947,"o":"m 715 0 l 488 355 l 481 355 l 354 499 l 354 503 l 31 1000 l 254 1000 l 484 627 l 490 627 l 618 502 l 618 498 l 947 0 l 715 0 m 26 0 l 354 498 l 354 502 l 481 627 l 488 627 l 716 1000 l 941 1000 l 618 503 l 618 499 l 490 355 l 484 355 l 256 0 l 26 0 z "},"Y":{"ha":895,"x_min":5,"x_max":890,"o":"m 350 0 l 350 399 l 5 1000 l 227 1000 l 342 789 l 444 587 l 450 587 l 553 789 l 668 1000 l 890 1000 l 545 399 l 545 0 l 350 0 z "},"Ý":{"ha":895,"x_min":5,"x_max":890,"o":"m 350 0 l 350 399 l 5 1000 l 227 1000 l 342 789 l 444 587 l 450 587 l 553 789 l 668 1000 l 890 1000 l 545 399 l 545 0 l 350 0 m 448 1049 l 369 1130 l 600 1334 l 689 1218 l 448 1049 z "},"Ŷ":{"ha":895,"x_min":5,"x_max":890,"o":"m 350 0 l 350 399 l 5 1000 l 227 1000 l 342 789 l 444 587 l 450 587 l 553 789 l 668 1000 l 890 1000 l 545 399 l 545 0 l 350 0 m 279 1051 l 194 1140 l 429 1304 l 468 1304 l 703 1140 l 620 1051 l 450 1178 l 446 1178 l 279 1051 z "},"Ÿ":{"ha":895,"x_min":5,"x_max":890,"o":"m 350 0 l 350 399 l 5 1000 l 227 1000 l 342 789 l 444 587 l 450 587 l 553 789 l 668 1000 l 890 1000 l 545 399 l 545 0 l 350 0 m 611 1056 q 533 1087 565 1056 q 500 1165 500 1119 q 533 1243 500 1211 q 611 1275 565 1275 q 687 1243 656 1275 q 718 1165 718 1211 q 687 1087 718 1119 q 611 1056 656 1056 m 288 1056 q 211 1087 243 1056 q 179 1165 179 1119 q 211 1243 179 1211 q 288 1275 243 1275 q 365 1243 333 1275 q 396 1165 396 1211 q 365 1087 396 1119 q 288 1056 333 1056 z "},"Ẏ":{"ha":895,"x_min":5,"x_max":890,"o":"m 350 0 l 350 399 l 5 1000 l 227 1000 l 342 789 l 444 587 l 450 587 l 553 789 l 668 1000 l 890 1000 l 545 399 l 545 0 l 350 0 m 453 1062 q 369 1097 404 1062 q 334 1181 334 1132 q 369 1266 334 1232 q 453 1300 404 1300 q 537 1266 503 1300 q 572 1181 572 1232 q 537 1097 572 1132 q 453 1062 503 1062 z "},"Ỵ":{"ha":895,"x_min":5,"x_max":890,"o":"m 350 0 l 350 399 l 5 1000 l 227 1000 l 342 789 l 444 587 l 450 587 l 553 789 l 668 1000 l 890 1000 l 545 399 l 545 0 l 350 0 m 453 -318 q 369 -283 404 -318 q 334 -199 334 -248 q 369 -114 334 -149 q 453 -80 404 -80 q 537 -114 503 -80 q 572 -199 572 -149 q 537 -283 572 -248 q 453 -318 503 -318 z "},"Ỳ":{"ha":895,"x_min":5,"x_max":890,"o":"m 350 0 l 350 399 l 5 1000 l 227 1000 l 342 789 l 444 587 l 450 587 l 553 789 l 668 1000 l 890 1000 l 545 399 l 545 0 l 350 0 m 448 1049 l 206 1218 l 296 1334 l 526 1130 l 448 1049 z "},"Ỷ":{"ha":895,"x_min":5,"x_max":890,"o":"m 350 0 l 350 399 l 5 1000 l 227 1000 l 342 789 l 444 587 l 450 587 l 553 789 l 668 1000 l 890 1000 l 545 399 l 545 0 l 350 0 m 471 1059 l 402 1127 q 441 1159 425 1140 q 457 1198 457 1177 q 438 1229 457 1218 q 387 1239 419 1239 q 352 1236 371 1239 q 315 1227 332 1234 l 315 1337 q 359 1349 330 1345 q 410 1353 387 1353 q 528 1319 485 1353 q 572 1222 572 1286 q 541 1121 572 1165 q 471 1059 509 1078 z "},"Ȳ":{"ha":895,"x_min":5,"x_max":890,"o":"m 350 0 l 350 399 l 5 1000 l 227 1000 l 342 789 l 444 587 l 450 587 l 553 789 l 668 1000 l 890 1000 l 545 399 l 545 0 l 350 0 m 183 1101 l 183 1227 l 711 1227 l 711 1101 l 183 1101 z "},"Ỹ":{"ha":895,"x_min":5,"x_max":890,"o":"m 350 0 l 350 399 l 5 1000 l 227 1000 l 342 789 l 444 587 l 450 587 l 553 789 l 668 1000 l 890 1000 l 545 399 l 545 0 l 350 0 m 198 1070 q 238 1210 198 1155 q 351 1262 279 1265 q 414 1252 389 1263 q 457 1224 439 1240 q 491 1196 475 1208 q 527 1184 507 1184 q 568 1206 555 1184 q 582 1262 582 1229 l 696 1262 q 657 1126 698 1181 q 541 1070 616 1072 q 480 1083 505 1071 q 436 1112 455 1096 q 401 1139 418 1127 q 363 1150 384 1151 q 326 1130 338 1152 q 313 1070 313 1108 l 198 1070 z "},"Z":{"ha":840,"x_min":50,"x_max":790,"o":"m 50 0 l 50 31 l 493 825 l 493 827 l 75 827 l 75 1000 l 780 1000 l 780 968 l 338 175 l 338 172 l 790 172 l 790 0 l 50 0 z "},"Ź":{"ha":840,"x_min":50,"x_max":790,"o":"m 50 0 l 50 31 l 493 825 l 493 827 l 75 827 l 75 1000 l 780 1000 l 780 968 l 338 175 l 338 172 l 790 172 l 790 0 l 50 0 m 424 1049 l 345 1130 l 576 1334 l 665 1218 l 424 1049 z "},"Ž":{"ha":840,"x_min":50,"x_max":790,"o":"m 50 0 l 50 31 l 493 825 l 493 827 l 75 827 l 75 1000 l 780 1000 l 780 968 l 338 175 l 338 172 l 790 172 l 790 0 l 50 0 m 254 1300 l 421 1173 l 425 1173 l 595 1300 l 677 1211 l 443 1047 l 404 1047 l 169 1211 l 254 1300 z "},"Ż":{"ha":840,"x_min":50,"x_max":790,"o":"m 50 0 l 50 31 l 493 825 l 493 827 l 75 827 l 75 1000 l 780 1000 l 780 968 l 338 175 l 338 172 l 790 172 l 790 0 l 50 0 m 429 1062 q 345 1097 380 1062 q 311 1181 311 1132 q 345 1266 311 1232 q 429 1300 380 1300 q 514 1266 479 1300 q 548 1181 548 1232 q 514 1097 548 1132 q 429 1062 479 1062 z "},"Ẓ":{"ha":840,"x_min":50,"x_max":790,"o":"m 50 0 l 50 31 l 493 825 l 493 827 l 75 827 l 75 1000 l 780 1000 l 780 968 l 338 175 l 338 172 l 790 172 l 790 0 l 50 0 m 425 -318 q 340 -283 375 -318 q 306 -199 306 -248 q 340 -114 306 -149 q 425 -80 375 -80 q 509 -114 475 -80 q 543 -199 543 -149 q 509 -283 543 -248 q 425 -318 475 -318 z "},"a":{"ha":758,"x_min":42,"x_max":720,"o":"m 289 -11 q 160 19 216 -11 q 73 98 104 48 q 42 212 42 149 q 78 327 42 277 q 184 405 113 376 q 358 433 254 433 l 519 433 l 519 309 l 359 309 q 258 288 294 309 q 221 220 221 266 q 235 173 221 192 q 274 143 249 153 q 331 133 299 133 q 399 146 360 133 q 466 188 437 159 q 495 263 495 216 l 495 338 l 483 374 l 483 468 q 476 512 483 492 q 454 548 469 532 q 414 572 439 564 q 354 581 389 581 q 281 573 319 581 q 209 553 243 566 q 151 525 175 541 l 90 670 q 162 702 117 686 q 263 727 207 717 q 380 736 319 736 q 536 709 479 736 q 620 641 593 682 q 654 553 647 599 q 662 471 662 508 l 662 244 q 670 182 662 203 q 704 153 679 161 l 720 148 l 652 -11 l 631 -3 q 544 50 571 20 q 513 110 517 80 l 548 87 l 488 87 l 529 106 q 440 24 506 60 q 289 -11 374 -11 z "},"á":{"ha":758,"x_min":42,"x_max":720,"o":"m 289 -11 q 160 19 216 -11 q 73 98 104 48 q 42 212 42 149 q 78 327 42 277 q 184 405 113 376 q 358 433 254 433 l 519 433 l 519 309 l 359 309 q 258 288 294 309 q 221 220 221 266 q 235 173 221 192 q 274 143 249 153 q 331 133 299 133 q 399 146 360 133 q 466 188 437 159 q 495 263 495 216 l 495 338 l 483 374 l 483 468 q 476 512 483 492 q 454 548 469 532 q 414 572 439 564 q 354 581 389 581 q 281 573 319 581 q 209 553 243 566 q 151 525 175 541 l 90 670 q 162 702 117 686 q 263 727 207 717 q 380 736 319 736 q 536 709 479 736 q 620 641 593 682 q 654 553 647 599 q 662 471 662 508 l 662 244 q 670 182 662 203 q 704 153 679 161 l 720 148 l 652 -11 l 631 -3 q 544 50 571 20 q 513 110 517 80 l 548 87 l 488 87 l 529 106 q 440 24 506 60 q 289 -11 374 -11 m 377 787 l 296 857 l 488 1108 l 600 1002 l 377 787 z "},"ă":{"ha":758,"x_min":42,"x_max":720,"o":"m 289 -11 q 160 19 216 -11 q 73 98 104 48 q 42 212 42 149 q 78 327 42 277 q 184 405 113 376 q 358 433 254 433 l 519 433 l 519 309 l 359 309 q 258 288 294 309 q 221 220 221 266 q 235 173 221 192 q 274 143 249 153 q 331 133 299 133 q 399 146 360 133 q 466 188 437 159 q 495 263 495 216 l 495 338 l 483 374 l 483 468 q 476 512 483 492 q 454 548 469 532 q 414 572 439 564 q 354 581 389 581 q 281 573 319 581 q 209 553 243 566 q 151 525 175 541 l 90 670 q 162 702 117 686 q 263 727 207 717 q 380 736 319 736 q 536 709 479 736 q 620 641 593 682 q 654 553 647 599 q 662 471 662 508 l 662 244 q 670 182 662 203 q 704 153 679 161 l 720 148 l 652 -11 l 631 -3 q 544 50 571 20 q 513 110 517 80 l 548 87 l 488 87 l 529 106 q 440 24 506 60 q 289 -11 374 -11 m 378 812 q 251 843 307 812 q 161 924 194 873 q 127 1038 127 975 l 244 1038 q 283 952 245 987 q 378 918 322 918 q 473 952 435 918 q 511 1038 511 987 l 627 1038 q 595 924 628 975 q 506 843 562 873 q 378 812 449 812 z "},"ắ":{"ha":760,"x_min":41,"x_max":721,"o":"m 286 -11 q 159 17 214 -11 q 73 95 104 45 q 41 208 41 144 q 78 328 41 277 q 183 407 115 379 q 346 435 252 435 l 516 435 l 516 313 l 378 313 q 263 289 302 313 q 223 219 223 265 q 237 173 223 193 q 276 143 252 154 q 329 133 300 133 q 399 146 361 133 q 464 186 437 159 q 491 256 491 214 l 491 342 l 485 376 l 485 471 q 479 509 485 489 q 458 545 473 528 q 418 573 444 562 q 357 583 393 583 q 288 576 325 583 q 215 555 251 568 q 153 523 180 541 l 87 669 q 162 702 118 686 q 260 728 206 718 q 374 739 314 739 q 522 715 465 739 q 610 653 579 692 q 651 567 640 614 q 663 473 663 520 l 663 243 q 672 183 663 205 q 705 153 682 162 l 721 148 l 654 -11 l 630 -3 q 543 49 576 15 q 507 116 511 83 l 550 89 l 469 89 l 523 106 q 435 24 500 59 q 286 -11 371 -11 m 355 979 l 287 1067 l 515 1259 l 598 1146 l 355 979 m 373 812 q 244 840 301 812 q 155 915 188 867 q 123 1022 123 962 l 237 1022 q 276 943 237 975 q 373 912 315 912 q 468 943 430 912 q 506 1022 506 975 l 621 1022 q 589 915 621 962 q 500 840 556 867 q 373 812 444 812 z "},"ặ":{"ha":758,"x_min":42,"x_max":720,"o":"m 289 -11 q 160 19 216 -11 q 73 98 104 48 q 42 212 42 149 q 78 327 42 277 q 184 405 113 376 q 358 433 254 433 l 519 433 l 519 309 l 359 309 q 258 288 294 309 q 221 220 221 266 q 235 173 221 192 q 274 143 249 153 q 331 133 299 133 q 399 146 360 133 q 466 188 437 159 q 495 263 495 216 l 495 338 l 483 374 l 483 468 q 476 512 483 492 q 454 548 469 532 q 414 572 439 564 q 354 581 389 581 q 281 573 319 581 q 209 553 243 566 q 151 525 175 541 l 90 670 q 162 702 117 686 q 263 727 207 717 q 380 736 319 736 q 536 709 479 736 q 620 641 593 682 q 654 553 647 599 q 662 471 662 508 l 662 244 q 670 182 662 203 q 704 153 679 161 l 720 148 l 652 -11 l 631 -3 q 544 50 571 20 q 513 110 517 80 l 548 87 l 488 87 l 529 106 q 440 24 506 60 q 289 -11 374 -11 m 366 -318 q 281 -283 316 -318 q 247 -199 247 -248 q 281 -114 247 -149 q 366 -80 316 -80 q 450 -114 416 -80 q 484 -199 484 -149 q 450 -283 484 -248 q 366 -318 416 -318 m 378 812 q 251 843 307 812 q 161 924 194 873 q 127 1038 127 975 l 244 1038 q 283 952 245 987 q 378 918 322 918 q 473 952 435 918 q 511 1038 511 987 l 627 1038 q 595 924 628 975 q 506 843 562 873 q 378 812 449 812 z "},"ằ":{"ha":758,"x_min":42,"x_max":720,"o":"m 289 -11 q 160 19 216 -11 q 73 98 104 48 q 42 212 42 149 q 78 327 42 277 q 184 405 113 376 q 358 433 254 433 l 519 433 l 519 309 l 359 309 q 258 288 294 309 q 221 220 221 266 q 235 173 221 192 q 274 143 249 153 q 331 133 299 133 q 399 146 360 133 q 466 188 437 159 q 495 263 495 216 l 495 338 l 483 374 l 483 468 q 476 512 483 492 q 454 548 469 532 q 414 572 439 564 q 354 581 389 581 q 281 573 319 581 q 209 553 243 566 q 151 525 175 541 l 90 670 q 162 702 117 686 q 263 727 207 717 q 380 736 319 736 q 536 709 479 736 q 620 641 593 682 q 654 553 647 599 q 662 471 662 508 l 662 244 q 670 182 662 203 q 704 153 679 161 l 720 148 l 652 -11 l 631 -3 q 544 50 571 20 q 513 110 517 80 l 548 87 l 488 87 l 529 106 q 440 24 506 60 q 289 -11 374 -11 m 395 979 l 153 1146 l 236 1259 l 464 1067 l 395 979 m 378 812 q 251 840 307 812 q 162 915 195 867 q 130 1022 130 962 l 245 1022 q 283 943 245 975 q 378 912 321 912 q 475 943 437 912 q 513 1022 513 975 l 629 1022 q 596 915 629 962 q 507 840 563 867 q 378 812 450 812 z "},"ẳ":{"ha":758,"x_min":42,"x_max":720,"o":"m 289 -11 q 160 19 216 -11 q 73 98 104 48 q 42 212 42 149 q 78 327 42 277 q 184 405 113 376 q 358 433 254 433 l 519 433 l 519 309 l 359 309 q 258 288 294 309 q 221 220 221 266 q 235 173 221 192 q 274 143 249 153 q 331 133 299 133 q 399 146 360 133 q 466 188 437 159 q 495 263 495 216 l 495 338 l 483 374 l 483 468 q 476 512 483 492 q 454 548 469 532 q 414 572 439 564 q 354 581 389 581 q 281 573 319 581 q 209 553 243 566 q 151 525 175 541 l 90 670 q 162 702 117 686 q 263 727 207 717 q 380 736 319 736 q 536 709 479 736 q 620 641 593 682 q 654 553 647 599 q 662 471 662 508 l 662 244 q 670 182 662 203 q 704 153 679 161 l 720 148 l 652 -11 l 631 -3 q 544 50 571 20 q 513 110 517 80 l 548 87 l 488 87 l 529 106 q 440 24 506 60 q 289 -11 374 -11 m 378 812 q 251 840 307 812 q 162 915 195 867 q 130 1022 130 962 l 245 1022 q 283 943 245 975 q 378 912 321 912 q 475 943 437 912 q 513 1022 513 975 l 629 1022 q 596 915 629 962 q 507 840 563 867 q 378 812 450 812 m 376 964 l 308 1032 q 347 1064 330 1045 q 363 1103 363 1083 q 344 1134 363 1124 q 292 1145 325 1145 q 257 1142 277 1145 q 221 1132 238 1139 l 221 1243 q 265 1254 237 1250 q 317 1258 294 1258 q 434 1224 391 1258 q 478 1127 478 1191 q 447 1027 478 1071 q 376 964 416 983 z "},"ẵ":{"ha":758,"x_min":42,"x_max":720,"o":"m 289 -11 q 160 19 216 -11 q 73 98 104 48 q 42 212 42 149 q 78 327 42 277 q 184 405 113 376 q 358 433 254 433 l 519 433 l 519 309 l 359 309 q 258 288 294 309 q 221 220 221 266 q 235 173 221 192 q 274 143 249 153 q 331 133 299 133 q 399 146 360 133 q 466 188 437 159 q 495 263 495 216 l 495 338 l 483 374 l 483 468 q 476 512 483 492 q 454 548 469 532 q 414 572 439 564 q 354 581 389 581 q 281 573 319 581 q 209 553 243 566 q 151 525 175 541 l 90 670 q 162 702 117 686 q 263 727 207 717 q 380 736 319 736 q 536 709 479 736 q 620 641 593 682 q 654 553 647 599 q 662 471 662 508 l 662 244 q 670 182 662 203 q 704 153 679 161 l 720 148 l 652 -11 l 631 -3 q 544 50 571 20 q 513 110 517 80 l 548 87 l 488 87 l 529 106 q 440 24 506 60 q 289 -11 374 -11 m 129 1067 q 170 1206 129 1153 q 282 1259 210 1259 q 345 1248 320 1259 q 389 1221 370 1236 q 423 1194 407 1205 q 459 1182 439 1182 q 500 1203 487 1182 q 511 1259 513 1223 l 627 1259 q 610 1162 629 1205 q 557 1093 592 1118 q 472 1067 522 1067 q 412 1079 436 1067 q 369 1106 387 1090 q 333 1134 350 1122 q 296 1146 316 1146 q 257 1126 270 1146 q 243 1067 244 1107 l 129 1067 m 377 812 q 250 840 306 812 q 161 915 193 867 q 129 1022 129 962 l 243 1022 q 281 943 243 975 q 377 912 319 912 q 474 943 435 912 q 512 1022 512 975 l 627 1022 q 594 915 627 962 q 505 840 562 867 q 377 812 449 812 z "},"ǎ":{"ha":758,"x_min":41,"x_max":721,"o":"m 286 -11 q 159 17 214 -11 q 73 95 104 45 q 41 208 41 144 q 78 328 41 277 q 183 407 115 379 q 346 435 252 435 l 516 435 l 516 313 l 378 313 q 263 289 302 313 q 223 219 223 265 q 237 173 223 193 q 276 143 252 154 q 329 133 300 133 q 399 146 361 133 q 464 186 437 159 q 491 256 491 214 l 491 342 l 485 376 l 485 471 q 479 509 485 489 q 458 545 473 528 q 418 573 444 562 q 357 583 393 583 q 288 576 325 583 q 215 555 251 568 q 153 523 180 541 l 87 669 q 162 702 118 686 q 260 728 206 718 q 374 739 314 739 q 522 715 465 739 q 610 653 579 692 q 651 567 640 614 q 663 473 663 520 l 663 243 q 672 183 663 205 q 705 153 682 162 l 721 148 l 654 -11 l 630 -3 q 543 49 576 15 q 507 116 511 83 l 550 89 l 469 89 l 523 106 q 435 24 500 59 q 286 -11 371 -11 m 199 1084 l 376 925 l 381 925 l 557 1084 l 631 996 l 398 791 l 359 791 l 125 996 l 199 1084 z "},"â":{"ha":758,"x_min":42,"x_max":720,"o":"m 289 -11 q 160 19 216 -11 q 73 98 104 48 q 42 212 42 149 q 78 327 42 277 q 184 405 113 376 q 358 433 254 433 l 519 433 l 519 309 l 359 309 q 258 288 294 309 q 221 220 221 266 q 235 173 221 192 q 274 143 249 153 q 331 133 299 133 q 399 146 360 133 q 466 188 437 159 q 495 263 495 216 l 495 338 l 483 374 l 483 468 q 476 512 483 492 q 454 548 469 532 q 414 572 439 564 q 354 581 389 581 q 281 573 319 581 q 209 553 243 566 q 151 525 175 541 l 90 670 q 162 702 117 686 q 263 727 207 717 q 380 736 319 736 q 536 709 479 736 q 620 641 593 682 q 654 553 647 599 q 662 471 662 508 l 662 244 q 670 182 662 203 q 704 153 679 161 l 720 148 l 652 -11 l 631 -3 q 544 50 571 20 q 513 110 517 80 l 548 87 l 488 87 l 529 106 q 440 24 506 60 q 289 -11 374 -11 m 199 784 l 126 872 l 359 1076 l 398 1076 l 631 872 l 557 784 l 381 942 l 376 942 l 199 784 z "},"ấ":{"ha":758,"x_min":42,"x_max":813,"o":"m 289 -11 q 160 19 216 -11 q 73 98 104 48 q 42 212 42 149 q 78 327 42 277 q 184 405 113 376 q 358 433 254 433 l 519 433 l 519 309 l 359 309 q 258 288 294 309 q 221 220 221 266 q 235 173 221 192 q 274 143 249 153 q 331 133 299 133 q 399 146 360 133 q 466 188 437 159 q 495 263 495 216 l 495 338 l 483 374 l 483 468 q 476 512 483 492 q 454 548 469 532 q 414 572 439 564 q 354 581 389 581 q 281 573 319 581 q 209 553 243 566 q 151 525 175 541 l 90 670 q 162 702 117 686 q 263 727 207 717 q 380 736 319 736 q 536 709 479 736 q 620 641 593 682 q 654 553 647 599 q 662 471 662 508 l 662 244 q 670 182 662 203 q 704 153 679 161 l 720 148 l 652 -11 l 631 -3 q 544 50 571 20 q 513 110 517 80 l 548 87 l 488 87 l 529 106 q 440 24 506 60 q 289 -11 374 -11 m 591 979 l 507 1039 l 723 1257 l 813 1139 l 591 979 m 210 795 l 125 882 l 360 1045 l 399 1045 l 633 882 l 551 795 l 380 920 l 376 920 l 210 795 z "},"ậ":{"ha":758,"x_min":42,"x_max":720,"o":"m 289 -11 q 160 19 216 -11 q 73 98 104 48 q 42 212 42 149 q 78 327 42 277 q 184 405 113 376 q 358 433 254 433 l 519 433 l 519 309 l 359 309 q 258 288 294 309 q 221 220 221 266 q 235 173 221 192 q 274 143 249 153 q 331 133 299 133 q 399 146 360 133 q 466 188 437 159 q 495 263 495 216 l 495 338 l 483 374 l 483 468 q 476 512 483 492 q 454 548 469 532 q 414 572 439 564 q 354 581 389 581 q 281 573 319 581 q 209 553 243 566 q 151 525 175 541 l 90 670 q 162 702 117 686 q 263 727 207 717 q 380 736 319 736 q 536 709 479 736 q 620 641 593 682 q 654 553 647 599 q 662 471 662 508 l 662 244 q 670 182 662 203 q 704 153 679 161 l 720 148 l 652 -11 l 631 -3 q 544 50 571 20 q 513 110 517 80 l 548 87 l 488 87 l 529 106 q 440 24 506 60 q 289 -11 374 -11 m 366 -318 q 281 -283 316 -318 q 247 -199 247 -248 q 281 -114 247 -149 q 366 -80 316 -80 q 450 -114 416 -80 q 484 -199 484 -149 q 450 -283 484 -248 q 366 -318 416 -318 m 199 784 l 126 872 l 359 1076 l 398 1076 l 631 872 l 557 784 l 381 942 l 376 942 l 199 784 z "},"ầ":{"ha":760,"x_min":-62,"x_max":721,"o":"m 286 -11 q 159 17 214 -11 q 73 95 104 45 q 41 208 41 144 q 78 328 41 277 q 183 407 115 379 q 346 435 252 435 l 516 435 l 516 313 l 378 313 q 263 289 302 313 q 223 219 223 265 q 237 173 223 193 q 276 143 252 154 q 329 133 300 133 q 399 146 361 133 q 464 186 437 159 q 491 256 491 214 l 491 342 l 485 376 l 485 471 q 479 509 485 489 q 458 545 473 528 q 418 573 444 562 q 357 583 393 583 q 288 576 325 583 q 215 555 251 568 q 153 523 180 541 l 87 669 q 162 702 118 686 q 260 728 206 718 q 374 739 314 739 q 522 715 465 739 q 610 653 579 692 q 651 567 640 614 q 663 473 663 520 l 663 243 q 672 183 663 205 q 705 153 682 162 l 721 148 l 654 -11 l 630 -3 q 543 49 576 15 q 507 116 511 83 l 550 89 l 469 89 l 523 106 q 435 24 500 59 q 286 -11 371 -11 m 160 979 l -62 1139 l 28 1257 l 243 1039 l 160 979 m 541 795 l 374 920 l 370 920 l 200 795 l 117 882 l 352 1045 l 391 1045 l 626 882 l 541 795 z "},"ẩ":{"ha":758,"x_min":42,"x_max":720,"o":"m 289 -11 q 160 19 216 -11 q 73 98 104 48 q 42 212 42 149 q 78 327 42 277 q 184 405 113 376 q 358 433 254 433 l 519 433 l 519 309 l 359 309 q 258 288 294 309 q 221 220 221 266 q 235 173 221 192 q 274 143 249 153 q 331 133 299 133 q 399 146 360 133 q 466 188 437 159 q 495 263 495 216 l 495 338 l 483 374 l 483 468 q 476 512 483 492 q 454 548 469 532 q 414 572 439 564 q 354 581 389 581 q 281 573 319 581 q 209 553 243 566 q 151 525 175 541 l 90 670 q 162 702 117 686 q 263 727 207 717 q 380 736 319 736 q 536 709 479 736 q 620 641 593 682 q 654 553 647 599 q 662 471 662 508 l 662 244 q 670 182 662 203 q 704 153 679 161 l 720 148 l 652 -11 l 631 -3 q 544 50 571 20 q 513 110 517 80 l 548 87 l 488 87 l 529 106 q 440 24 506 60 q 289 -11 374 -11 m 578 980 l 509 1031 q 545 1064 530 1047 q 559 1099 559 1082 q 542 1133 559 1121 q 490 1145 525 1145 q 454 1142 472 1145 q 416 1132 437 1139 l 416 1244 q 461 1255 432 1251 q 515 1258 491 1258 q 630 1226 587 1258 q 673 1126 673 1194 q 658 1063 673 1092 q 621 1014 642 1035 q 578 980 599 992 m 208 795 l 123 882 l 359 1045 l 397 1045 l 632 882 l 549 795 l 379 920 l 375 920 l 208 795 z "},"ẫ":{"ha":758,"x_min":42,"x_max":720,"o":"m 289 -11 q 160 19 216 -11 q 73 98 104 48 q 42 212 42 149 q 78 327 42 277 q 184 405 113 376 q 358 433 254 433 l 519 433 l 519 309 l 359 309 q 258 288 294 309 q 221 220 221 266 q 235 173 221 192 q 274 143 249 153 q 331 133 299 133 q 399 146 360 133 q 466 188 437 159 q 495 263 495 216 l 495 338 l 483 374 l 483 468 q 476 512 483 492 q 454 548 469 532 q 414 572 439 564 q 354 581 389 581 q 281 573 319 581 q 209 553 243 566 q 151 525 175 541 l 90 670 q 162 702 117 686 q 263 727 207 717 q 380 736 319 736 q 536 709 479 736 q 620 641 593 682 q 654 553 647 599 q 662 471 662 508 l 662 244 q 670 182 662 203 q 704 153 679 161 l 720 148 l 652 -11 l 631 -3 q 544 50 571 20 q 513 110 517 80 l 548 87 l 488 87 l 529 106 q 440 24 506 60 q 289 -11 374 -11 m 129 1067 q 169 1206 127 1153 q 282 1259 210 1259 q 345 1248 320 1259 q 388 1221 370 1236 q 422 1194 406 1205 q 459 1182 439 1182 q 498 1203 485 1182 q 511 1259 511 1223 l 628 1259 q 613 1162 629 1205 q 566 1093 598 1118 q 486 1067 534 1067 q 424 1079 449 1067 q 381 1106 399 1090 q 346 1134 363 1122 q 309 1146 330 1146 q 263 1126 282 1146 q 243 1067 245 1107 l 129 1067 m 208 795 l 123 882 l 359 1045 l 397 1045 l 632 882 l 549 795 l 379 920 l 375 920 l 208 795 z "},"ȁ":{"ha":758,"x_min":42,"x_max":720,"o":"m 289 -11 q 160 19 216 -11 q 73 98 104 48 q 42 212 42 149 q 78 327 42 277 q 184 405 113 376 q 358 433 254 433 l 519 433 l 519 309 l 359 309 q 258 288 294 309 q 221 220 221 266 q 235 173 221 192 q 274 143 249 153 q 331 133 299 133 q 399 146 360 133 q 466 188 437 159 q 495 263 495 216 l 495 338 l 483 374 l 483 468 q 476 512 483 492 q 454 548 469 532 q 414 572 439 564 q 354 581 389 581 q 281 573 319 581 q 209 553 243 566 q 151 525 175 541 l 90 670 q 162 702 117 686 q 263 727 207 717 q 380 736 319 736 q 536 709 479 736 q 620 641 593 682 q 654 553 647 599 q 662 471 662 508 l 662 244 q 670 182 662 203 q 704 153 679 161 l 720 148 l 652 -11 l 631 -3 q 544 50 571 20 q 513 110 517 80 l 548 87 l 488 87 l 529 106 q 440 24 506 60 q 289 -11 374 -11 m 484 797 l 328 1032 l 456 1094 l 583 821 l 484 797 m 244 797 l 87 1032 l 212 1094 l 342 821 l 244 797 z "},"ä":{"ha":758,"x_min":42,"x_max":720,"o":"m 289 -11 q 160 19 216 -11 q 73 98 104 48 q 42 212 42 149 q 78 327 42 277 q 184 405 113 376 q 358 433 254 433 l 519 433 l 519 309 l 359 309 q 258 288 294 309 q 221 220 221 266 q 235 173 221 192 q 274 143 249 153 q 331 133 299 133 q 399 146 360 133 q 466 188 437 159 q 495 263 495 216 l 495 338 l 483 374 l 483 468 q 476 512 483 492 q 454 548 469 532 q 414 572 439 564 q 354 581 389 581 q 281 573 319 581 q 209 553 243 566 q 151 525 175 541 l 90 670 q 162 702 117 686 q 263 727 207 717 q 380 736 319 736 q 536 709 479 736 q 620 641 593 682 q 654 553 647 599 q 662 471 662 508 l 662 244 q 670 182 662 203 q 704 153 679 161 l 720 148 l 652 -11 l 631 -3 q 544 50 571 20 q 513 110 517 80 l 548 87 l 488 87 l 529 106 q 440 24 506 60 q 289 -11 374 -11 m 534 829 q 457 861 489 829 q 425 939 425 893 q 457 1017 425 985 q 534 1048 489 1048 q 612 1017 581 1048 q 644 939 644 985 q 612 861 644 893 q 534 829 581 829 m 222 829 q 144 861 176 829 q 113 939 113 893 q 144 1017 113 985 q 222 1048 176 1048 q 300 1017 269 1048 q 331 939 331 985 q 300 861 331 893 q 222 829 269 829 z "},"ȧ":{"ha":758,"x_min":42,"x_max":720,"o":"m 289 -11 q 160 19 216 -11 q 73 98 104 48 q 42 212 42 149 q 78 327 42 277 q 184 405 113 376 q 358 433 254 433 l 519 433 l 519 309 l 359 309 q 258 288 294 309 q 221 220 221 266 q 235 173 221 192 q 274 143 249 153 q 331 133 299 133 q 399 146 360 133 q 466 188 437 159 q 495 263 495 216 l 495 338 l 483 374 l 483 468 q 476 512 483 492 q 454 548 469 532 q 414 572 439 564 q 354 581 389 581 q 281 573 319 581 q 209 553 243 566 q 151 525 175 541 l 90 670 q 162 702 117 686 q 263 727 207 717 q 380 736 319 736 q 536 709 479 736 q 620 641 593 682 q 654 553 647 599 q 662 471 662 508 l 662 244 q 670 182 662 203 q 704 153 679 161 l 720 148 l 652 -11 l 631 -3 q 544 50 571 20 q 513 110 517 80 l 548 87 l 488 87 l 529 106 q 440 24 506 60 q 289 -11 374 -11 m 378 819 q 294 853 329 819 q 260 938 260 888 q 294 1022 260 988 q 378 1057 329 1057 q 463 1022 429 1057 q 497 938 497 988 q 463 853 497 888 q 378 819 429 819 z "},"ạ":{"ha":758,"x_min":42,"x_max":720,"o":"m 289 -11 q 160 19 216 -11 q 73 98 104 48 q 42 212 42 149 q 78 327 42 277 q 184 405 113 376 q 358 433 254 433 l 519 433 l 519 309 l 359 309 q 258 288 294 309 q 221 220 221 266 q 235 173 221 192 q 274 143 249 153 q 331 133 299 133 q 399 146 360 133 q 466 188 437 159 q 495 263 495 216 l 495 338 l 483 374 l 483 468 q 476 512 483 492 q 454 548 469 532 q 414 572 439 564 q 354 581 389 581 q 281 573 319 581 q 209 553 243 566 q 151 525 175 541 l 90 670 q 162 702 117 686 q 263 727 207 717 q 380 736 319 736 q 536 709 479 736 q 620 641 593 682 q 654 553 647 599 q 662 471 662 508 l 662 244 q 670 182 662 203 q 704 153 679 161 l 720 148 l 652 -11 l 631 -3 q 544 50 571 20 q 513 110 517 80 l 548 87 l 488 87 l 529 106 q 440 24 506 60 q 289 -11 374 -11 m 366 -318 q 281 -283 316 -318 q 247 -199 247 -248 q 281 -114 247 -149 q 366 -80 316 -80 q 450 -114 416 -80 q 484 -199 484 -149 q 450 -283 484 -248 q 366 -318 416 -318 z "},"à":{"ha":758,"x_min":42,"x_max":720,"o":"m 289 -11 q 160 19 216 -11 q 73 98 104 48 q 42 212 42 149 q 78 327 42 277 q 184 405 113 376 q 358 433 254 433 l 519 433 l 519 309 l 359 309 q 258 288 294 309 q 221 220 221 266 q 235 173 221 192 q 274 143 249 153 q 331 133 299 133 q 399 146 360 133 q 466 188 437 159 q 495 263 495 216 l 495 338 l 483 374 l 483 468 q 476 512 483 492 q 454 548 469 532 q 414 572 439 564 q 354 581 389 581 q 281 573 319 581 q 209 553 243 566 q 151 525 175 541 l 90 670 q 162 702 117 686 q 263 727 207 717 q 380 736 319 736 q 536 709 479 736 q 620 641 593 682 q 654 553 647 599 q 662 471 662 508 l 662 244 q 670 182 662 203 q 704 153 679 161 l 720 148 l 652 -11 l 631 -3 q 544 50 571 20 q 513 110 517 80 l 548 87 l 488 87 l 529 106 q 440 24 506 60 q 289 -11 374 -11 m 382 788 l 158 1000 l 275 1109 l 463 857 l 382 788 z "},"ả":{"ha":758,"x_min":42,"x_max":720,"o":"m 289 -11 q 160 19 216 -11 q 73 98 104 48 q 42 212 42 149 q 78 327 42 277 q 184 405 113 376 q 358 433 254 433 l 519 433 l 519 309 l 359 309 q 258 288 294 309 q 221 220 221 266 q 235 173 221 192 q 274 143 249 153 q 331 133 299 133 q 399 146 360 133 q 466 188 437 159 q 495 263 495 216 l 495 338 l 483 374 l 483 468 q 476 512 483 492 q 454 548 469 532 q 414 572 439 564 q 354 581 389 581 q 281 573 319 581 q 209 553 243 566 q 151 525 175 541 l 90 670 q 162 702 117 686 q 263 727 207 717 q 380 736 319 736 q 536 709 479 736 q 620 641 593 682 q 654 553 647 599 q 662 471 662 508 l 662 244 q 670 182 662 203 q 704 153 679 161 l 720 148 l 652 -11 l 631 -3 q 544 50 571 20 q 513 110 517 80 l 548 87 l 488 87 l 529 106 q 440 24 506 60 q 289 -11 374 -11 m 401 786 l 333 854 q 372 885 355 867 q 388 924 388 904 q 369 955 388 945 q 317 966 350 966 q 282 963 302 966 q 246 954 263 960 l 246 1064 q 290 1076 261 1072 q 341 1080 318 1080 q 459 1046 416 1080 q 503 949 503 1013 q 471 848 503 892 q 401 786 440 804 z "},"ȃ":{"ha":758,"x_min":41,"x_max":721,"o":"m 286 -11 q 159 17 214 -11 q 73 95 104 45 q 41 208 41 144 q 78 328 41 277 q 183 407 115 379 q 346 435 252 435 l 516 435 l 516 313 l 378 313 q 263 289 302 313 q 223 219 223 265 q 237 173 223 193 q 276 143 252 154 q 329 133 300 133 q 399 146 361 133 q 464 186 437 159 q 491 256 491 214 l 491 342 l 485 376 l 485 471 q 479 509 485 489 q 458 545 473 528 q 418 573 444 562 q 357 583 393 583 q 288 576 325 583 q 215 555 251 568 q 153 523 180 541 l 87 669 q 162 702 118 686 q 260 728 206 718 q 374 739 314 739 q 522 715 465 739 q 610 653 579 692 q 651 567 640 614 q 663 473 663 520 l 663 243 q 672 183 663 205 q 705 153 682 162 l 721 148 l 654 -11 l 630 -3 q 543 49 576 15 q 507 116 511 83 l 550 89 l 469 89 l 523 106 q 435 24 500 59 q 286 -11 371 -11 m 378 1043 q 506 1013 449 1043 q 595 932 562 983 q 628 817 628 880 l 511 817 q 473 903 511 868 q 378 938 435 938 q 283 903 322 938 q 244 817 245 868 l 127 817 q 161 932 127 880 q 251 1013 194 983 q 378 1043 307 1043 z "},"ā":{"ha":758,"x_min":42,"x_max":720,"o":"m 289 -11 q 160 19 216 -11 q 73 98 104 48 q 42 212 42 149 q 78 327 42 277 q 184 405 113 376 q 358 433 254 433 l 519 433 l 519 309 l 359 309 q 258 288 294 309 q 221 220 221 266 q 235 173 221 192 q 274 143 249 153 q 331 133 299 133 q 399 146 360 133 q 466 188 437 159 q 495 263 495 216 l 495 338 l 483 374 l 483 468 q 476 512 483 492 q 454 548 469 532 q 414 572 439 564 q 354 581 389 581 q 281 573 319 581 q 209 553 243 566 q 151 525 175 541 l 90 670 q 162 702 117 686 q 263 727 207 717 q 380 736 319 736 q 536 709 479 736 q 620 641 593 682 q 654 553 647 599 q 662 471 662 508 l 662 244 q 670 182 662 203 q 704 153 679 161 l 720 148 l 652 -11 l 631 -3 q 544 50 571 20 q 513 110 517 80 l 548 87 l 488 87 l 529 106 q 440 24 506 60 q 289 -11 374 -11 m 109 857 l 109 971 l 647 971 l 647 857 l 109 857 z "},"ą":{"ha":758,"x_min":41,"x_max":721,"o":"m 618 -296 q 511 -259 552 -296 q 470 -165 471 -221 q 491 -84 470 -122 q 537 -15 511 -45 q 581 37 564 16 l 654 -11 q 608 -75 625 -43 q 590 -132 590 -106 q 608 -172 590 -161 q 648 -184 626 -184 q 684 -179 666 -184 q 718 -167 701 -174 l 718 -278 q 669 -292 698 -288 q 618 -296 640 -296 m 286 -11 q 159 17 214 -11 q 73 95 104 45 q 41 208 41 144 q 78 328 41 277 q 183 407 115 379 q 346 435 252 435 l 516 435 l 516 313 l 378 313 q 263 289 302 313 q 223 219 223 265 q 237 173 223 193 q 276 143 252 154 q 329 133 300 133 q 399 146 361 133 q 464 186 437 159 q 491 256 491 214 l 491 342 l 485 376 l 485 471 q 479 509 485 489 q 458 545 473 528 q 418 573 444 562 q 357 583 393 583 q 288 576 325 583 q 215 555 251 568 q 153 523 180 541 l 87 669 q 162 702 118 686 q 260 728 206 718 q 374 739 314 739 q 522 715 465 739 q 610 653 579 692 q 651 567 640 614 q 663 473 663 520 l 663 243 q 672 183 663 205 q 705 153 682 162 l 721 148 l 654 -11 l 630 -3 q 543 49 576 15 q 507 116 511 83 l 550 89 l 469 89 l 523 106 q 435 24 500 59 q 286 -11 371 -11 z "},"å":{"ha":758,"x_min":42,"x_max":720,"o":"m 289 -11 q 160 19 216 -11 q 73 98 104 48 q 42 212 42 149 q 78 327 42 277 q 184 405 113 376 q 358 433 254 433 l 519 433 l 519 309 l 359 309 q 258 288 294 309 q 221 220 221 266 q 235 173 221 192 q 274 143 249 153 q 331 133 299 133 q 399 146 360 133 q 466 188 437 159 q 495 263 495 216 l 495 338 l 483 374 l 483 468 q 476 512 483 492 q 454 548 469 532 q 414 572 439 564 q 354 581 389 581 q 281 573 319 581 q 209 553 243 566 q 151 525 175 541 l 90 670 q 162 702 117 686 q 263 727 207 717 q 380 736 319 736 q 536 709 479 736 q 620 641 593 682 q 654 553 647 599 q 662 471 662 508 l 662 244 q 670 182 662 203 q 704 153 679 161 l 720 148 l 652 -11 l 631 -3 q 544 50 571 20 q 513 110 517 80 l 548 87 l 488 87 l 529 106 q 440 24 506 60 q 289 -11 374 -11 m 378 817 q 262 861 309 817 q 216 970 216 906 q 262 1081 216 1038 q 378 1125 309 1125 q 494 1081 448 1125 q 541 970 541 1038 q 494 861 541 906 q 378 817 448 817 m 378 903 q 427 923 408 903 q 445 971 445 943 q 427 1019 445 1000 q 378 1038 408 1038 q 331 1020 351 1038 q 311 970 311 1001 q 331 923 311 943 q 378 903 351 903 z "},"ǻ":{"ha":758,"x_min":41,"x_max":721,"o":"m 378 817 q 262 861 309 817 q 216 970 216 906 q 262 1081 216 1038 q 378 1125 309 1125 q 494 1081 448 1125 q 541 970 541 1038 q 494 861 541 906 q 378 817 448 817 m 378 903 q 427 923 408 903 q 446 971 446 943 q 427 1019 446 1000 q 378 1038 408 1038 q 331 1020 351 1038 q 311 970 311 1001 q 331 923 311 943 q 378 903 351 903 m 401 1158 l 322 1238 l 553 1442 l 643 1326 l 401 1158 m 286 -11 q 159 17 214 -11 q 73 95 104 45 q 41 208 41 144 q 78 328 41 277 q 183 407 115 379 q 346 435 252 435 l 516 435 l 516 313 l 378 313 q 263 289 302 313 q 223 219 223 265 q 237 173 223 193 q 276 143 252 154 q 329 133 300 133 q 399 146 361 133 q 464 186 437 159 q 491 256 491 214 l 491 342 l 485 376 l 485 471 q 479 509 485 489 q 458 545 473 528 q 418 573 444 562 q 357 583 393 583 q 288 576 325 583 q 215 555 251 568 q 153 523 180 541 l 87 669 q 162 702 118 686 q 260 728 206 718 q 374 739 314 739 q 522 715 465 739 q 610 653 579 692 q 651 567 640 614 q 663 473 663 520 l 663 243 q 672 183 663 205 q 705 153 682 162 l 721 148 l 654 -11 l 630 -3 q 543 49 576 15 q 507 116 511 83 l 550 89 l 469 89 l 523 106 q 435 24 500 59 q 286 -11 371 -11 z "},"ã":{"ha":758,"x_min":42,"x_max":720,"o":"m 289 -11 q 160 19 216 -11 q 73 98 104 48 q 42 212 42 149 q 78 327 42 277 q 184 405 113 376 q 358 433 254 433 l 519 433 l 519 309 l 359 309 q 258 288 294 309 q 221 220 221 266 q 235 173 221 192 q 274 143 249 153 q 331 133 299 133 q 399 146 360 133 q 466 188 437 159 q 495 263 495 216 l 495 338 l 483 374 l 483 468 q 476 512 483 492 q 454 548 469 532 q 414 572 439 564 q 354 581 389 581 q 281 573 319 581 q 209 553 243 566 q 151 525 175 541 l 90 670 q 162 702 117 686 q 263 727 207 717 q 380 736 319 736 q 536 709 479 736 q 620 641 593 682 q 654 553 647 599 q 662 471 662 508 l 662 244 q 670 182 662 203 q 704 153 679 161 l 720 148 l 652 -11 l 631 -3 q 544 50 571 20 q 513 110 517 80 l 548 87 l 488 87 l 529 106 q 440 24 506 60 q 289 -11 374 -11 m 121 817 q 165 971 121 918 q 279 1023 210 1023 q 345 1009 318 1023 q 390 978 371 996 q 426 946 409 960 q 463 932 443 932 q 503 958 490 932 q 516 1023 516 983 l 635 1023 q 591 871 636 925 q 477 817 547 817 q 413 831 439 817 q 368 863 387 845 q 331 896 349 882 q 292 909 314 909 q 254 884 267 909 q 241 817 241 858 l 121 817 z "},"æ":{"ha":1171,"x_min":41,"x_max":1129,"o":"m 305 -11 q 165 19 224 -11 q 74 100 106 49 q 41 214 41 151 q 122 370 41 313 q 337 427 202 427 l 515 427 l 515 308 l 366 308 q 259 285 295 308 q 222 218 222 262 q 254 155 222 178 q 335 132 285 132 q 414 150 378 132 q 471 200 450 168 q 492 275 492 232 l 492 420 q 491 479 492 449 q 478 533 490 509 q 439 572 467 557 q 357 587 412 587 q 238 569 297 587 q 147 526 179 550 l 86 669 q 199 716 125 694 q 361 737 273 737 q 537 698 479 737 q 616 600 595 659 l 563 600 q 624 675 582 644 q 718 721 665 705 q 822 737 770 737 q 935 717 880 737 q 1034 654 989 697 q 1103 546 1078 612 q 1129 387 1129 479 q 1127 345 1129 364 q 1122 308 1126 326 l 621 308 l 614 427 l 966 427 q 948 510 967 473 q 895 570 930 547 q 812 592 860 592 q 729 570 769 592 q 662 499 688 548 q 635 370 635 450 q 655 258 635 302 q 705 187 674 213 q 771 150 735 161 q 840 138 807 138 q 931 154 888 138 q 1010 199 975 170 l 1069 57 q 968 8 1033 28 q 837 -11 903 -11 q 659 36 730 -11 q 546 159 588 82 l 592 159 q 545 84 582 123 q 447 17 508 44 q 305 -11 386 -11 z "},"ǽ":{"ha":1171,"x_min":41,"x_max":1129,"o":"m 305 -11 q 165 19 224 -11 q 74 100 106 49 q 41 214 41 151 q 122 370 41 313 q 337 427 202 427 l 515 427 l 515 308 l 366 308 q 259 285 295 308 q 222 218 222 262 q 254 155 222 178 q 335 132 285 132 q 414 150 378 132 q 471 200 450 168 q 492 275 492 232 l 492 420 q 491 479 492 449 q 478 533 490 509 q 439 572 467 557 q 357 587 412 587 q 238 569 297 587 q 147 526 179 550 l 86 669 q 199 716 125 694 q 361 737 273 737 q 537 698 479 737 q 616 600 595 659 l 563 600 q 624 675 582 644 q 718 721 665 705 q 822 737 770 737 q 935 717 880 737 q 1034 654 989 697 q 1103 546 1078 612 q 1129 387 1129 479 q 1127 345 1129 364 q 1122 308 1126 326 l 621 308 l 614 427 l 966 427 q 948 510 967 473 q 895 570 930 547 q 812 592 860 592 q 729 570 769 592 q 662 499 688 548 q 635 370 635 450 q 655 258 635 302 q 705 187 674 213 q 771 150 735 161 q 840 138 807 138 q 931 154 888 138 q 1010 199 975 170 l 1069 57 q 968 8 1033 28 q 837 -11 903 -11 q 659 36 730 -11 q 546 159 588 82 l 592 159 q 545 84 582 123 q 447 17 508 44 q 305 -11 386 -11 m 583 787 l 502 857 l 694 1108 l 805 1002 l 583 787 z "},"b":{"ha":835,"x_min":75,"x_max":797,"o":"m 75 0 l 75 1044 l 262 1044 l 262 656 l 277 656 l 247 553 l 247 159 l 281 86 l 255 86 l 255 0 l 75 0 m 476 -11 q 312 40 385 -11 q 198 177 240 90 q 155 368 155 263 q 196 557 155 473 q 308 690 237 641 q 471 739 379 739 q 630 695 555 739 q 751 568 705 652 q 795 362 797 484 q 770 201 797 271 q 697 84 743 131 q 594 13 652 37 q 476 -11 536 -11 m 434 148 q 527 176 487 149 q 590 252 567 203 q 612 366 612 301 q 589 479 612 431 q 525 553 566 527 q 431 579 484 580 q 342 554 382 580 q 278 480 302 528 q 254 366 255 433 q 278 252 255 301 q 342 176 302 203 q 434 148 382 149 z "},"c":{"ha":665,"x_min":39,"x_max":643,"o":"m 422 -8 q 273 20 342 -8 q 151 100 203 49 q 68 219 98 151 q 39 367 39 287 q 68 514 39 446 q 150 632 98 581 q 270 710 202 682 q 416 738 338 738 q 537 720 478 738 q 642 670 596 702 l 572 518 q 529 548 553 535 q 477 568 505 561 q 420 574 450 574 q 315 547 361 574 q 245 472 270 519 q 220 366 220 425 q 245 259 220 307 q 317 183 271 212 q 420 155 362 155 q 511 172 468 155 q 575 210 553 189 l 643 54 q 546 10 604 28 q 422 -8 489 -8 z "},"ć":{"ha":665,"x_min":39,"x_max":643,"o":"m 422 -8 q 273 20 342 -8 q 151 100 203 49 q 68 219 98 151 q 39 367 39 287 q 68 514 39 446 q 150 632 98 581 q 270 710 202 682 q 416 738 338 738 q 537 720 478 738 q 642 670 596 702 l 572 518 q 529 548 553 535 q 477 568 505 561 q 420 574 450 574 q 315 547 361 574 q 245 472 270 519 q 220 366 220 425 q 245 259 220 307 q 317 183 271 212 q 420 155 362 155 q 511 172 468 155 q 575 210 553 189 l 643 54 q 546 10 604 28 q 422 -8 489 -8 m 416 787 l 335 857 l 527 1108 l 638 1002 l 416 787 z "},"č":{"ha":665,"x_min":39,"x_max":670,"o":"m 422 -8 q 273 20 342 -8 q 151 100 203 49 q 68 219 98 151 q 39 367 39 287 q 68 514 39 446 q 150 632 98 581 q 270 710 202 682 q 416 738 338 738 q 537 720 478 738 q 642 670 596 702 l 572 518 q 529 548 553 535 q 477 568 505 561 q 420 574 450 574 q 315 547 361 574 q 245 472 270 519 q 220 366 220 425 q 245 259 220 307 q 317 183 271 212 q 420 155 362 155 q 511 172 468 155 q 575 210 553 189 l 643 54 q 546 10 604 28 q 422 -8 489 -8 m 238 1084 l 414 925 l 420 925 l 596 1084 l 670 996 l 437 791 l 397 791 l 165 996 l 238 1084 z "},"ç":{"ha":665,"x_min":39,"x_max":643,"o":"m 422 -8 q 273 20 342 -8 q 151 100 203 49 q 68 219 98 151 q 39 367 39 287 q 68 514 39 446 q 150 632 98 581 q 270 710 202 682 q 416 738 338 738 q 537 720 478 738 q 642 670 596 702 l 572 518 q 529 548 553 535 q 477 568 505 561 q 420 574 450 574 q 315 547 361 574 q 245 472 270 519 q 220 366 220 425 q 245 259 220 307 q 317 183 271 212 q 420 155 362 155 q 511 172 468 155 q 575 210 553 189 l 643 54 q 546 10 604 28 q 422 -8 489 -8 m 297 -338 l 297 -243 q 405 -230 370 -246 q 439 -186 439 -214 q 412 -150 439 -165 q 335 -132 385 -135 l 378 0 l 463 0 l 424 -111 l 414 -67 q 514 -109 476 -77 q 552 -196 552 -142 q 490 -300 552 -260 q 297 -338 429 -340 z "},"ḉ":{"ha":665,"x_min":39,"x_max":643,"o":"m 422 -8 q 273 20 342 -8 q 151 100 203 49 q 68 219 98 151 q 39 367 39 287 q 68 514 39 446 q 150 632 98 581 q 270 710 202 682 q 416 738 338 738 q 537 720 478 738 q 642 670 596 702 l 572 518 q 529 548 553 535 q 477 568 505 561 q 420 574 450 574 q 315 547 361 574 q 245 472 270 519 q 220 366 220 425 q 245 259 220 307 q 317 183 271 212 q 420 155 362 155 q 511 172 468 155 q 575 210 553 189 l 643 54 q 546 10 604 28 q 422 -8 489 -8 m 297 -338 l 297 -243 q 405 -230 370 -246 q 439 -186 439 -214 q 412 -150 439 -165 q 335 -132 385 -135 l 378 0 l 463 0 l 424 -111 l 414 -67 q 514 -109 476 -77 q 552 -196 552 -142 q 490 -300 552 -260 q 297 -338 429 -340 m 416 787 l 335 857 l 527 1108 l 638 1002 l 416 787 z "},"ĉ":{"ha":665,"x_min":39,"x_max":670,"o":"m 422 -8 q 273 20 342 -8 q 151 100 203 49 q 68 219 98 151 q 39 367 39 287 q 68 514 39 446 q 150 632 98 581 q 270 710 202 682 q 416 738 338 738 q 537 720 478 738 q 642 670 596 702 l 572 518 q 529 548 553 535 q 477 568 505 561 q 420 574 450 574 q 315 547 361 574 q 245 472 270 519 q 220 366 220 425 q 245 259 220 307 q 317 183 271 212 q 420 155 362 155 q 511 172 468 155 q 575 210 553 189 l 643 54 q 546 10 604 28 q 422 -8 489 -8 m 238 784 l 165 872 l 397 1076 l 437 1076 l 669 872 l 596 784 l 420 942 l 414 942 l 238 784 z "},"ċ":{"ha":665,"x_min":39,"x_max":643,"o":"m 422 -8 q 273 20 342 -8 q 151 100 203 49 q 68 219 98 151 q 39 367 39 287 q 68 514 39 446 q 150 632 98 581 q 270 710 202 682 q 416 738 338 738 q 537 720 478 738 q 642 670 596 702 l 572 518 q 529 548 553 535 q 477 568 505 561 q 420 574 450 574 q 315 547 361 574 q 245 472 270 519 q 220 366 220 425 q 245 259 220 307 q 317 183 271 212 q 420 155 362 155 q 511 172 468 155 q 575 210 553 189 l 643 54 q 546 10 604 28 q 422 -8 489 -8 m 417 819 q 333 853 368 819 q 298 938 298 888 q 333 1022 298 988 q 417 1057 368 1057 q 502 1022 467 1057 q 536 938 536 988 q 502 853 536 888 q 417 819 467 819 z "},"d":{"ha":857,"x_min":37,"x_max":816,"o":"m 749 -11 q 669 25 701 5 q 619 68 637 45 q 595 119 601 91 l 617 106 l 554 106 l 586 191 l 586 585 l 552 659 l 570 659 l 570 1044 l 758 1044 l 758 238 q 770 179 758 197 q 816 148 783 161 l 749 -11 m 359 -11 q 241 13 298 -11 q 137 84 183 37 q 65 201 92 131 q 39 362 38 271 q 84 568 37 484 q 205 695 130 652 q 363 739 279 739 q 527 690 456 739 q 638 557 598 641 q 680 368 679 473 q 637 177 679 263 q 523 40 595 90 q 359 -11 450 -11 m 400 148 q 493 176 452 149 q 556 252 533 203 q 580 366 580 301 q 556 480 580 433 q 493 554 532 528 q 404 579 453 580 q 309 553 350 580 q 245 479 268 527 q 222 366 222 431 q 244 252 222 301 q 308 176 267 203 q 400 148 348 149 z "},"ď":{"ha":932,"x_min":37,"x_max":998,"o":"m 749 -11 q 669 25 701 5 q 619 68 637 45 q 595 119 601 91 l 617 106 l 554 106 l 586 191 l 586 585 l 552 659 l 570 659 l 570 1044 l 758 1044 l 758 238 q 770 179 758 197 q 816 148 783 161 l 749 -11 m 359 -11 q 241 13 298 -11 q 137 84 183 37 q 65 201 92 131 q 39 362 38 271 q 84 568 37 484 q 205 695 130 652 q 363 739 279 739 q 527 690 456 739 q 638 557 598 641 q 680 368 679 473 q 637 177 679 263 q 523 40 595 90 q 359 -11 450 -11 m 400 148 q 493 176 452 149 q 556 252 533 203 q 580 366 580 301 q 556 480 580 433 q 493 554 532 528 q 404 579 453 580 q 309 553 350 580 q 245 479 268 527 q 222 366 222 431 q 244 252 222 301 q 308 176 267 203 q 400 148 348 149 m 844 709 l 848 1044 l 998 1044 l 977 709 l 844 709 z "},"đ":{"ha":857,"x_min":37,"x_max":884,"o":"m 749 -11 q 669 25 701 5 q 619 68 637 45 q 595 119 601 91 l 617 106 l 554 106 l 586 191 l 586 585 l 552 659 l 570 659 l 570 1044 l 758 1044 l 758 238 q 770 179 758 197 q 816 148 783 161 l 749 -11 m 359 -11 q 241 13 298 -11 q 137 84 183 37 q 65 201 92 131 q 39 362 38 271 q 84 568 37 484 q 205 695 130 652 q 363 739 279 739 q 527 690 456 739 q 638 557 598 641 q 680 368 679 473 q 637 177 679 263 q 523 40 595 90 q 359 -11 450 -11 m 400 148 q 493 176 452 149 q 556 252 533 203 q 580 366 580 301 q 556 480 580 433 q 493 554 532 528 q 404 579 453 580 q 309 553 350 580 q 245 479 268 527 q 222 366 222 431 q 244 252 222 301 q 308 176 267 203 q 400 148 348 149 m 451 817 l 451 930 l 884 930 l 884 817 l 451 817 z "},"ḍ":{"ha":857,"x_min":37,"x_max":816,"o":"m 749 -11 q 669 25 701 5 q 619 68 637 45 q 595 119 601 91 l 617 106 l 554 106 l 586 191 l 586 585 l 552 659 l 570 659 l 570 1044 l 758 1044 l 758 238 q 770 179 758 197 q 816 148 783 161 l 749 -11 m 359 -11 q 241 13 298 -11 q 137 84 183 37 q 65 201 92 131 q 39 362 38 271 q 84 568 37 484 q 205 695 130 652 q 363 739 279 739 q 527 690 456 739 q 638 557 598 641 q 680 368 679 473 q 637 177 679 263 q 523 40 595 90 q 359 -11 450 -11 m 400 148 q 493 176 452 149 q 556 252 533 203 q 580 366 580 301 q 556 480 580 433 q 493 554 532 528 q 404 579 453 580 q 309 553 350 580 q 245 479 268 527 q 222 366 222 431 q 244 252 222 301 q 308 176 267 203 q 400 148 348 149 m 412 -318 q 328 -283 362 -318 q 293 -199 293 -248 q 328 -114 293 -149 q 412 -80 362 -80 q 496 -114 462 -80 q 530 -199 530 -149 q 496 -283 530 -248 q 412 -318 462 -318 z "},"ḏ":{"ha":857,"x_min":37,"x_max":816,"o":"m 749 -11 q 669 25 701 5 q 619 68 637 45 q 595 119 601 91 l 617 106 l 554 106 l 586 191 l 586 585 l 552 659 l 570 659 l 570 1044 l 758 1044 l 758 238 q 770 179 758 197 q 816 148 783 161 l 749 -11 m 359 -11 q 241 13 298 -11 q 137 84 183 37 q 65 201 92 131 q 39 362 38 271 q 84 568 37 484 q 205 695 130 652 q 363 739 279 739 q 527 690 456 739 q 638 557 598 641 q 680 368 679 473 q 637 177 679 263 q 523 40 595 90 q 359 -11 450 -11 m 400 148 q 493 176 452 149 q 556 252 533 203 q 580 366 580 301 q 556 480 580 433 q 493 554 532 528 q 404 579 453 580 q 309 553 350 580 q 245 479 268 527 q 222 366 222 431 q 244 252 222 301 q 308 176 267 203 q 400 148 348 149 m 142 -281 l 142 -166 l 681 -166 l 681 -281 l 142 -281 z "},"ǆ":{"ha":1532,"x_min":37,"x_max":1493,"o":"m 749 -11 q 669 25 701 5 q 619 68 637 45 q 595 119 601 91 l 617 106 l 554 106 l 586 191 l 586 585 l 552 659 l 570 659 l 570 1044 l 758 1044 l 758 238 q 770 179 758 197 q 816 148 783 161 l 749 -11 m 359 -11 q 241 13 298 -11 q 137 84 183 37 q 65 201 92 131 q 39 362 38 271 q 84 568 37 484 q 205 695 130 652 q 363 739 279 739 q 527 690 456 739 q 638 557 598 641 q 680 368 679 473 q 637 177 679 263 q 523 40 595 90 q 359 -11 450 -11 m 400 148 q 493 176 452 149 q 556 252 533 203 q 580 366 580 301 q 556 480 580 433 q 493 554 532 528 q 404 579 453 580 q 309 553 350 580 q 245 479 268 527 q 222 366 222 431 q 244 252 222 301 q 308 176 267 203 q 400 148 348 149 m 892 0 l 892 39 l 1217 559 l 1217 564 l 914 564 l 914 726 l 1492 726 l 1492 686 l 1167 168 l 1167 163 l 1493 163 l 1493 0 l 892 0 m 1029 1084 l 1205 925 l 1211 925 l 1387 1084 l 1460 996 l 1227 791 l 1188 791 l 956 996 l 1029 1084 z "},"ð":{"ha":821,"x_min":41,"x_max":782,"o":"m 410 -11 q 223 36 307 -11 q 90 163 140 82 q 41 348 41 244 q 86 527 41 448 q 211 652 132 606 q 386 699 289 699 q 479 686 433 699 q 559 650 525 674 q 607 591 594 626 l 574 629 l 623 629 l 598 602 q 530 726 574 669 q 429 832 487 784 q 304 917 372 880 q 163 981 237 955 l 235 1128 q 459 1003 359 1074 q 632 846 560 933 q 743 656 705 760 q 782 433 782 553 q 734 198 782 298 q 603 44 687 98 q 410 -11 519 -11 m 414 155 q 510 182 468 155 q 577 255 553 209 q 602 359 602 302 q 577 459 602 417 q 509 523 552 500 q 412 546 467 546 q 314 522 357 546 q 247 456 271 498 q 222 356 222 413 q 247 252 222 298 q 316 181 273 207 q 414 155 359 155 m 217 750 l 163 829 l 628 1126 l 693 1027 l 217 750 z "},"e":{"ha":762,"x_min":39,"x_max":720,"o":"m 416 -11 q 217 37 302 -11 q 86 169 132 85 q 39 362 39 254 q 87 561 39 477 q 215 690 135 644 q 389 736 294 736 q 554 695 479 736 q 675 577 629 653 q 720 399 720 502 q 718 353 720 375 q 709 302 715 332 l 179 302 l 179 427 l 548 427 q 528 509 548 474 q 472 565 507 545 q 389 585 436 585 q 291 557 332 585 q 226 481 249 530 q 203 368 203 432 q 229 250 203 300 q 300 170 254 199 q 411 141 347 141 q 481 150 447 141 q 544 172 515 158 q 594 203 573 186 l 655 56 q 550 7 612 26 q 416 -11 488 -11 z "},"é":{"ha":765,"x_min":39,"x_max":720,"o":"m 416 -11 q 217 37 302 -11 q 86 169 132 85 q 39 362 39 254 q 87 561 39 477 q 215 690 135 644 q 389 736 294 736 q 554 695 479 736 q 675 577 629 653 q 720 399 720 502 q 718 353 720 375 q 709 302 715 332 l 179 302 l 179 427 l 548 427 q 528 509 548 474 q 472 565 507 545 q 389 585 436 585 q 291 557 332 585 q 226 481 249 530 q 203 368 203 432 q 229 250 203 300 q 300 170 254 199 q 411 141 347 141 q 481 150 447 141 q 544 172 515 158 q 594 203 573 186 l 655 56 q 550 7 612 26 q 416 -11 488 -11 m 390 787 l 309 857 l 501 1108 l 612 1002 l 390 787 z "},"ĕ":{"ha":765,"x_min":39,"x_max":720,"o":"m 416 -11 q 217 37 302 -11 q 86 169 132 85 q 39 362 39 254 q 87 561 39 477 q 215 690 135 644 q 389 736 294 736 q 554 695 479 736 q 675 577 629 653 q 720 399 720 502 q 718 353 720 375 q 709 302 715 332 l 179 302 l 179 427 l 548 427 q 528 509 548 474 q 472 565 507 545 q 389 585 436 585 q 291 557 332 585 q 226 481 249 530 q 203 368 203 432 q 229 250 203 300 q 300 170 254 199 q 411 141 347 141 q 481 150 447 141 q 544 172 515 158 q 594 203 573 186 l 655 56 q 550 7 612 26 q 416 -11 488 -11 m 391 812 q 263 843 320 812 q 174 924 207 873 q 140 1038 140 975 l 257 1038 q 296 952 258 987 q 391 918 335 918 q 486 952 448 918 q 524 1038 524 987 l 640 1038 q 608 924 641 975 q 518 843 575 873 q 391 812 462 812 z "},"ě":{"ha":765,"x_min":39,"x_max":724,"o":"m 414 -11 q 217 36 301 -11 q 85 167 132 83 q 39 362 39 251 q 86 561 39 477 q 215 691 134 646 q 393 737 295 737 q 564 693 489 737 q 681 573 639 650 q 724 399 724 497 q 720 341 724 368 q 714 300 717 313 l 184 300 l 184 422 l 548 422 q 528 508 548 471 q 473 566 509 545 q 390 587 437 587 q 291 557 332 587 q 227 478 250 528 q 204 367 204 429 q 231 249 204 299 q 306 171 258 198 q 416 143 354 143 q 487 152 452 143 q 550 173 522 160 q 592 198 577 185 l 652 54 q 550 8 612 27 q 414 -11 487 -11 m 212 1084 l 389 925 l 394 925 l 570 1084 l 644 996 l 411 791 l 372 791 l 139 996 l 212 1084 z "},"ḝ":{"ha":765,"x_min":39,"x_max":720,"o":"m 416 -11 q 217 37 302 -11 q 86 169 132 85 q 39 362 39 254 q 87 561 39 477 q 215 690 135 644 q 389 736 294 736 q 554 695 479 736 q 675 577 629 653 q 720 399 720 502 q 718 353 720 375 q 709 302 715 332 l 179 302 l 179 427 l 548 427 q 528 509 548 474 q 472 565 507 545 q 389 585 436 585 q 291 557 332 585 q 226 481 249 530 q 203 368 203 432 q 229 250 203 300 q 300 170 254 199 q 411 141 347 141 q 481 150 447 141 q 544 172 515 158 q 594 203 573 186 l 655 56 q 550 7 612 26 q 416 -11 488 -11 m 285 -338 l 285 -243 q 392 -230 358 -246 q 427 -186 427 -214 q 400 -150 427 -165 q 323 -132 373 -135 l 366 0 l 451 0 l 412 -111 l 401 -67 q 502 -109 464 -77 q 540 -196 540 -142 q 478 -300 540 -260 q 285 -338 416 -340 m 391 812 q 263 843 320 812 q 174 924 207 873 q 140 1038 140 975 l 257 1038 q 296 952 258 987 q 391 918 335 918 q 486 952 448 918 q 524 1038 524 987 l 640 1038 q 608 924 641 975 q 518 843 575 873 q 391 812 462 812 z "},"ê":{"ha":765,"x_min":39,"x_max":720,"o":"m 416 -11 q 217 37 302 -11 q 86 169 132 85 q 39 362 39 254 q 87 561 39 477 q 215 690 135 644 q 389 736 294 736 q 554 695 479 736 q 675 577 629 653 q 720 399 720 502 q 718 353 720 375 q 709 302 715 332 l 179 302 l 179 427 l 548 427 q 528 509 548 474 q 472 565 507 545 q 389 585 436 585 q 291 557 332 585 q 226 481 249 530 q 203 368 203 432 q 229 250 203 300 q 300 170 254 199 q 411 141 347 141 q 481 150 447 141 q 544 172 515 158 q 594 203 573 186 l 655 56 q 550 7 612 26 q 416 -11 488 -11 m 212 784 l 139 872 l 372 1076 l 411 1076 l 644 872 l 570 784 l 394 942 l 389 942 l 212 784 z "},"ế":{"ha":765,"x_min":39,"x_max":827,"o":"m 416 -11 q 217 37 302 -11 q 86 169 132 85 q 39 362 39 254 q 87 561 39 477 q 215 690 135 644 q 389 736 294 736 q 554 695 479 736 q 675 577 629 653 q 720 399 720 502 q 718 353 720 375 q 709 302 715 332 l 179 302 l 179 427 l 548 427 q 528 509 548 474 q 472 565 507 545 q 389 585 436 585 q 291 557 332 585 q 226 481 249 530 q 203 368 203 432 q 229 250 203 300 q 300 170 254 199 q 411 141 347 141 q 481 150 447 141 q 544 172 515 158 q 594 203 573 186 l 655 56 q 550 7 612 26 q 416 -11 488 -11 m 604 979 l 519 1039 l 736 1257 l 826 1139 l 604 979 m 222 795 l 138 882 l 373 1045 l 412 1045 l 646 882 l 564 795 l 393 920 l 389 920 l 222 795 z "},"ệ":{"ha":765,"x_min":39,"x_max":720,"o":"m 416 -11 q 217 37 302 -11 q 86 169 132 85 q 39 362 39 254 q 87 561 39 477 q 215 690 135 644 q 389 736 294 736 q 554 695 479 736 q 675 577 629 653 q 720 399 720 502 q 718 353 720 375 q 709 302 715 332 l 179 302 l 179 427 l 548 427 q 528 509 548 474 q 472 565 507 545 q 389 585 436 585 q 291 557 332 585 q 226 481 249 530 q 203 368 203 432 q 229 250 203 300 q 300 170 254 199 q 411 141 347 141 q 481 150 447 141 q 544 172 515 158 q 594 203 573 186 l 655 56 q 550 7 612 26 q 416 -11 488 -11 m 395 -318 q 311 -283 346 -318 q 277 -199 277 -248 q 311 -114 277 -149 q 395 -80 346 -80 q 480 -114 446 -80 q 514 -199 514 -149 q 480 -283 514 -248 q 395 -318 446 -318 m 212 784 l 139 872 l 372 1076 l 411 1076 l 644 872 l 570 784 l 394 942 l 389 942 l 212 784 z "},"ề":{"ha":764,"x_min":-50,"x_max":724,"o":"m 414 -11 q 217 36 301 -11 q 85 167 132 83 q 39 362 39 251 q 86 561 39 477 q 215 691 134 646 q 393 737 295 737 q 564 693 489 737 q 681 573 639 650 q 724 399 724 497 q 720 341 724 368 q 714 300 717 313 l 184 300 l 184 422 l 548 422 q 528 508 548 471 q 473 566 509 545 q 390 587 437 587 q 291 557 332 587 q 227 478 250 528 q 204 367 204 429 q 231 249 204 299 q 306 171 258 198 q 416 143 354 143 q 487 152 452 143 q 550 173 522 160 q 592 198 577 185 l 652 54 q 550 8 612 27 q 414 -11 487 -11 m 173 979 l -50 1139 l 41 1257 l 257 1039 l 173 979 m 554 795 l 387 920 l 383 920 l 213 795 l 130 882 l 365 1045 l 404 1045 l 639 882 l 554 795 z "},"ể":{"ha":765,"x_min":39,"x_max":720,"o":"m 416 -11 q 217 37 302 -11 q 86 169 132 85 q 39 362 39 254 q 87 561 39 477 q 215 690 135 644 q 389 736 294 736 q 554 695 479 736 q 675 577 629 653 q 720 399 720 502 q 718 353 720 375 q 709 302 715 332 l 179 302 l 179 427 l 548 427 q 528 509 548 474 q 472 565 507 545 q 389 585 436 585 q 291 557 332 585 q 226 481 249 530 q 203 368 203 432 q 229 250 203 300 q 300 170 254 199 q 411 141 347 141 q 481 150 447 141 q 544 172 515 158 q 594 203 573 186 l 655 56 q 550 7 612 26 q 416 -11 488 -11 m 592 980 l 522 1031 q 558 1064 544 1047 q 572 1099 572 1082 q 555 1133 572 1121 q 503 1145 538 1145 q 468 1142 486 1145 q 430 1132 450 1139 l 430 1244 q 475 1255 446 1251 q 529 1258 505 1258 q 644 1226 600 1258 q 687 1126 687 1194 q 671 1063 687 1092 q 634 1014 656 1035 q 592 980 612 992 m 222 795 l 137 882 l 372 1045 l 411 1045 l 646 882 l 563 795 l 393 920 l 389 920 l 222 795 z "},"ễ":{"ha":765,"x_min":39,"x_max":720,"o":"m 416 -11 q 217 37 302 -11 q 86 169 132 85 q 39 362 39 254 q 87 561 39 477 q 215 690 135 644 q 389 736 294 736 q 554 695 479 736 q 675 577 629 653 q 720 399 720 502 q 718 353 720 375 q 709 302 715 332 l 179 302 l 179 427 l 548 427 q 528 509 548 474 q 472 565 507 545 q 389 585 436 585 q 291 557 332 585 q 226 481 249 530 q 203 368 203 432 q 229 250 203 300 q 300 170 254 199 q 411 141 347 141 q 481 150 447 141 q 544 172 515 158 q 594 203 573 186 l 655 56 q 550 7 612 26 q 416 -11 488 -11 m 142 1067 q 182 1206 141 1153 q 296 1259 224 1259 q 358 1248 334 1259 q 401 1221 383 1236 q 436 1194 419 1205 q 473 1182 452 1182 q 512 1203 498 1182 q 525 1259 525 1223 l 642 1259 q 627 1162 642 1205 q 580 1093 612 1118 q 499 1067 548 1067 q 438 1079 463 1067 q 395 1106 413 1090 q 360 1134 376 1122 q 323 1146 343 1146 q 277 1126 296 1146 q 257 1067 258 1107 l 142 1067 m 222 795 l 137 882 l 372 1045 l 411 1045 l 646 882 l 563 795 l 393 920 l 389 920 l 222 795 z "},"ȅ":{"ha":765,"x_min":39,"x_max":720,"o":"m 416 -11 q 217 37 302 -11 q 86 169 132 85 q 39 362 39 254 q 87 561 39 477 q 215 690 135 644 q 389 736 294 736 q 554 695 479 736 q 675 577 629 653 q 720 399 720 502 q 718 353 720 375 q 709 302 715 332 l 179 302 l 179 427 l 548 427 q 528 509 548 474 q 472 565 507 545 q 389 585 436 585 q 291 557 332 585 q 226 481 249 530 q 203 368 203 432 q 229 250 203 300 q 300 170 254 199 q 411 141 347 141 q 481 150 447 141 q 544 172 515 158 q 594 203 573 186 l 655 56 q 550 7 612 26 q 416 -11 488 -11 m 497 797 l 341 1032 l 469 1094 l 596 821 l 497 797 m 257 797 l 100 1032 l 225 1094 l 355 821 l 257 797 z "},"ë":{"ha":765,"x_min":39,"x_max":720,"o":"m 416 -11 q 217 37 302 -11 q 86 169 132 85 q 39 362 39 254 q 87 561 39 477 q 215 690 135 644 q 389 736 294 736 q 554 695 479 736 q 675 577 629 653 q 720 399 720 502 q 718 353 720 375 q 709 302 715 332 l 179 302 l 179 427 l 548 427 q 528 509 548 474 q 472 565 507 545 q 389 585 436 585 q 291 557 332 585 q 226 481 249 530 q 203 368 203 432 q 229 250 203 300 q 300 170 254 199 q 411 141 347 141 q 481 150 447 141 q 544 172 515 158 q 594 203 573 186 l 655 56 q 550 7 612 26 q 416 -11 488 -11 m 548 829 q 471 861 503 829 q 439 939 439 893 q 471 1017 439 985 q 548 1048 503 1048 q 626 1017 595 1048 q 657 939 657 985 q 626 861 657 893 q 548 829 595 829 m 235 829 q 158 861 190 829 q 126 939 126 893 q 158 1017 126 985 q 235 1048 190 1048 q 313 1017 282 1048 q 345 939 345 985 q 313 861 345 893 q 235 829 282 829 z "},"ė":{"ha":765,"x_min":39,"x_max":720,"o":"m 416 -11 q 217 37 302 -11 q 86 169 132 85 q 39 362 39 254 q 87 561 39 477 q 215 690 135 644 q 389 736 294 736 q 554 695 479 736 q 675 577 629 653 q 720 399 720 502 q 718 353 720 375 q 709 302 715 332 l 179 302 l 179 427 l 548 427 q 528 509 548 474 q 472 565 507 545 q 389 585 436 585 q 291 557 332 585 q 226 481 249 530 q 203 368 203 432 q 229 250 203 300 q 300 170 254 199 q 411 141 347 141 q 481 150 447 141 q 544 172 515 158 q 594 203 573 186 l 655 56 q 550 7 612 26 q 416 -11 488 -11 m 391 819 q 307 853 342 819 q 273 938 273 888 q 307 1022 273 988 q 391 1057 342 1057 q 476 1022 441 1057 q 510 938 510 988 q 476 853 510 888 q 391 819 441 819 z "},"ẹ":{"ha":765,"x_min":39,"x_max":720,"o":"m 416 -11 q 217 37 302 -11 q 86 169 132 85 q 39 362 39 254 q 87 561 39 477 q 215 690 135 644 q 389 736 294 736 q 554 695 479 736 q 675 577 629 653 q 720 399 720 502 q 718 353 720 375 q 709 302 715 332 l 179 302 l 179 427 l 548 427 q 528 509 548 474 q 472 565 507 545 q 389 585 436 585 q 291 557 332 585 q 226 481 249 530 q 203 368 203 432 q 229 250 203 300 q 300 170 254 199 q 411 141 347 141 q 481 150 447 141 q 544 172 515 158 q 594 203 573 186 l 655 56 q 550 7 612 26 q 416 -11 488 -11 m 395 -318 q 311 -283 346 -318 q 277 -199 277 -248 q 311 -114 277 -149 q 395 -80 346 -80 q 480 -114 446 -80 q 514 -199 514 -149 q 480 -283 514 -248 q 395 -318 446 -318 z "},"è":{"ha":765,"x_min":39,"x_max":720,"o":"m 416 -11 q 217 37 302 -11 q 86 169 132 85 q 39 362 39 254 q 87 561 39 477 q 215 690 135 644 q 389 736 294 736 q 554 695 479 736 q 675 577 629 653 q 720 399 720 502 q 718 353 720 375 q 709 302 715 332 l 179 302 l 179 427 l 548 427 q 528 509 548 474 q 472 565 507 545 q 389 585 436 585 q 291 557 332 585 q 226 481 249 530 q 203 368 203 432 q 229 250 203 300 q 300 170 254 199 q 411 141 347 141 q 481 150 447 141 q 544 172 515 158 q 594 203 573 186 l 655 56 q 550 7 612 26 q 416 -11 488 -11 m 395 788 l 171 1000 l 288 1109 l 475 857 l 395 788 z "},"ẻ":{"ha":765,"x_min":39,"x_max":720,"o":"m 416 -11 q 217 37 302 -11 q 86 169 132 85 q 39 362 39 254 q 87 561 39 477 q 215 690 135 644 q 389 736 294 736 q 554 695 479 736 q 675 577 629 653 q 720 399 720 502 q 718 353 720 375 q 709 302 715 332 l 179 302 l 179 427 l 548 427 q 528 509 548 474 q 472 565 507 545 q 389 585 436 585 q 291 557 332 585 q 226 481 249 530 q 203 368 203 432 q 229 250 203 300 q 300 170 254 199 q 411 141 347 141 q 481 150 447 141 q 544 172 515 158 q 594 203 573 186 l 655 56 q 550 7 612 26 q 416 -11 488 -11 m 414 786 l 346 854 q 385 885 368 867 q 401 924 401 904 q 382 955 401 945 q 330 966 363 966 q 295 963 315 966 q 259 954 276 960 l 259 1064 q 302 1076 274 1072 q 354 1080 331 1080 q 472 1046 429 1080 q 515 949 515 1013 q 484 848 515 892 q 414 786 453 804 z "},"ȇ":{"ha":765,"x_min":39,"x_max":724,"o":"m 414 -11 q 217 36 301 -11 q 85 167 132 83 q 39 362 39 251 q 86 561 39 477 q 215 691 134 646 q 393 737 295 737 q 564 693 489 737 q 681 573 639 650 q 724 399 724 497 q 720 341 724 368 q 714 300 717 313 l 184 300 l 184 422 l 548 422 q 528 508 548 471 q 473 566 509 545 q 390 587 437 587 q 291 557 332 587 q 227 478 250 528 q 204 367 204 429 q 231 249 204 299 q 306 171 258 198 q 416 143 354 143 q 487 152 452 143 q 550 173 522 160 q 592 198 577 185 l 652 54 q 550 8 612 27 q 414 -11 487 -11 m 391 1043 q 518 1013 462 1043 q 608 932 575 983 q 641 817 641 880 l 524 817 q 486 903 524 868 q 391 938 448 938 q 296 903 335 938 q 257 817 258 868 l 140 817 q 174 932 140 880 q 264 1013 207 983 q 391 1043 321 1043 z "},"ē":{"ha":765,"x_min":39,"x_max":720,"o":"m 416 -11 q 217 37 302 -11 q 86 169 132 85 q 39 362 39 254 q 87 561 39 477 q 215 690 135 644 q 389 736 294 736 q 554 695 479 736 q 675 577 629 653 q 720 399 720 502 q 718 353 720 375 q 709 302 715 332 l 179 302 l 179 427 l 548 427 q 528 509 548 474 q 472 565 507 545 q 389 585 436 585 q 291 557 332 585 q 226 481 249 530 q 203 368 203 432 q 229 250 203 300 q 300 170 254 199 q 411 141 347 141 q 481 150 447 141 q 544 172 515 158 q 594 203 573 186 l 655 56 q 550 7 612 26 q 416 -11 488 -11 m 121 857 l 121 971 l 660 971 l 660 857 l 121 857 z "},"ḗ":{"ha":765,"x_min":39,"x_max":720,"o":"m 416 -11 q 217 37 302 -11 q 86 169 132 85 q 39 362 39 254 q 87 561 39 477 q 215 690 135 644 q 389 736 294 736 q 554 695 479 736 q 675 577 629 653 q 720 399 720 502 q 718 353 720 375 q 709 302 715 332 l 179 302 l 179 427 l 548 427 q 528 509 548 474 q 472 565 507 545 q 389 585 436 585 q 291 557 332 585 q 226 481 249 530 q 203 368 203 432 q 229 250 203 300 q 300 170 254 199 q 411 141 347 141 q 481 150 447 141 q 544 172 515 158 q 594 203 573 186 l 655 56 q 550 7 612 26 q 416 -11 488 -11 m 121 857 l 121 971 l 660 971 l 660 857 l 121 857 m 390 1039 l 309 1109 l 501 1360 l 612 1253 l 390 1039 z "},"ḕ":{"ha":765,"x_min":39,"x_max":720,"o":"m 416 -11 q 217 37 302 -11 q 86 169 132 85 q 39 362 39 254 q 87 561 39 477 q 215 690 135 644 q 389 736 294 736 q 554 695 479 736 q 675 577 629 653 q 720 399 720 502 q 718 353 720 375 q 709 302 715 332 l 179 302 l 179 427 l 548 427 q 528 509 548 474 q 472 565 507 545 q 389 585 436 585 q 291 557 332 585 q 226 481 249 530 q 203 368 203 432 q 229 250 203 300 q 300 170 254 199 q 411 141 347 141 q 481 150 447 141 q 544 172 515 158 q 594 203 573 186 l 655 56 q 550 7 612 26 q 416 -11 488 -11 m 121 857 l 121 971 l 660 971 l 660 857 l 121 857 m 395 1040 l 171 1251 l 288 1361 l 475 1108 l 395 1040 z "},"ę":{"ha":765,"x_min":39,"x_max":720,"o":"m 416 -11 q 217 37 302 -11 q 86 169 132 85 q 39 362 39 254 q 87 561 39 477 q 215 690 135 644 q 389 736 294 736 q 554 695 479 736 q 675 577 629 653 q 720 399 720 502 q 718 353 720 375 q 709 302 715 332 l 179 302 l 179 427 l 548 427 q 528 509 548 474 q 472 565 507 545 q 389 585 436 585 q 291 557 332 585 q 226 481 249 530 q 203 368 203 432 q 229 250 203 300 q 300 170 254 199 q 411 141 347 141 q 481 150 447 141 q 544 172 515 158 q 594 203 573 186 l 655 56 q 550 7 612 26 q 416 -11 488 -11 m 551 -235 q 446 -198 486 -235 q 405 -102 405 -162 q 447 -1 405 -45 q 553 85 489 43 l 652 54 q 589 9 618 31 q 541 -35 559 -13 q 523 -82 523 -58 q 538 -115 523 -103 q 584 -127 554 -127 q 626 -121 604 -127 q 659 -108 648 -115 l 659 -214 q 608 -229 640 -223 q 551 -235 576 -235 z "},"ẽ":{"ha":765,"x_min":39,"x_max":720,"o":"m 416 -11 q 217 37 302 -11 q 86 169 132 85 q 39 362 39 254 q 87 561 39 477 q 215 690 135 644 q 389 736 294 736 q 554 695 479 736 q 675 577 629 653 q 720 399 720 502 q 718 353 720 375 q 709 302 715 332 l 179 302 l 179 427 l 548 427 q 528 509 548 474 q 472 565 507 545 q 389 585 436 585 q 291 557 332 585 q 226 481 249 530 q 203 368 203 432 q 229 250 203 300 q 300 170 254 199 q 411 141 347 141 q 481 150 447 141 q 544 172 515 158 q 594 203 573 186 l 655 56 q 550 7 612 26 q 416 -11 488 -11 m 134 817 q 178 971 134 918 q 292 1023 223 1023 q 357 1009 331 1023 q 403 978 384 996 q 439 946 422 960 q 476 932 456 932 q 516 958 503 932 q 529 1023 529 983 l 648 1023 q 604 871 649 925 q 490 817 559 817 q 426 831 452 817 q 381 863 400 845 q 344 896 361 882 q 305 909 327 909 q 267 884 279 909 q 254 817 254 858 l 134 817 z "},"ə":{"ha":765,"x_min":41,"x_max":726,"o":"m 351 737 q 548 690 464 737 q 679 559 633 644 q 726 364 726 475 q 678 165 726 250 q 550 35 630 81 q 372 -11 469 -11 q 201 33 275 -11 q 84 153 126 77 q 41 328 41 230 q 44 386 41 359 q 51 427 47 414 l 581 427 l 581 304 l 216 304 q 236 218 216 256 q 292 160 256 181 q 375 140 328 140 q 474 169 432 140 q 538 248 515 198 q 561 359 561 298 q 534 478 561 427 q 459 556 507 528 q 349 584 411 584 q 277 575 312 584 q 215 554 243 567 q 172 528 188 541 l 113 672 q 215 719 153 700 q 351 737 278 737 z "},"f":{"ha":559,"x_min":22,"x_max":549,"o":"m 22 566 l 22 726 l 518 726 l 518 566 l 22 566 m 155 0 l 155 809 q 218 992 155 922 q 412 1063 281 1063 q 489 1057 452 1063 q 549 1040 526 1050 l 486 885 q 457 895 472 892 q 427 897 442 897 q 365 873 389 897 q 342 801 342 849 l 342 0 l 155 0 z "},"g":{"ha":831,"x_min":40,"x_max":757,"o":"m 382 -296 q 220 -274 294 -296 q 104 -229 146 -252 l 167 -77 q 254 -118 201 -100 q 363 -136 308 -136 q 459 -120 409 -136 q 544 -69 509 -104 q 578 26 578 -33 l 578 100 l 556 100 l 586 170 l 586 577 l 539 653 l 583 653 l 583 727 l 757 727 l 757 37 q 728 -109 757 -47 q 649 -213 700 -172 q 529 -275 597 -254 q 382 -296 461 -296 m 363 9 q 245 32 303 9 q 141 102 188 56 q 67 216 95 148 q 40 372 40 283 q 88 572 40 491 q 211 696 136 654 q 370 738 287 738 q 534 690 464 738 q 643 562 604 642 q 682 382 682 481 q 641 195 682 279 q 528 59 600 110 q 363 9 456 9 m 406 165 q 498 192 458 165 q 562 267 538 219 q 585 377 585 315 q 562 486 585 440 q 499 557 539 532 q 408 583 459 583 q 313 557 355 583 q 249 485 272 531 q 225 377 225 439 q 248 268 225 316 q 312 193 271 220 q 406 165 353 165 z "},"ǵ":{"ha":830,"x_min":40,"x_max":757,"o":"m 382 -296 q 220 -274 294 -296 q 104 -229 146 -252 l 167 -77 q 254 -118 201 -100 q 363 -136 308 -136 q 459 -120 409 -136 q 544 -69 509 -104 q 578 26 578 -33 l 578 100 l 556 100 l 586 170 l 586 577 l 539 653 l 583 653 l 583 727 l 757 727 l 757 37 q 728 -109 757 -47 q 649 -213 700 -172 q 529 -275 597 -254 q 382 -296 461 -296 m 363 9 q 245 32 303 9 q 141 102 188 56 q 67 216 95 148 q 40 372 40 283 q 88 572 40 491 q 211 696 136 654 q 370 738 287 738 q 534 690 464 738 q 643 562 604 642 q 682 382 682 481 q 641 195 682 279 q 528 59 600 110 q 363 9 456 9 m 406 165 q 498 192 458 165 q 562 267 538 219 q 585 377 585 315 q 562 486 585 440 q 499 557 539 532 q 408 583 459 583 q 313 557 355 583 q 249 485 272 531 q 225 377 225 439 q 248 268 225 316 q 312 193 271 220 q 406 165 353 165 m 398 787 l 317 857 l 509 1108 l 621 1002 l 398 787 z "},"ğ":{"ha":830,"x_min":40,"x_max":757,"o":"m 382 -296 q 220 -274 294 -296 q 104 -229 146 -252 l 167 -77 q 254 -118 201 -100 q 363 -136 308 -136 q 459 -120 409 -136 q 544 -69 509 -104 q 578 26 578 -33 l 578 100 l 556 100 l 586 170 l 586 577 l 539 653 l 583 653 l 583 727 l 757 727 l 757 37 q 728 -109 757 -47 q 649 -213 700 -172 q 529 -275 597 -254 q 382 -296 461 -296 m 363 9 q 245 32 303 9 q 141 102 188 56 q 67 216 95 148 q 40 372 40 283 q 88 572 40 491 q 211 696 136 654 q 370 738 287 738 q 534 690 464 738 q 643 562 604 642 q 682 382 682 481 q 641 195 682 279 q 528 59 600 110 q 363 9 456 9 m 406 165 q 498 192 458 165 q 562 267 538 219 q 585 377 585 315 q 562 486 585 440 q 499 557 539 532 q 408 583 459 583 q 313 557 355 583 q 249 485 272 531 q 225 377 225 439 q 248 268 225 316 q 312 193 271 220 q 406 165 353 165 m 400 812 q 272 843 329 812 q 182 924 216 873 q 149 1038 149 975 l 266 1038 q 305 952 267 987 q 400 918 344 918 q 494 952 456 918 q 532 1038 532 987 l 649 1038 q 617 924 650 975 q 527 843 584 873 q 400 812 471 812 z "},"ǧ":{"ha":830,"x_min":39,"x_max":755,"o":"m 381 -296 q 220 -274 295 -296 q 102 -228 146 -253 l 166 -78 q 256 -120 204 -102 q 364 -137 309 -137 q 461 -120 412 -137 q 545 -68 511 -104 q 578 26 578 -32 l 578 105 l 557 105 l 588 172 l 588 574 l 540 650 l 583 650 l 583 727 l 755 727 l 755 36 q 727 -109 755 -47 q 647 -213 699 -172 q 528 -275 596 -254 q 381 -296 460 -296 m 359 9 q 242 33 299 9 q 139 101 185 56 q 66 215 93 146 q 39 373 39 283 q 86 575 39 494 q 208 697 133 656 q 366 738 282 738 q 529 691 458 738 q 640 564 600 644 q 680 382 680 483 q 638 194 680 279 q 523 60 596 110 q 359 9 450 9 m 403 165 q 497 192 456 165 q 562 267 538 219 q 585 379 585 315 q 562 488 585 442 q 499 558 539 534 q 406 583 458 583 q 311 557 352 583 q 247 486 270 532 q 223 378 223 440 q 247 267 223 315 q 310 192 270 219 q 403 165 351 165 m 220 1084 l 397 925 l 402 925 l 578 1084 l 652 996 l 419 791 l 380 791 l 147 996 l 220 1084 z "},"ĝ":{"ha":830,"x_min":40,"x_max":757,"o":"m 382 -296 q 220 -274 294 -296 q 104 -229 146 -252 l 167 -77 q 254 -118 201 -100 q 363 -136 308 -136 q 459 -120 409 -136 q 544 -69 509 -104 q 578 26 578 -33 l 578 100 l 556 100 l 586 170 l 586 577 l 539 653 l 583 653 l 583 727 l 757 727 l 757 37 q 728 -109 757 -47 q 649 -213 700 -172 q 529 -275 597 -254 q 382 -296 461 -296 m 363 9 q 245 32 303 9 q 141 102 188 56 q 67 216 95 148 q 40 372 40 283 q 88 572 40 491 q 211 696 136 654 q 370 738 287 738 q 534 690 464 738 q 643 562 604 642 q 682 382 682 481 q 641 195 682 279 q 528 59 600 110 q 363 9 456 9 m 406 165 q 498 192 458 165 q 562 267 538 219 q 585 377 585 315 q 562 486 585 440 q 499 557 539 532 q 408 583 459 583 q 313 557 355 583 q 249 485 272 531 q 225 377 225 439 q 248 268 225 316 q 312 193 271 220 q 406 165 353 165 m 220 784 l 147 872 l 380 1076 l 419 1076 l 652 872 l 578 784 l 402 942 l 397 942 l 220 784 z "},"ģ":{"ha":830,"x_min":39,"x_max":755,"o":"m 381 -296 q 220 -274 295 -296 q 102 -228 146 -253 l 166 -78 q 256 -120 204 -102 q 364 -137 309 -137 q 461 -120 412 -137 q 545 -68 511 -104 q 578 26 578 -32 l 578 105 l 557 105 l 588 172 l 588 574 l 540 650 l 583 650 l 583 727 l 755 727 l 755 36 q 727 -109 755 -47 q 647 -213 699 -172 q 528 -275 596 -254 q 381 -296 460 -296 m 359 9 q 242 33 299 9 q 139 101 185 56 q 66 215 93 146 q 39 373 39 283 q 86 575 39 494 q 208 697 133 656 q 366 738 282 738 q 529 691 458 738 q 640 564 600 644 q 680 382 680 483 q 638 194 680 279 q 523 60 596 110 q 359 9 450 9 m 403 165 q 497 192 456 165 q 562 267 538 219 q 585 379 585 315 q 562 488 585 442 q 499 558 539 534 q 406 583 458 583 q 311 557 352 583 q 247 486 270 532 q 223 378 223 440 q 247 267 223 315 q 310 192 270 219 q 403 165 351 165 m 458 1145 l 498 1097 l 435 1045 q 410 1020 424 1035 q 386 988 395 1005 q 376 957 376 972 l 351 956 q 364 985 353 972 q 401 998 376 998 q 459 974 431 998 q 488 911 487 950 q 461 849 487 873 q 401 827 435 826 q 336 851 362 826 q 309 924 309 876 q 324 995 309 963 q 358 1049 339 1026 q 392 1085 378 1072 l 458 1145 z "},"ġ":{"ha":830,"x_min":40,"x_max":757,"o":"m 382 -296 q 220 -274 294 -296 q 104 -229 146 -252 l 167 -77 q 254 -118 201 -100 q 363 -136 308 -136 q 459 -120 409 -136 q 544 -69 509 -104 q 578 26 578 -33 l 578 100 l 556 100 l 586 170 l 586 577 l 539 653 l 583 653 l 583 727 l 757 727 l 757 37 q 728 -109 757 -47 q 649 -213 700 -172 q 529 -275 597 -254 q 382 -296 461 -296 m 363 9 q 245 32 303 9 q 141 102 188 56 q 67 216 95 148 q 40 372 40 283 q 88 572 40 491 q 211 696 136 654 q 370 738 287 738 q 534 690 464 738 q 643 562 604 642 q 682 382 682 481 q 641 195 682 279 q 528 59 600 110 q 363 9 456 9 m 406 165 q 498 192 458 165 q 562 267 538 219 q 585 377 585 315 q 562 486 585 440 q 499 557 539 532 q 408 583 459 583 q 313 557 355 583 q 249 485 272 531 q 225 377 225 439 q 248 268 225 316 q 312 193 271 220 q 406 165 353 165 m 399 819 q 315 853 350 819 q 281 938 281 888 q 315 1022 281 988 q 399 1057 350 1057 q 484 1022 450 1057 q 518 938 518 988 q 484 853 518 888 q 399 819 450 819 z "},"ḡ":{"ha":830,"x_min":40,"x_max":757,"o":"m 382 -296 q 220 -274 294 -296 q 104 -229 146 -252 l 167 -77 q 254 -118 201 -100 q 363 -136 308 -136 q 459 -120 409 -136 q 544 -69 509 -104 q 578 26 578 -33 l 578 100 l 556 100 l 586 170 l 586 577 l 539 653 l 583 653 l 583 727 l 757 727 l 757 37 q 728 -109 757 -47 q 649 -213 700 -172 q 529 -275 597 -254 q 382 -296 461 -296 m 363 9 q 245 32 303 9 q 141 102 188 56 q 67 216 95 148 q 40 372 40 283 q 88 572 40 491 q 211 696 136 654 q 370 738 287 738 q 534 690 464 738 q 643 562 604 642 q 682 382 682 481 q 641 195 682 279 q 528 59 600 110 q 363 9 456 9 m 406 165 q 498 192 458 165 q 562 267 538 219 q 585 377 585 315 q 562 486 585 440 q 499 557 539 532 q 408 583 459 583 q 313 557 355 583 q 249 485 272 531 q 225 377 225 439 q 248 268 225 316 q 312 193 271 220 q 406 165 353 165 m 130 857 l 130 971 l 669 971 l 669 857 l 130 857 z "},"h":{"ha":793,"x_min":75,"x_max":724,"o":"m 75 0 l 75 1044 l 262 1044 l 262 655 l 298 655 l 231 587 q 281 670 245 636 q 368 720 317 703 q 474 737 418 737 q 613 702 558 737 q 696 607 669 667 q 724 473 724 547 l 724 0 l 536 0 l 536 433 q 500 543 536 506 q 404 579 464 579 q 333 563 365 579 q 281 513 300 546 q 262 431 262 480 l 262 0 l 75 0 z "},"ħ":{"ha":793,"x_min":-42,"x_max":724,"o":"m 75 0 l 75 1044 l 262 1044 l 262 655 l 298 655 l 231 587 q 281 670 245 636 q 368 720 317 703 q 474 737 418 737 q 613 702 558 737 q 696 607 669 667 q 724 473 724 547 l 724 0 l 536 0 l 536 433 q 500 543 536 506 q 404 579 464 579 q 333 563 365 579 q 281 513 300 546 q 262 431 262 480 l 262 0 l 75 0 m -42 817 l -42 930 l 391 930 l 391 817 l -42 817 z "},"ḫ":{"ha":793,"x_min":75,"x_max":724,"o":"m 75 0 l 75 1044 l 262 1044 l 262 655 l 298 655 l 231 587 q 281 670 245 636 q 368 720 317 703 q 474 737 418 737 q 613 702 558 737 q 696 607 669 667 q 724 473 724 547 l 724 0 l 536 0 l 536 433 q 500 543 536 506 q 404 579 464 579 q 333 563 365 579 q 281 513 300 546 q 262 431 262 480 l 262 0 l 75 0 m 399 -306 q 272 -276 328 -306 q 182 -195 215 -245 q 149 -80 149 -144 l 265 -80 q 304 -166 266 -131 q 399 -201 343 -201 q 494 -166 456 -201 q 532 -80 532 -131 l 648 -80 q 616 -194 649 -143 q 527 -276 583 -245 q 399 -306 470 -306 z "},"ĥ":{"ha":793,"x_min":-85,"x_max":724,"o":"m 75 0 l 75 1044 l 262 1044 l 262 655 l 298 655 l 231 587 q 281 670 245 636 q 368 720 317 703 q 474 737 418 737 q 613 702 558 737 q 696 607 669 667 q 724 473 724 547 l 724 0 l 536 0 l 536 433 q 500 543 536 506 q 404 579 464 579 q 333 563 365 579 q 281 513 300 546 q 262 431 262 480 l 262 0 l 75 0 m -1 1089 l -85 1178 l 150 1342 l 189 1342 l 423 1178 l 340 1089 l 170 1216 l 166 1216 l -1 1089 z "},"ḥ":{"ha":793,"x_min":75,"x_max":724,"o":"m 75 0 l 75 1044 l 262 1044 l 262 655 l 298 655 l 231 587 q 281 670 245 636 q 368 720 317 703 q 474 737 418 737 q 613 702 558 737 q 696 607 669 667 q 724 473 724 547 l 724 0 l 536 0 l 536 433 q 500 543 536 506 q 404 579 464 579 q 333 563 365 579 q 281 513 300 546 q 262 431 262 480 l 262 0 l 75 0 m 399 -318 q 315 -283 349 -318 q 280 -199 280 -248 q 315 -114 280 -149 q 399 -80 349 -80 q 483 -114 449 -80 q 517 -199 517 -149 q 483 -283 517 -248 q 399 -318 449 -318 z "},"i":{"ha":345,"x_min":54,"x_max":292,"o":"m 79 0 l 79 726 l 267 726 l 267 0 l 79 0 m 172 819 q 88 853 123 819 q 54 938 54 888 q 88 1022 54 988 q 172 1057 123 1057 q 257 1022 222 1057 q 291 938 291 988 q 257 853 291 888 q 172 819 222 819 z "},"ı":{"ha":345,"x_min":79,"x_max":267,"o":"m 79 0 l 79 726 l 267 726 l 267 0 l 79 0 z "},"í":{"ha":380,"x_min":79,"x_max":394,"o":"m 79 0 l 79 726 l 267 726 l 267 0 l 79 0 m 172 787 l 91 857 l 283 1108 l 394 1002 l 172 787 z "},"ĭ":{"ha":434,"x_min":-33,"x_max":467,"o":"m 124 0 l 124 726 l 311 726 l 311 0 l 124 0 m 218 812 q 90 843 146 812 q 0 924 33 873 q -33 1038 -33 975 l 83 1038 q 123 952 84 987 q 218 918 161 918 q 312 952 274 918 q 350 1038 350 987 l 467 1038 q 434 924 467 975 q 345 843 401 873 q 218 812 288 812 z "},"ǐ":{"ha":434,"x_min":-35,"x_max":470,"o":"m 124 0 l 124 726 l 311 726 l 311 0 l 124 0 m 39 1084 l 215 925 l 220 925 l 396 1084 l 470 996 l 237 791 l 198 791 l -35 996 l 39 1084 z "},"î":{"ha":434,"x_min":-35,"x_max":470,"o":"m 124 0 l 124 726 l 311 726 l 311 0 l 124 0 m 38 784 l -35 872 l 197 1076 l 237 1076 l 469 872 l 396 784 l 220 942 l 214 942 l 38 784 z "},"ȉ":{"ha":378,"x_min":-101,"x_max":395,"o":"m 97 0 l 97 726 l 284 726 l 284 0 l 97 0 m 296 797 l 140 1032 l 268 1094 l 395 821 l 296 797 m 56 797 l -101 1032 l 24 1094 l 154 821 l 56 797 z "},"ï":{"ha":477,"x_min":-26,"x_max":505,"o":"m 146 0 l 146 726 l 333 726 l 333 0 l 146 0 m 395 829 q 318 861 350 829 q 286 939 286 893 q 318 1017 286 985 q 395 1048 350 1048 q 473 1017 442 1048 q 505 939 505 985 q 473 861 505 893 q 395 829 442 829 m 83 829 q 5 861 37 829 q -26 939 -26 893 q 5 1017 -26 985 q 83 1048 37 1048 q 161 1017 130 1048 q 192 939 192 985 q 161 861 192 893 q 83 829 130 829 z "},"ḯ":{"ha":477,"x_min":-26,"x_max":505,"o":"m 146 0 l 146 726 l 333 726 l 333 0 l 146 0 m 395 829 q 318 861 350 829 q 286 939 286 893 q 318 1017 286 985 q 395 1048 350 1048 q 473 1017 442 1048 q 505 939 505 985 q 473 861 505 893 q 395 829 442 829 m 83 829 q 5 861 37 829 q -26 939 -26 893 q 5 1017 -26 985 q 83 1048 37 1048 q 161 1017 130 1048 q 192 939 192 985 q 161 861 192 893 q 83 829 130 829 m 238 1062 l 157 1132 l 349 1383 l 460 1276 l 238 1062 z "},"ị":{"ha":345,"x_min":54,"x_max":292,"o":"m 79 0 l 79 726 l 267 726 l 267 0 l 79 0 m 172 819 q 88 853 123 819 q 54 938 54 888 q 88 1022 54 988 q 172 1057 123 1057 q 257 1022 222 1057 q 291 938 291 988 q 257 853 291 888 q 172 819 222 819 m 174 -318 q 90 -283 124 -318 q 55 -199 55 -248 q 90 -114 55 -149 q 174 -80 124 -80 q 258 -114 224 -80 q 292 -199 292 -149 q 258 -283 292 -248 q 174 -318 224 -318 z "},"ì":{"ha":362,"x_min":-30,"x_max":284,"o":"m 97 0 l 97 726 l 284 726 l 284 0 l 97 0 m 194 788 l -30 1000 l 87 1109 l 275 857 l 194 788 z "},"ỉ":{"ha":345,"x_min":40,"x_max":297,"o":"m 79 0 l 79 726 l 267 726 l 267 0 l 79 0 m 196 786 l 127 854 q 166 885 150 867 q 182 924 182 904 q 163 955 182 945 q 112 966 144 966 q 77 963 96 966 q 41 954 58 960 l 41 1064 q 84 1076 56 1072 q 136 1080 113 1080 q 254 1046 210 1080 q 297 949 297 1013 q 266 848 297 892 q 196 786 235 804 z "},"ȋ":{"ha":434,"x_min":-33,"x_max":467,"o":"m 124 0 l 124 726 l 311 726 l 311 0 l 124 0 m 217 1043 q 345 1013 288 1043 q 434 932 401 983 q 467 817 467 880 l 350 817 q 312 903 350 868 q 218 938 274 938 q 123 903 161 938 q 83 817 84 868 l -33 817 q 0 932 -33 880 q 90 1013 33 983 q 217 1043 146 1043 z "},"ī":{"ha":434,"x_min":-12,"x_max":446,"o":"m 124 0 l 124 726 l 311 726 l 311 0 l 124 0 m -12 857 l -12 971 l 446 971 l 446 857 l -12 857 z "},"į":{"ha":345,"x_min":19,"x_max":292,"o":"m 79 0 l 79 726 l 267 726 l 267 0 l 79 0 m 172 819 q 88 853 123 819 q 54 938 54 888 q 88 1022 54 988 q 172 1057 123 1057 q 257 1022 222 1057 q 291 938 291 988 q 257 853 291 888 q 172 819 222 819 m 165 -289 q 60 -253 100 -289 q 19 -157 19 -216 q 61 -56 19 -100 q 168 31 103 -12 l 266 0 q 203 -45 233 -23 q 155 -90 174 -67 q 137 -136 137 -112 q 153 -169 137 -157 q 198 -181 168 -181 q 240 -175 218 -181 q 273 -162 262 -170 l 273 -269 q 222 -283 254 -277 q 165 -289 190 -289 z "},"ĩ":{"ha":434,"x_min":-40,"x_max":475,"o":"m 124 0 l 124 726 l 311 726 l 311 0 l 124 0 m -40 817 q 5 971 -40 918 q 118 1023 50 1023 q 184 1009 157 1023 q 229 978 210 996 q 265 946 248 960 q 302 932 282 932 q 342 958 330 932 q 355 1023 355 983 l 475 1023 q 431 871 475 925 q 317 817 386 817 q 252 831 278 817 q 207 863 227 845 q 171 896 188 882 q 132 909 153 909 q 93 884 106 909 q 80 817 81 858 l -40 817 z "},"j":{"ha":375,"x_min":-44,"x_max":319,"o":"m 46 -299 q 1 -296 24 -299 q -44 -289 -22 -294 l -44 -119 q -11 -128 -28 -125 q 20 -130 7 -130 q 87 -107 66 -130 q 108 -45 108 -84 l 108 726 l 295 726 l 295 -41 q 268 -173 295 -115 q 186 -265 241 -231 q 46 -299 132 -299 m 201 819 q 117 853 151 819 q 82 938 82 888 q 117 1022 82 988 q 201 1057 151 1057 q 285 1022 251 1057 q 319 938 319 988 q 285 853 319 888 q 201 819 251 819 z "},"ȷ":{"ha":375,"x_min":-44,"x_max":295,"o":"m 46 -299 q 1 -296 24 -299 q -44 -289 -22 -294 l -44 -119 q -11 -128 -28 -125 q 20 -130 7 -130 q 87 -107 66 -130 q 108 -45 108 -84 l 108 726 l 295 726 l 295 -41 q 268 -173 295 -115 q 186 -265 241 -231 q 46 -299 132 -299 z "},"ĵ":{"ha":427,"x_min":-52,"x_max":453,"o":"m 46 -299 q 1 -296 24 -299 q -44 -289 -22 -294 l -44 -119 q -11 -128 -28 -125 q 20 -130 7 -130 q 87 -107 66 -130 q 108 -45 108 -84 l 108 726 l 295 726 l 295 -41 q 268 -173 295 -115 q 186 -265 241 -231 q 46 -299 132 -299 m 22 784 l -52 872 l 181 1076 l 220 1076 l 453 872 l 380 784 l 203 942 l 198 942 l 22 784 z "},"k":{"ha":776,"x_min":75,"x_max":772,"o":"m 75 0 l 75 1044 l 262 1044 l 262 437 l 321 437 l 257 404 l 530 727 l 755 727 l 402 327 l 402 433 l 772 0 l 548 0 l 256 351 l 321 315 l 262 315 l 262 0 l 75 0 z "}}}
